<?xml version="1.0" encoding="UTF-8" standalone="no"?>
<!DOCTYPE svg PUBLIC "-//W3C//DTD SVG 1.1//EN" "http://www.w3.org/Graphics/SVG/1.1/DTD/svg11.dtd">
<svg version="1.1" xmlns="http://www.w3.org/2000/svg" xmlns:xlink="http://www.w3.org/1999/xlink" preserveAspectRatio="xMidYMid meet" viewBox="0 0 640 640" width="900" height="900"><defs><path d="M116.02 379.15L113.36 380.06L111.16 380.81L111.16 384.07L109.77 382.5L108.11 380.81L108.36 378.7L109.52 376.39L109.52 375.31L110.27 374.64L113.36 373.39L113.16 372.33L110.94 372.06L110.27 373.7L107.02 375.04L105.11 374.33L104.02 375.31L102.25 375.5L100.8 378.06L100.8 380.06L99.05 378.06L98.77 376.1L99.69 373.89L101.63 372.76L100.8 371.78L100.11 371.78L99.05 370.7L97.96 371.3L96.96 372.76L95.25 372.76L93.54 374.33L93.11 377.04L92.11 375.04L93.11 372.33L95.25 370.7L95.82 368.62L97.96 368.19L97.96 367.04L100.11 366.19L102.25 364.9L103.82 363.62L106.25 364.9L107.36 363.1L109.96 363.1L113.16 364.3L111.16 361.1L108.56 353.9L105.36 346.7L104.56 340.9L104.56 336.1L107.36 325.9L117.36 310.9L139.96 307.9L162.96 318.5L169.56 334.58L161.76 332.5L157.16 333.3L152.36 336.1L148.36 343.5L138.56 346.7L133.36 346.7L129.96 353.3L127.76 362.5L127.76 365.88L129.96 370.7L131.56 371.3L133.36 370.1L135.16 371.3L136.36 373.7L137.76 376.1L137.76 380.3L136.36 382.5L134.56 378.7L132.73 376.1L130.72 377.7L126.76 377.7L125.36 375.5L120.76 376.1L118.56 377.7L116.76 377.7L116.02 379.15Z" id="f1fQFMTOpq"></path><path d="M126 313.61L145.4 301.23L180.66 308.57L219.12 324.01L280.74 345.03L349.9 346.55L349.9 346.55L404.48 365.88L451.32 369.03L480.82 345.03L524.12 355.83L533.88 408.95L520.98 441.17L483.04 456.17L423.26 452.57L394.34 447.53L331.88 436.55L264.7 437.31L215.02 443.33L166.58 471.37L168.98 466.37L177.78 456.17L185.62 449.33L188.62 449.33L190.02 447.53L194.63 443.33L201.62 439.13L215.02 433.13L223.22 431.75L226.02 433.55L245.02 426.57L249.54 426.57L258.22 423.49L269.22 422.43L273.58 424.19L285.42 421.57L295.22 421.57L304.18 423.49L309.18 422.43L323.18 420.49L330.38 421.57L333.78 423.49L336.74 422.43L343.25 421.57L354.94 421.57L363.64 425.45L371.04 424.19L385.04 424.19L392.66 426.05L397.86 429.95L406.14 429.95L419.14 430.75L431.22 435.35L438.82 434.15L449.22 434.95L455.22 435.35L461.82 431.75L469.42 429.95L473.82 430.75L476.22 428.95L480.82 424.75L489.22 419.75L495.22 417.35L495.22 414.55L497.02 408.95L499.82 404.35L503.22 401.15L506.62 400.55L504.82 399.15L503.22 396.35L500.62 390.15L501.62 385.57L499.82 385.57L498.42 382.25L487.82 381.15L482.62 378.95L476.22 381.57L463.42 384.77L439.62 385.57L387.84 391.05L366.44 390.65L365.04 388.65L361.64 389.45L352.53 388.65L269.22 382.25L255.22 383.13L247.22 380.65L244.02 378.05L236.46 377.03L225.06 373.43L215.86 369.03L214.26 367.03L212.26 365.88L209.46 362.83L174.78 340.41L168.98 335.21L167.98 332.21L160.58 328.61L153.38 324.41L153.38 321.61L150.71 320L148.04 316.27L144.71 313.61L139.38 314.94L133.04 316.27L126 313.61Z" id="d62GKuTvzD"></path><path d="M438.97 383.97L447.59 383.97L460.03 383.97L467.26 383.54L474.28 380.82L482.28 377.28L485.99 379.42L494.13 380.28L498.56 379.85L504.99 376.42L508.56 371.85L514.27 368.99L508.56 375.71L504.99 378.79L500.03 381.99L500.41 383.13L503.28 384.57L509.56 385.04L517.84 384.57L522.41 385.79L519.27 386.3L511.84 386.71L504.99 386.3L502.99 386.3L502.56 390.71L503.94 393.99L507.94 399.14L509.56 401.42L521.41 410.71L515.09 408.74L510.94 405.79L507.94 402.59L503.94 401.88L501.84 404.49L498.56 407.21L496.99 412.29L496.56 416.49L497.53 420.92L500.03 423.78L505.99 427.01L500.41 425.92L496.99 422.92L495.28 419.47L493.7 419.47L489.41 420.92L485.56 423.78L481.24 426.42L477.24 428.91L473.03 432.54L471.6 437.41L472.17 442.34L470.74 440.78L470.17 435.92L471.31 432.54L466.78 431.29L461.46 433.51L456.3 436.28L449.16 440.28L442.87 444.99L447.59 439.62L452.87 435.92L444.01 434.04L436.44 435.42L431.11 436.64L423.4 439.62L416.69 444.05L417.26 442.34L420.28 439.62L427.83 435.92L422.83 433.51L418.97 431.65L412.97 431.29L407.26 430.37L400.33 430.37L396.33 431.65L390.76 431.65L385.9 433.07L380.19 433.51L387.76 430.37L396.33 429.72L393.86 427.51L386.76 425.92L382.04 424.92L378.84 424.92L370.84 424.92L367.27 425.92L362.56 426.42L359.86 426.42L349 428.07L359.86 424.19L357.43 422.92L353.43 422.09L348 422.09L342.57 422.43L334.87 423.78L332.01 424.92L328.3 425.92L326.16 428.07L327.51 424.92L332.01 423.29L330.3 422.43L325.44 421.42L321.9 420.92L317.47 421.79L309.84 422.92L306.56 423.29L298.56 425.92L293.84 427.01L294.99 425.58L303.13 423.78L296.76 422.43L290.44 422.43L284.73 421.79L280.3 423.29L273.72 424.92L264.19 427.01L271.47 423.29L268.89 422.92L264.19 423.78L258.9 423.78L254.76 424.92L250.04 427.01L244.33 429.72L239.37 432.54L242.04 429.42L246.9 427.01L244.76 425.58L239.37 428.07L231.09 432.54L225.23 434.04L222.16 436.64L216.8 441.21L217.51 438.09L221.02 435.92L223.09 433.07L219.09 433.07L214.8 434.04L211.51 435.92L205.09 438.09L200.51 440.78L194.77 443.35L191.23 446.84L189.23 450.21L189.23 456.64L188.51 453.49L187.44 449.87L183.66 452.9L172.66 463.37L166.66 469.87L169.91 463.37L186.19 447.84L188.91 446.84L193.66 442.34L202.16 438.09L215.66 431.29L222.16 431.29L225.91 432.54L245.16 424.19L248.41 426.42L251.16 424.92L257.66 422.43L268.89 421.42L274.66 423.29L284.41 420.17L296.76 420.92L305.51 422.43L323.01 419.47L327.51 420.17L334.51 422.43L340.26 420.92L349.51 420.17L358.11 421.42L364.36 424.92L372.61 423.29L382.86 423.29L393.86 425.92L399.11 429.42L405.28 428.54L420.28 430.04L430.53 434.79L434.03 434.04L445.78 432.54L455.03 434.79L460.03 432.54L466.78 430.04L473.03 431.29L474.28 428.54L482.28 423.29L490.53 418.29L495.28 417.54L495.28 412.29L497.53 405.79L503.28 400.54L507.03 400.54L504.53 398.54L500.03 390.04L500.03 387.04L500.03 385.04L497.53 382.54L486.78 381.29L482.28 378.79L478.53 381.29L464.53 385.79L439.28 385.79L438.97 383.97Z" id="aEMiy03X"></path><path d="M178.01 235.49L95.01 250.16L100.34 239.13L107.34 231.82L110.34 224.49L111.34 215.82L116.01 204.49L136.68 191.82L158.34 157.49L173.01 126.52L183.34 122.82L192.34 125.16L197.39 135.76L196.34 139.82L192.34 146.16L178.01 190.16L176.68 212.16L183.34 226.82L178.01 235.49Z" id="h2ZPyRwY61"></path><path d="M85.98 403.62L95.98 393.48L110.84 389.33L126.7 402.19L109.7 411.05L95.55 419.05L90.55 421.76L88.84 421.76L85.98 403.62Z" id="a2BzvwMYbq"></path><path d="M10.92 405.92L12.64 409.49L14.78 410.78L83.97 422.25L87.38 421.76L89.11 419.96L90 417.25L87.38 372.53L86.51 368.25L83.24 365.88L79.67 365.25L17.24 364.82L13.67 364.82L11.81 365.53L9.67 367.82L8.67 370.53L10.92 405.92Z" id="dP9eSrGqF"></path><path d="M132.73 316.15L144.87 314.01L148.69 317.44L150.58 320L153.19 321.58L153.73 324.73L168.01 332.58L168.87 335.3L177.3 342.15L176.44 339.58L171.91 336.87L170.58 334.15L178.44 336.87L176.44 334.15L173.01 332.3L164.58 328.73L155.58 324.73L155.01 322.01L167.58 325.15L177.01 325.15L183.15 320.3L178.44 321.58L168.44 323.44L160.3 322.01L155.01 320L154.19 318.26L157.94 316.6L166.19 316.6L171.91 311.35L164.94 314.6L156.74 314.6L148.69 315.6L147.44 312.85L150.19 310.29L153.19 305.85L147.44 310.29L142.94 312.85L134.44 314.6L132.73 316.15Z" id="a5WQxH4u7v"></path><path d="M209.08 363.03L211.08 365.45L214.08 366.74L216.23 369.45L226.65 374.45L237.08 376.88L242.65 377.45L244.65 379.31L249.68 381.88L255.8 383.13L270.51 383.13L270.51 381.45L268.37 380.6L259.37 381.88L251.65 380.6L246.08 378.03L248.65 378.03L259.08 376.03L264.94 372.31L265.65 369.45L261.08 371.74L253.8 374.45L246.08 375.45L236.51 374.45L227.37 371.74L216.23 366.74L223.8 364.31L235.65 359.87L246.65 354.6L251.65 348.03L248.65 348.03L239.51 356.45L225.23 361.6L215.23 364.31L211.08 362.31L209.08 363.03Z" id="c8RpBQPy"></path><path d="M346.44 385.14L352.3 389.14L357.44 389.14L360.87 389.14L364.58 389.85L366.73 391.28L370.3 392L383.3 392L389.44 392L387.15 389.85L375.87 390.14L366.73 389.14L372.58 388.14L380.15 384.57L380.58 382.43L373.15 386L367.58 387.57L359.01 388.14L352.67 387.57L348.15 383.85L351.58 381.71L357.01 378.43L360.44 371.71L362.87 366.85L362.58 361.14L359.87 367.43L357.01 373.71L352.67 379.43L348.15 380.57L346.44 385.14Z" id="b4MXiyl9V4"></path><path d="M126.74 239.54L136.41 235.04L142.08 224.21L144.91 215.71L147.74 200.04L157.91 191.04L159.91 185.71L165.41 176.87L167.58 170.71L171.91 157.87L166.24 165.37L155.41 182.87L142.58 192.87L124.08 205.87L116.91 221.87L102.58 246.54L126.74 239.54Z" id="a2l52y4dfe"></path><path d="M138.08 237.04L148.24 238.21L156.08 231.37L160.91 221.87L162.74 213.71L160.24 205.04L160.24 198.87L165.91 190.71L168.74 181.71L175.41 154.87L169.58 176.54L165.24 188.71L160.91 196.37L158.08 199.37L155.58 203.04L155.58 206.76L152.58 215.87L147.41 226.37L138.08 237.04Z" id="e3I0DTeMth"></path><path d="M74.35 365.53L82.95 358.33L88.95 354.13L97.75 345.93L99.95 341.33L106.15 339.73L115.55 334.13L118.77 329.73L126.87 327.15L130.37 324.23L136.07 320.75L139.07 317.15L131.65 317.64L133.77 315.55L140.3 309L151.49 306.35L164.97 308.35L170.67 311.35L180.47 315.55L183.87 321.81L179.27 328.15L177.87 334.13L176.31 342.13L172.91 349.93L169.71 354.93L166.77 357.29L159.37 375.74L160.97 382.13L159.37 384.29L155.37 385.09L147.37 389.63L142.77 391.49L136.97 390.49L135.17 392.09L130.97 391.49L126.17 390.49L124.37 388.89L119.97 389.63L117.37 387.63L113.57 387.63L112.17 388.89L111.17 387.63L105.37 386.69L101.27 388.89L97.17 388.46L93.97 391.49L91.57 395.46L94.57 399.89L96.57 399.89L98.57 397.69L98.57 400.29L102.77 401.89L105.37 400.69L107.37 396.49L109.17 397.69L108.17 401.46L113.57 401.89L116.77 401.46L118.77 401.46L122.97 405.63L126.17 406.69L130.37 406.69L133.77 408.09L137.63 407.46L140.3 404.46L143.3 404.46L152.3 407.46L164.97 407.46L176.97 404.46L182.3 405.63L190.84 402.96L194.49 397.13L196.3 383.58L202.99 375.74L207.97 365.53L213.97 358.33L217.87 341.33L228.49 344.86L251.37 348.33L344.07 355.63L354.94 354.13L362.19 365.53L369.44 369.96L375.94 376.71L376.94 381.46L382.44 388.46L394.69 395.46L405.19 401.46L409.69 407.46L387.19 402.96L380.69 402.96L377.69 404.46L372.94 409.46L372.94 413.46L375.94 414.21L384.69 420.21L387.94 421.71L394.69 421.13L398.19 420.21L405.94 427.21L409.69 427.21L413.44 428.98L420.94 427.21L423.99 424.13L445.24 434.13L454.74 434.13L463.74 430.63L467.24 419.13L460.74 412.63L459.74 405.63L452.74 397.13L438.84 387.63L445.24 382.13L454.74 382.13L465.24 383.58L483.24 379.13L496.74 365.53L513.74 371.13L527.09 389.63L519.74 421.13L479.74 446.08L426.69 446.08L381.69 435.13L351.19 430.63L305.49 428.98L266.49 428.98L243.49 432.98L202.99 444.98L151.49 481.98L194.49 459.48L228.49 453.98L257.34 452.23L294.59 452.23L324.34 457.73L352.84 463.28L438.84 478.28L527.09 486.08L562.09 465.58L579.09 446.08L597.59 411.58L601.09 383.58L595.09 343.08L573.59 310.08L521.59 272.87L423.99 243.63L294.59 239.71L190.84 233.66L131.65 236.33L117.9 239.71L101.27 246.01L86.27 250.63L76.52 255.63L67.72 263.62L69.34 255.37L65.22 259.75L58.59 270.5L54.34 278L54.34 272.87L55.72 263.12L51.22 268.37L47.72 278.5L46.62 289L44.12 293.5L43.37 303.25L39.33 309L36.92 312L37.91 316.14L34.24 312.73L35.91 318.89L33.92 317.64L35.91 321.81L31.41 318.89L34.41 324.23L37.91 327.56L38.24 329.73L39.33 330.23L39.12 331.33L40.32 334.13L39.12 335.73L39.72 337.93L41.92 341.33L41.12 346.33L39.12 348.33L36.92 352.33L37.52 354.13L33.92 356.33L33.52 358.33L34.92 358.93L34.92 361.53L33.52 362.93L35.72 365.53L74.35 365.53Z" id="bYmHJnYZ5"></path><path d="M99.54 341.75L97.04 346.98L82.26 358.38L77.91 363.75L73.64 365.88L64.58 365.38L65.79 363.75L67.85 362.12L70.23 359.47L73.1 357.99L76.85 355.97L79.83 351.27L80.26 348.13L80.26 346.15L78.83 345.55L81.12 344.41L83.78 344.41L84.4 347.7L82.78 346.98L82.26 350.13L81.12 354.13L79.48 355.97L76.31 358.8L73.64 359.47L71.14 360.95L69.78 362.75L69.78 364.75L74.18 363.75L77.38 360.95L83.78 354.75L91.78 346.15L93.98 341.15L92.78 334.35L88.38 331.15L86.18 327.35L82.78 328.15L80.78 330.55L77.38 333.35L71.98 334.35L74.18 336.75L67.58 335.15L67.27 334.89L67.4 335.05L64.74 335.71L57.24 336.05L52.65 336.88L49.05 335.71L45.9 335.05L44.24 339.88L42.24 342.71L39.4 337.88L39.4 335.05L40.4 333.71L39.4 332.38L39.4 331.05L38.07 330.05L38.07 327.55L43.57 327.55L46.4 328.71L47.74 329.05L49.05 329.55L50.55 328.2L58.24 328.2L60.4 330.05L63.23 329.2L63.33 329.04L65.79 326.67L70.58 325.04L74.18 325.04L76.85 324.67L80.78 325.79L84.83 325.79L83.45 324.67L87.95 322.92L97.58 334.04L99.54 341.75ZM43.07 339.21L44.24 335.13L41.9 335.71L43.07 339.21Z" id="fWiFFFYfm"></path><path d="M85.96 340.54L88.13 344.04L89.63 338.88L88.13 335.71L85.13 335.71L83.79 338.38L85.96 340.54Z" id="c2oTPlpuMF"></path><path d="M59.81 353.91L63.06 352.38L63.89 353.58L63.06 356.5L60.89 358.54L58.31 359.87L56.13 360.83L55.46 362.08L53.79 365.21L55.46 365.21L56.13 363.38L57.96 362.88L60.13 361.54L61.63 359.21L64.46 358.54L64.46 362.88L66.79 356.71L67.63 353.21L67.04 348.38L67.04 345.83L68.04 338.63L65.46 344.88L61.63 352.38L59.81 353.91Z" id="bi1s1P9wi"></path><path d="M34.47 356.18L33.34 358.06L34.47 359.06L34.47 362.18L36.47 362.18L37.59 363.43L38.39 364.07L40.1 364.53L38.07 358.73L34.9 358.06L34.47 356.18Z" id="a9cpye9FO"></path><path d="M45.97 364.06L53.79 364.53L54.22 365.56L35.9 365.56L33.45 362.91L35.9 363.07L36.87 364.06L43.09 364.53L44.84 359.56L45.97 364.06Z" id="a1cSM6Tnfp"></path><path d="M81.95 314.57L77.83 321.69L73.83 322.32L81.95 314.57Z" id="b16qpkI2Os"></path><path d="M71.2 321.44L73.33 317.19L68.04 321.94L71.2 321.44Z" id="dIXmwMrzd"></path><path d="M87.58 321.19L86.71 323.57L91.95 329.32L94.83 325.44L98.7 320.82L100.08 316.82L103.7 313.94L103.7 310.44L102.08 310.44L92.83 313.94L93.58 310.44L91.95 311.82L88.33 318.44L83.08 320.82L87.58 321.19Z" id="elgmc4tyR"></path><path d="M103.28 324.89L115.53 319.57L121.15 313.52L121.78 308.77L122.4 301.14L111.28 315.39L97.28 321.39L103.28 324.89Z" id="a7MOq16dg"></path><path d="M98.53 329.64L99.54 334.02L97.28 336.52L98.53 342.02L100.65 340.14L102.53 334.02L104.9 331.27L112.15 329.32L122.4 318.44L116.53 322.32L109.84 327.27L101.78 327.77L98.53 329.64Z" id="g2OycPcHwy"></path><path d="M99.14 341.48L106.3 339.32L115.97 333.82L118.64 329.65L119.14 326.15L113.8 332.65L107.14 335.71L101.3 337.32L99.14 341.48Z" id="b2NL5uy9bp"></path><path d="M119.14 321.94L127.8 322.32L139.14 317.19L135.97 320.82L126.8 326.98L118.47 329.82L119.51 324.02L117.14 326.65L112.76 328.64L119.14 321.94Z" id="aLNpODnAI"></path><path d="" id="bXYXozica"></path><path d="M120.68 310.75L127.68 302.75L133.43 297.5L127.68 308.88L120.3 315.63L120.68 310.75Z" id="asyGmn2Yh"></path><path d="M140.87 304.64L133.43 316.52L127.87 320.77L123.24 320.77L126.87 314.57L136.49 305.52L141.62 297.77L140.87 304.64Z" id="dmU9r69d"></path><path d="M119.53 295.79L116.53 301.14L110.15 308.67L105.89 310.44L102.15 309.67L101.78 305.17L106.28 301.67L115.53 293.79L125.15 280.04L119.53 295.79Z" id="g4uL0N3jen"></path><path d="M37.65 327.32L34.28 324.32L31.41 319.07L36.72 324.69L40.78 327.32L37.65 327.32Z" id="a2E8te1Ko9"></path><path d="M36.09 322.32L39.28 323.69L34.4 318.44L36.09 322.32Z" id="g2LnY3PofZ"></path><path d="M36.72 320L40.78 321.57L37.78 319.57L34.4 313.32L36.72 320Z" id="l86wiAEmwh"></path><path d="M54.38 272.8L54.38 278.05L50.13 284.18L51.63 275.3L55.38 264.3L54.38 272.8Z" id="d2DA8uyBx"></path><path d="M68.04 263.32L61.58 274.94L69.08 254.69L68.04 263.32Z" id="d6gTNYYetS"></path><path d="M47.39 319.57L46.64 318.08L51.52 319.07L43.83 322.32L39.28 321.57L38.07 320L41.64 320L41.64 318.44L43.27 320L43.27 317.7L44.27 319.07L46.27 319.88L47.39 319.57Z" id="afemKldbI"></path><path d="M68.31 329.79L71.89 328.2L74.89 328.54L80.73 329.79L78.56 331.87L72.39 332.87L69.23 332.54L66.73 331.37L68.31 329.79Z" id="c1zTOCzHpa"></path><path d="M71.82 329.2L74.48 329.64L75.69 331.05L75.65 332.63L72.13 333.29L69.47 332.89L68.59 331.45L69.55 330.14L71.82 329.2Z" id="cHU2dm7GR"></path><path d="M39.48 332.91L40.48 334.16L42.73 334.5L45.23 334.16L46.64 331.66L43.06 330.4L40.48 330.4L39.14 331.25L39.48 332.91Z" id="b2fGfO8I6d"></path><path d="M40.56 332.81L40.56 334.16L42.73 334.58L45.39 334.16L45.64 333.16L44.89 331.83L43.23 331.33L41.73 331.58L40.56 332.81Z" id="a1VPg9RSR5"></path><path d="M183.22 320.67L180.22 315.13L170.47 311.17L165.72 308.17L150.97 306.17L140.22 308.92L133.8 315.13L140.22 303.8L140.8 297.8L129.47 305.46L132.8 297.8L124.88 301.63L124.88 297.8L136.47 287.17L168.47 280.17L192.22 291.92L190.72 311.17L190.72 317.92L183.22 320.67Z" id="b3QxG1g3AB"></path><path d="M243 336.18L344.8 319.35L362.73 320L391.66 308.85L418.18 305.39L389.44 315.07L368.8 326.18L361.3 336.18L355.8 355.42L344.8 355.42L253.47 349.17L227.8 344.55L217.77 341.1L214.05 358.27L207.76 365.88L203.19 375.42L196.33 383.7L194.76 396.56L190.77 402.7L182.05 405.85L176.47 404.42L165.19 407.63L152.33 407.2L142.76 404.42L140.19 404.77L137.62 407.63L133.19 408.2L130.47 406.77L126.19 406.77L122.62 405.35L119.27 401.17L128.27 403.42L134.27 404.42L138.52 403.42L141.62 403.42L147.52 401.17L167.77 398.17L173.52 400.42L183.02 398.92L189.52 393.67L190.77 382.17L195.52 378.42L200.52 368.17L199.52 356.92L192.22 355.42L202.77 349.17L208.77 332.92L217.77 317.67L243 336.18Z" id="d1JoW6EMgO"></path><path d="M375.8 375.78L375.8 380.28L378.8 385.28L384.8 389.78L403.3 400.28L408.8 406.78L417.8 410.28L433.3 410.28L417.8 403.78L412.8 397.28L396.3 380.28L386.8 377.28L384.8 367.28L384.8 359.87L375.8 367.28L358.3 362.94L375.8 375.78Z" id="a6HUiXMBmJ"></path><path d="M418 357.58L426.1 366.08L431 375.08L438.5 386.08L445.5 382.08L457.5 382.08L464 382.08L484 378.58L491.5 371.58L497.1 358.83L498.6 344.83L497.1 350.83L479.1 367.83L459.1 367.83L435.1 364.33L426.1 354.33L408.6 353.33L418 357.58Z" id="l3W4bxXmuP"></path><path d="M466.98 418.66L466.98 421.58L465.98 425.06L463.78 430.86L457.98 433.06L448.58 434.86L443.18 432.26L426.98 426.58L425.58 425.06L423 425.06L421.38 427.33L411.88 428.58L409.88 426.58L404.88 426.58L399.88 421.08L396.38 420.33L393.88 421.58L384.88 420.33L382.88 419.08L381.13 416.33L376.88 414.08L372.63 412.08L375.13 412.08L380.38 411.33L386.38 408.2L395.13 408.2L401.88 411.33L390.13 410.28L383.88 412.08L382.88 414.08L384.88 416.33L391.13 419.08L395.13 417.58L404 416.33L412.88 417.58L404 419.08L408.6 424.08L417.5 424.08L423 419.08L433.3 421.58L445.5 425.58L457.5 425.58L465 419.08L466.98 418.66Z" id="cHvfz1Aoc"></path><path d="M446.38 408.7L453.6 411.86L448.88 403.36L441.38 398.86L446.38 408.7Z" id="aauOnRAaJ"></path><path d="M189.68 460.21L210.68 456.66L225.18 454.36L264.63 451.31L299.63 453.21L339.13 460.21L397.13 470.26L462.13 480.16L527.13 486.08L561.13 467.26L585.13 434.86L562.63 454.36L525.58 467.26L465.08 470.26L402.48 462.21L345.98 451.31L288.93 444.26L252.08 442.31L200.58 451.31L156.58 478.81L189.68 460.21Z" id="i1cH1c4oVO"></path><path d="M493.03 365.46L509.03 368.41L523.53 381.41L526.53 398.86L520.53 418.41L534.03 391.41L526.53 368.41L498.6 356.91L493.03 365.46Z" id="c3daOmm5T5"></path><path d="M162.63 365.88L159.63 374.32L160.63 380.99L167.96 380.99L180.29 385.99L180.29 377.32L172.96 375.32L166.29 368.66L166.29 358.32L162.63 365.88Z" id="a68WcrsNU"></path><path d="M171.96 350.32L181.63 346.66L176.96 337.32L171.96 350.32Z" id="b3MZxTl29"></path><path d="M109.77 397.38L112.2 395.89L113.63 392.32L114.63 390.32L113.63 390.32L110.63 391.03L109.03 392.32L107.2 394.89L105.34 395.58L104.63 398.03L103.2 399.58L102.2 396.32L100.77 395.58L98.91 395.89L100.06 392.89L101.49 391.03L102.2 388.89L100.06 390.32L98.34 392.89L96.77 394.46L95.34 395.58L93.77 394.46L91.63 395.58L93.77 399.89L96.2 399.89L98.34 398.03L98.91 400.46L103.2 401.18L105.34 400.46L106.77 396.78L108.63 396.78L108.63 401.61L113.63 401.61L116.83 401.18L120.77 401.18L124.88 403.18L124.23 401.18L122.63 396.78L119.27 395.58L116.83 397.38L114.63 399.58L109.03 399.58L109.77 397.38Z" id="aT8Ssye2y"></path><path d="M143.2 398.32L144.2 395.32L138.49 397.61L143.2 398.32Z" id="cey4W6aPP"></path><path d="M61.35 302.48L67.55 287.16L74.17 275.68L87.15 264.44L103.35 255.88L116.13 250.72L139.51 244.72L162.25 236.68L179.25 240.48L206.05 234.54L310.67 249.68L347.05 254.86L415.61 246.6L470.71 257.14L515.95 274.72L532.05 298.78L558.73 327.2L579.07 365.14L573.71 389.44L569.73 426.06L548.65 448L526.35 481.44L503.27 479.7L469.13 478.44L452.67 473.46L440.27 472.72L431.49 468.84L420.65 463.04L397.19 462.32L380.05 461.82L362.85 455.92L339.53 453.32L311.47 448L277.29 446.38L252.55 448.72L238.89 448.72L217.49 451.12L198.29 455.92L175.11 474.24L167.69 489.12L217.49 453.32L190.49 474.24L210.15 464.36L238.35 450.62L223.95 461.82L209.55 480.44L227.55 461.82L252.55 450.62L237.15 461.82L240.15 460.92L254.35 453.32L278.75 447.52L258.55 459.84L251.55 469.52L259.15 464.92L290.55 453.32L314.35 449.38L307.35 453.92L293.75 470.46L324.75 457.92L338.38 455.36L324.35 463.64L317.35 472.72L324.35 465.98L340.75 460.92L363.75 457.92L353.75 462.32L345.55 467.72L339.53 479.06L354.35 470.46L365.35 467.12L379.01 463.64L366.33 474.24L361.01 484.24L367.21 478.44L386.21 470.46L398.01 464.36L417.69 464.36L410.89 465.98L402.09 472.18L396.09 477.58L391.49 485.02L390.33 492.22L392.89 494.04L405.09 481.44L417.69 471.58L430.85 470.46L426.45 473.46L420.65 479.06L416.77 487.26L416.77 498.02L428.57 485.56L440.27 475.04L453.13 475.04L447.33 480.44L444.93 488.24L445.93 498.02L450.53 494.04L469.13 480.44L476.67 480.44L472.73 488.24L473.33 495.76L478.39 508.96L482.27 500.96L486.59 495.76L495.99 485.56L503.27 482.16L503.27 485.02L503.27 492.22L505.47 500.24L509.87 509.62L509.87 507.02L513.33 498.02L520.87 486.08L527.35 482.84L524.95 492.84L526.35 499.24L532.75 500.24L544.89 494.04L548.65 488.24L544.89 481.44L544.89 476.44L547.75 459.84L550.25 449.38L554.85 456.78L563.29 464.36L576.45 468.18L593.63 464.36L583.51 455.36L576.03 443.88L571.91 428.28L580.09 435.68L594.83 442.48L608.51 443.88L613.63 440.68L615.43 436.68L605.49 430.68L592.71 420.08L583.51 405.08L576.03 389.44L587.43 399.84L599.63 407.04L608.03 408.44L618.03 405.84L633.23 396.44L623.63 395.84L613.63 392.04L594.83 380.44L593.63 377.1L588.43 369.3L582.63 366.3L610.43 371.5L615.43 370.1L626.43 363.5L630.03 355.5L622.63 354.5L611.83 352.1L597.29 345.3L561.69 327.2L580.09 332.4L592.09 333L599.09 328.8L605.49 315.2L602.49 316.48L597.29 316L563.29 309L544.89 304L535.89 299.4L556.29 295.8L565.49 291.6L571.25 284.12L548.65 285.72L538.65 284.12L532.05 282.12L520.05 274.72L523.85 273.52L536.45 270.12L547.25 263.92L555.53 255.44L543.13 257.56L513.33 259.56L482.27 258.08L476.67 255.44L490.67 252.8L498.27 249.68L501.87 244.24L500.67 237.6L454.07 246.08L433.65 246.6L416.77 245.18L428.57 241.88L439.17 236.16L440.77 230.78L425.77 234.54L386.77 246.6L355.53 252.8L348.33 252.8L366.33 246.6L382.13 237.6L388.73 229.68L390.33 222.88L316.93 249.68L312.13 248.48L318.33 246.08L329.33 239.88L334.93 233.66L339.53 221.08L338.38 216.68L330.93 223.48L323.33 230.28L312.13 236.68L298.55 241.88L207.55 225.28L205.55 226.7L197.35 232.68L191.35 236.68L182.37 238.34L187.17 236.16L194.37 229.68L199.17 222.36L202.97 212.16L201.17 206.76L194.37 216.14L170.17 233.66L163.51 234.54L175.11 220.12L180.71 207.72L139.51 242.74L144.31 238.34L152.91 229.68L158.71 224.14L161.31 213.34L159.51 216.14L151.11 225.28L137.71 234.54L117.15 248.48L121.95 243.28L126.95 236.68L130.75 229.68L133.35 222.88L133.95 215.08L128.15 225.28L122.55 232.68L114.95 243.28L103.35 254.08L110.95 240.48L112.95 231.48L96.55 255.88L87.15 262.48L89.35 256.48L91.63 248.48L89.35 241.88L83.95 258.08L76.15 268.28L67.55 278.68L63.95 292.68L65.95 283.08L64.55 275.68L61.35 289.08L58.75 302.48L57.95 297.48L55.15 292.68L55.15 307.88L53.55 316.48L61.35 302.48Z" id="e2dHyWjOvh"></path><path d="M82.84 310.29L89.17 310.29L94.17 304.51L94.17 298.51L100.17 295.84L110.84 286.17L120.84 276.84L130.84 247.84L122.5 266.17L113.84 278.51L89.17 288.84L80.84 295.84L76.17 302.17L77.5 307.51L82.84 310.29Z" id="k1NkS8UWo5"></path><path d="M33.14 299.93L32.39 296.13L32.39 287.88L35.39 279.06L40.39 268.63L45.39 254.69L44.39 244.13L42.14 239.13L46.14 241.38L49.64 248.63L50.64 261.38L49.64 265.88L43.39 281.38L45.39 291.63L50.64 296.13L47.64 304.63L40.39 308.63L33.14 299.93Z" id="geGuuUKOF"></path><path d="M201.64 263.58L203.39 257.02L208.23 253.31L222.77 261.01L235.32 283.26L240.88 313.06L238.03 333.02L255.31 354.84L270.12 382.56L275.53 415.07L287.23 413.07L305.76 413.07L324.87 416.78L337.42 422.43L352.67 397.18L352.67 387.68L347.42 379.93L343.39 362.93L344.67 328.96L345.92 302.71L342.42 296.46L317.92 275.21L302.67 254.21L298.72 241.26L279.67 172.96L232.89 135.46L225.14 119.46L218.14 117.21L211.64 119.46L202.14 121.96L202.14 124.46L203.39 139.96L201.64 150.71L204.39 172.96L205.12 198.88L210.12 216.88L206.87 231.63L196.12 244.13L185.12 247.63L201.64 263.58Z" id="bo1AMwl3V"></path><path d="M239.51 156.25L254.01 168.87L268.89 186.59L275.14 212.95L296.94 267.39L324.11 298.92L329.78 327.59L338.38 372.25L343.39 364.92L343.39 355.25L340.11 360.27L338.38 350.92L337.44 320.4L336.44 300.04L332.48 297.52L314.14 283L296.14 253.19L286.21 226.82L278.14 200.49L275.14 179.82L258.85 165.49L247.14 154.82L235.81 150.15L232.76 144.82L221.78 136.15L220.69 141.62L229.48 151.62L239.51 156.25Z" id="a1Gw7UOWh"></path><path d="M223.83 184.92L234.95 230.84L213.85 252.8L245.79 285.02L237.52 333.5L218.13 320.4L211 330.94L210.14 316.39L213.85 283L203.04 271.53L194.77 264.12L201.04 254.14L209.03 245.3L220.44 234.06L220.44 221.34L216.73 168.87L223.83 184.92Z" id="c1QtiYfHRB"></path><path d="M337.33 424.19L352.67 398.19L352.67 391.19L348.33 393.52L344.18 380.52L337.33 424.19Z" id="a4LUiodjN"></path><path d="M296.78 348.59L280.11 408.59L274.44 397.59L276.78 390.25L287.78 371.59L284.44 351.59L275.78 362.59L284.44 325.25L291.02 317.59L298.11 298.92L296.78 348.59Z" id="bsHr2rRLF"></path><path d="M260.18 321.65L247.51 339.65L238.18 330.28L250.84 322.99L255.69 312.99L261.18 303.99L260.18 321.65Z" id="afez6dxej"></path><path d="M256.68 293.99L258.85 287.99L261.34 273.65L258.01 265.32L249.01 231.99L242.68 208.99L229.34 188.65L217.68 170.65L256.68 293.99Z" id="d4cJhOVXFk"></path><path d="M237.86 183.13L250.36 207.16L285.89 303.99L291.02 295.32L288.02 279.46L282.02 261.32L270.69 240.99L261.02 221.32L254.69 198.99L250.36 186.99L239.19 176.32L233.36 168.87L229.02 160.99L220.69 157.32L237.86 183.13Z" id="bKsegOfdg"></path><path d="M345.23 327.35L343.39 357.35L342.54 331.69L344.54 298.41L345.23 327.35Z" id="a227lPvJP5"></path><path d="M231.93 153.5L237.35 156.92L244.48 168.33L255.86 180.3L263.01 193.96L267.01 220.77L271 231.04L278.07 245.13L289.08 263.38L299.32 295.97L289.94 333.05L289.94 351.59L287.91 361.57L279.07 391.23L280.21 398.64L275.93 415.75L289.08 413.67L297.32 413.67L309.3 413.67L324.41 417.46L336.96 422.43L345.23 406.34L344.38 389.52L343.39 375.54L338.38 366.99L336.96 356.43L336.96 331.91L333.85 299.93L320 291.07L305.62 275.1L289.08 242.3L273.4 194.96L273.4 181.27L254 164.45L248.87 161.88L243.17 156.18L234.32 152.47L227.2 142.77L231.93 153.5Z" id="c16BmMG9iW"></path><path d="M220.64 259.44L229.19 270.85L237.18 287.11L241.17 307.92L237.18 329.88L248.87 320.76L250.01 314.77L254 304.79L257.42 294.52L257.42 283.68L258.85 272.85L243.74 226.93L241.17 212.96L234.61 201.26L222.35 182.73L224.34 201.26L225.48 220.09L229.19 230.92L227.77 237.77L206.66 253.45L220.64 259.44Z" id="adCx2lZ0o"></path><path d="M247.44 344.66L256.77 356.92L269.6 381.84L275.31 413.67L276.39 393.42L276.39 381.84L278.67 360.46L280.95 351.61L285.52 334.22L286.37 313.4L289.94 295.43L282.24 264.63L268.29 239.25L258.85 222.14L252.29 203.32L247.44 187.35L234.32 175.37L229.48 164.82L221.78 158.26L242.31 195.05L252.89 217.69L256.03 230.24L260.02 241.36L268.29 274.44L263.44 287.85L260.02 309.52L258.02 316.65L252.89 323.5L240.91 332.05L238.63 332.05L247.44 344.66Z" id="h1jnJPc5Fx"></path><path d="M212.57 118.35L209.14 116.45L203.44 108.75L204.87 102.48L209.14 96.77L202.24 101.05L197.39 109.98L197.39 117.68L202.24 122.81L202.24 126.52L206.95 126.52L211.08 123.67L211.08 120.81L212.57 118.35Z" id="aboT1oSuc"></path><path d="M221.78 317.59L234.68 313.92L238.34 287.59L241.34 306.59L237.01 328.92L238.34 333.11L249.68 348.92L231.01 345.26L217.68 340.59L220.28 332.26L217.68 312.92L221.78 317.59Z" id="a5MX9O1E0"></path><path d="M186.38 119.77L185.12 116.49L181.68 111.65L176.01 109.49L181.68 109.49L185.12 111.65L192.68 117.21L191.34 126.52L187.68 127.49L183.34 125.49L183.34 122.82L186.38 119.77Z" id="aa73UxDcIq"></path><path d="M337.03 332.17L337.03 359.87L305.03 363.17L289.87 350.67L289.87 334.4L291.03 326.17L335.04 311.29L337.03 332.17Z" id="ahNiOPhWv"></path><path d="M278.85 391.09L280.18 398.75L275.95 415.42L291.18 413.09L306.52 413.09L318.52 415.42L337.03 422.43L345.23 406.09L344.18 391.09L338.38 397.09L306.52 394.09L282.52 380.75L278.85 391.09Z" id="d4GkJW1aiF"></path><path d="M227.52 238.21L229.18 231.22L225.18 220.22L222.85 184.22L240.85 213.55L242.85 226.55L258.52 272.89L256.52 286.55L257.52 294.55L252.52 305.85L252.52 290.22L245.52 260.55L236.85 243.89L222.85 241.89L227.52 238.21Z" id="delvH21u4"></path><path d="M263.18 289.22L261.52 297.22L260.52 308.22L258.52 314.55L256.85 318.26L268.89 324L281.85 345.55L285.18 332.55L285.18 312.55L289.18 297.22L274.85 297.22L266.52 279.17L263.18 289.22Z" id="aIhCdLubw"></path><path d="M238.15 331.65L255.48 354.65L269.82 383.13L274.48 411.65L275.95 400.32L275.95 377.32L241.48 331.65L238.15 331.65Z" id="d3QmHzMOUX"></path><path d="M236.02 155.55L231.02 152.89L227.02 142.77L233.68 152.89L244.02 156.55L249.68 162.22L255.02 164.55L273.72 181.89L273.72 197.55L270.51 183.22L240.68 162.22L236.02 155.55Z" id="e3rm0JS5HC"></path><path d="M221.02 157.87L230.02 164.55L233.68 176.22L247.35 187.89L260.35 225.55L255.02 215.22L243.68 189.22L233.68 180.55L221.02 157.87Z" id="dt8n9Eo0T"></path><path d="M89.23 321.88L84.62 328.43L78.29 339.7L75.87 340.52L75.37 342.37L73.2 345.02L69.87 345.7L66.12 346.68L62.18 345.95L59.76 344.78L58.26 342.78L57.26 343.2L57.93 346.45L55.76 346.2L55.35 345.37L55.76 342.78L54.43 341.45L51.6 340.12L48.76 340.12L44.76 341.45L42.35 342.37L41.51 344.78L37.26 345.7L34.68 345.37L31.54 342.37L30.85 340.7L28.68 340.7L28.26 339.7L30.35 335.03L34.68 327.7L36.39 326.31L37.67 327.03L36.96 328.2L35.53 332.17L33.1 336.31L31.96 339.03L32.55 339.03L37.67 337.87L40.55 338.13L43.05 339.7L45.13 339.7L47.21 338.47L49.63 338.47L52.88 339.03L56.55 340.52L57.93 340.52L59.3 339.7L63.64 338.47L72.9 338.13L75.56 338.47L77.73 337.55L78.29 336.55L80.9 330.97L85.9 324.22L90.9 316.63L94.31 315.13L94.48 316.63L89.23 321.88ZM63.3 339.7L60.21 340.95L59.13 342.37L60.46 343.45L63.88 345.28L66.55 345.28L71.88 344.28L73.63 342.37L74.05 339.7L72.13 339.37L68.88 339.37L63.3 339.7ZM33.3 340.12L32.63 341.28L35.38 343.7L37.05 343.7L40.55 343.45L42.21 341.7L40.55 340.12L38.96 339.12L36.88 339.45L33.3 340.12Z" id="cwiGxajgn"></path><path d="M106.14 403.26L109.74 397.66L112.14 397.66L111.34 402.66L108.14 404.86L107.14 407.46L106.14 403.26Z" id="a29rjtnkBV"></path><path d="M97.86 401.9L99.43 397.19L101.57 398.48L101.57 403.05L100.14 404.05L98.29 408.19L97.86 401.9Z" id="jN2xkACFA"></path><path d="M90 400.19L91.63 405.33L92.71 401.33L94.14 399.05L93.43 396.19L91.63 396.19L90 400.19Z" id="b2ABt5VKXi"></path><path d="M404.4 424.98L405.11 426.83L405.11 428.83L400.26 428.83L397.26 425.98L397.26 421.98L399.54 419.83L403.69 419.83L406.83 421.69L406.26 423.69L404.4 424.98Z" id="c1VQkj9nMp"></path><path d="M385.69 415.4L385.26 417.69L382.83 419.83L382.83 423.12L374.97 423.12L373.4 420.26L373.4 416.4L376.54 414.26L384.4 413.55L385.69 415.4Z" id="bNVR7cuBz"></path><path d="M373.4 413.55L368.97 413.55L362.26 413.55L357.54 413.12L352.67 414.26L348.11 418.33L349.11 415.69L353.83 410.55L361.26 407.98L368.26 407.69L371.11 406.98L376.26 406.98L376.26 411.4L373.4 413.55Z" id="c3VXOsuQn5"></path><path d="M51.01 386.03L44.74 390.13L43.48 398.33L43.14 389.48L41.09 388.41L41.36 384.26L44.43 382.42L48.45 382.69L47.68 377.72L50.68 377.6L49.62 383.51L51.01 386.03ZM43.14 385.9L43.8 388.09L48.83 385.25L47.23 384.37L44.94 384.46L43.14 385.9Z" id="b3pNzHh62"></path><path d="M77.46 307.52L82.85 310.29L89.32 309.94L94.18 304.59L94.18 298.51L99.97 296.09L120.33 277.32L121.92 271.36L118.78 277.32L110.63 283.59L99.97 291.11L92.11 294.56L90 299.58L84.61 304.59L76.78 302.08L77.46 307.52Z" id="b9Z7GJ2Dn"></path><path d="M32.66 287.87L32.66 295.95L33.62 300.4L40.35 308.62L47.77 304.71L50.6 295.95L49.38 295.14L46.28 297.97L39.95 297.44L34.83 294.34L33.62 286.25L32.66 287.87Z" id="c1uL1wb1Ih"></path><path d="M39.46 359.04L41.09 363.35L41.09 361.47L40.68 358.19L38.66 356.75L36.36 356.75L39.46 359.04Z" id="aEDytMDGi"></path><path d="M53.55 359.17L57.52 358.19L60.62 356.75L61.84 354.05L56.71 356.75L52.4 358.19L52.4 362.95L53.55 359.17Z" id="a33W8NL1Mj"></path><path d="M50.6 327.1L48.36 328.2L45.66 327.1L40.81 326.29L39.87 325.08L37.04 323.46L50.6 327.1Z" id="czBONyBrC"></path><path d="M63.59 325.21L70.46 322.52L77.74 322.52L82.46 324.54L79.22 324.54L74.1 323.46L66.82 325.21L62.91 327.1L63.59 325.21Z" id="a26wr9v6"></path><path d="M38.73 353.51L43.82 354.05L38.73 351.49L38.73 353.51Z" id="euCTzdpq3"></path><path d="M94.48 392.22L97.71 390.06L96.09 393.53L94.48 393.53L94.48 392.22Z" id="cd5z9B5S5"></path><path d="M103.37 388.29L105.93 388.29L104.05 391.65L102.97 395.3L101.07 393.82L103.37 388.29Z" id="j2vhrXl3v"></path><path d="M117.12 391.8L114.83 391.41L113.75 397.21L117.12 391.8Z" id="a1PIoWcDH4"></path></defs><g><g><g><use xlink:href="#f1fQFMTOpq" opacity="1" fill="#6c3f5e" fill-opacity="1"></use></g><g><use xlink:href="#d62GKuTvzD" opacity="1" fill="#61b88a" fill-opacity="1"></use></g><g><use xlink:href="#aEMiy03X" opacity="1" fill="#488766" fill-opacity="1"></use></g><g><use xlink:href="#h2ZPyRwY61" opacity="1" fill="#90547d" fill-opacity="1"></use></g><g><g><use xlink:href="#a2BzvwMYbq" opacity="1" fill="#3b3632" fill-opacity="1"></use></g><g><use xlink:href="#dP9eSrGqF" opacity="1" fill="#564e49" fill-opacity="1"></use></g></g><g><use xlink:href="#a5WQxH4u7v" opacity="1" fill="#488766" fill-opacity="1"></use></g><g><use xlink:href="#c8RpBQPy" opacity="1" fill="#488766" fill-opacity="1"></use></g><g><use xlink:href="#b4MXiyl9V4" opacity="1" fill="#488766" fill-opacity="1"></use></g><g><g><use xlink:href="#a2l52y4dfe" opacity="1" fill="#9b6848" fill-opacity="1"></use></g><g><use xlink:href="#e3I0DTeMth" opacity="1" fill="#9b6848" fill-opacity="1"></use></g></g><g><use xlink:href="#bYmHJnYZ5" opacity="1" fill="#b86a9f" fill-opacity="1"></use></g><g><g><use xlink:href="#fWiFFFYfm" opacity="1" fill="#90547d" fill-opacity="1"></use></g><g><use xlink:href="#c2oTPlpuMF" opacity="1" fill="#90547d" fill-opacity="1"></use></g><g><use xlink:href="#bi1s1P9wi" opacity="1" fill="#90547d" fill-opacity="1"></use></g><g><use xlink:href="#a9cpye9FO" opacity="1" fill="#90547d" fill-opacity="1"></use></g><g><use xlink:href="#a1cSM6Tnfp" opacity="1" fill="#90547d" fill-opacity="1"></use></g><g><use xlink:href="#b16qpkI2Os" opacity="1" fill="#90547d" fill-opacity="1"></use></g><g><use xlink:href="#dIXmwMrzd" opacity="1" fill="#90547d" fill-opacity="1"></use></g><g><use xlink:href="#elgmc4tyR" opacity="1" fill="#90547d" fill-opacity="1"></use></g><g><use xlink:href="#a7MOq16dg" opacity="1" fill="#90547d" fill-opacity="1"></use></g><g><use xlink:href="#g2OycPcHwy" opacity="1" fill="#90547d" fill-opacity="1"></use></g><g><use xlink:href="#b2NL5uy9bp" opacity="1" fill="#90547d" fill-opacity="1"></use></g><g><use xlink:href="#aLNpODnAI" opacity="1" fill="#90547d" fill-opacity="1"></use></g><g><use xlink:href="#bXYXozica" opacity="1" fill="#90547d" fill-opacity="1"></use><g><use xlink:href="#bXYXozica" opacity="1" fill-opacity="0" stroke="#000000" stroke-width="1" stroke-opacity="1"></use></g></g><g><use xlink:href="#asyGmn2Yh" opacity="1" fill="#90547d" fill-opacity="1"></use></g><g><use xlink:href="#dmU9r69d" opacity="1" fill="#90547d" fill-opacity="1"></use></g><g><use xlink:href="#g4uL0N3jen" opacity="1" fill="#90547d" fill-opacity="1"></use></g><g><use xlink:href="#a2E8te1Ko9" opacity="1" fill="#90547d" fill-opacity="1"></use></g><g><use xlink:href="#g2LnY3PofZ" opacity="1" fill="#90547d" fill-opacity="1"></use></g><g><use xlink:href="#l86wiAEmwh" opacity="1" fill="#90547d" fill-opacity="1"></use></g><g><use xlink:href="#d2DA8uyBx" opacity="1" fill="#90547d" fill-opacity="1"></use></g><g><use xlink:href="#d6gTNYYetS" opacity="1" fill="#90547d" fill-opacity="1"></use></g><g><use xlink:href="#afemKldbI" opacity="1" fill="#90547d" fill-opacity="1"></use></g></g><g><g><g><use xlink:href="#c1zTOCzHpa" opacity="1" fill="#a4c0a9" fill-opacity="1"></use></g><g><use xlink:href="#cHU2dm7GR" opacity="1" fill="#224a28" fill-opacity="1"></use></g></g><g><g><use xlink:href="#b2fGfO8I6d" opacity="1" fill="#a4c0a9" fill-opacity="1"></use></g><g><use xlink:href="#a1VPg9RSR5" opacity="1" fill="#224a28" fill-opacity="1"></use></g></g></g><g><g><use xlink:href="#b3QxG1g3AB" opacity="1" fill="#90547d" fill-opacity="1"></use></g><g><use xlink:href="#d1JoW6EMgO" opacity="1" fill="#90547d" fill-opacity="1"></use></g><g><use xlink:href="#a6HUiXMBmJ" opacity="1" fill="#90547d" fill-opacity="1"></use></g><g><use xlink:href="#l3W4bxXmuP" opacity="1" fill="#90547d" fill-opacity="1"></use></g><g><use xlink:href="#cHvfz1Aoc" opacity="1" fill="#90547d" fill-opacity="1"></use></g><g><use xlink:href="#aauOnRAaJ" opacity="1" fill="#90547d" fill-opacity="1"></use></g><g><use xlink:href="#i1cH1c4oVO" opacity="1" fill="#90547d" fill-opacity="1"></use></g><g><use xlink:href="#c3daOmm5T5" opacity="1" fill="#90547d" fill-opacity="1"></use></g><g><use xlink:href="#a68WcrsNU" opacity="1" fill="#90547d" fill-opacity="1"></use></g><g><use xlink:href="#b3MZxTl29" opacity="1" fill="#90547d" fill-opacity="1"></use></g><g><use xlink:href="#aT8Ssye2y" opacity="1" fill="#90547d" fill-opacity="1"></use></g><g><use xlink:href="#cey4W6aPP" opacity="1" fill="#90547d" fill-opacity="1"></use></g></g><g><use xlink:href="#e2dHyWjOvh" opacity="1" fill="#b87d58" fill-opacity="1"></use></g><g><g><use xlink:href="#k1NkS8UWo5" opacity="1" fill="#b87d58" fill-opacity="1"></use></g><g><use xlink:href="#geGuuUKOF" opacity="1" fill="#b87d58" fill-opacity="1"></use></g></g><g><use xlink:href="#bo1AMwl3V" opacity="1" fill="#b86a9f" fill-opacity="1"></use></g><g><g><use xlink:href="#a1Gw7UOWh" opacity="1" fill="#90547d" fill-opacity="1"></use></g><g><use xlink:href="#c1QtiYfHRB" opacity="1" fill="#90547d" fill-opacity="1"></use></g><g><use xlink:href="#a4LUiodjN" opacity="1" fill="#90547d" fill-opacity="1"></use></g><g><use xlink:href="#bsHr2rRLF" opacity="1" fill="#90547d" fill-opacity="1"></use></g><g><use xlink:href="#afez6dxej" opacity="1" fill="#90547d" fill-opacity="1"></use></g><g><use xlink:href="#d4cJhOVXFk" opacity="1" fill="#90547d" fill-opacity="1"></use></g><g><use xlink:href="#bKsegOfdg" opacity="1" fill="#90547d" fill-opacity="1"></use></g><g><use xlink:href="#a227lPvJP5" opacity="1" fill="#90547d" fill-opacity="1"></use></g></g><g><g><use xlink:href="#c16BmMG9iW" opacity="1" fill="#b87d58" fill-opacity="1"></use></g><g><use xlink:href="#adCx2lZ0o" opacity="1" fill="#b87d58" fill-opacity="1"></use></g><g><use xlink:href="#h1jnJPc5Fx" opacity="1" fill="#b87d58" fill-opacity="1"></use></g></g><g><use xlink:href="#aboT1oSuc" opacity="1" fill="#b87d58" fill-opacity="1"></use></g><g><use xlink:href="#a5MX9O1E0" opacity="1" fill="#6c3f5e" fill-opacity="1"></use></g><g><use xlink:href="#aa73UxDcIq" opacity="1" fill="#9b6848" fill-opacity="1"></use></g><g><g><use xlink:href="#ahNiOPhWv" opacity="1" fill="#9b6848" fill-opacity="1"></use></g><g><use xlink:href="#d4GkJW1aiF" opacity="1" fill="#9b6848" fill-opacity="1"></use></g><g><use xlink:href="#delvH21u4" opacity="1" fill="#9b6848" fill-opacity="1"></use></g><g><use xlink:href="#aIhCdLubw" opacity="1" fill="#9b6848" fill-opacity="1"></use></g><g><use xlink:href="#d3QmHzMOUX" opacity="1" fill="#9b6848" fill-opacity="1"></use></g><g><use xlink:href="#e3rm0JS5HC" opacity="1" fill="#9b6848" fill-opacity="1"></use></g><g><use xlink:href="#dt8n9Eo0T" opacity="1" fill="#9b6848" fill-opacity="1"></use></g></g><g><use xlink:href="#cwiGxajgn" opacity="1" fill="#6b462e" fill-opacity="1"></use></g><g><g><use xlink:href="#a29rjtnkBV" opacity="1" fill="#b87d58" fill-opacity="1"></use></g><g><use xlink:href="#jN2xkACFA" opacity="1" fill="#b87d58" fill-opacity="1"></use></g><g><use xlink:href="#b2ABt5VKXi" opacity="1" fill="#b87d58" fill-opacity="1"></use></g></g><g><g><use xlink:href="#c1VQkj9nMp" opacity="1" fill="#b87d58" fill-opacity="1"></use></g><g><use xlink:href="#bNVR7cuBz" opacity="1" fill="#b87d58" fill-opacity="1"></use></g><g><use xlink:href="#c3VXOsuQn5" opacity="1" fill="#b87d58" fill-opacity="1"></use></g></g><g><use xlink:href="#b3pNzHh62" opacity="1" fill="#b86a9f" fill-opacity="1"></use></g><g><use xlink:href="#b9Z7GJ2Dn" opacity="1" fill="#9b6848" fill-opacity="1"></use></g><g><use xlink:href="#c1uL1wb1Ih" opacity="1" fill="#9b6848" fill-opacity="1"></use></g><g><use xlink:href="#aEDytMDGi" opacity="1" fill="#ce9cc9" fill-opacity="1"></use></g><g><use xlink:href="#a33W8NL1Mj" opacity="1" fill="#ce9cc9" fill-opacity="1"></use></g><g><use xlink:href="#czBONyBrC" opacity="1" fill="#ce9cc9" fill-opacity="1"></use></g><g><use xlink:href="#a26wr9v6" opacity="1" fill="#ce9cc9" fill-opacity="1"></use></g><g><use xlink:href="#euCTzdpq3" opacity="1" fill="#ce9cc9" fill-opacity="1"></use></g><g><use xlink:href="#cd5z9B5S5" opacity="1" fill="#ce9cc9" fill-opacity="1"></use></g><g><use xlink:href="#j2vhrXl3v" opacity="1" fill="#ce9cc9" fill-opacity="1"></use></g><g><use xlink:href="#a1PIoWcDH4" opacity="1" fill="#ce9cc9" fill-opacity="1"></use></g></g></g></svg>