<?xml version="1.0" encoding="UTF-8" standalone="no"?>
<!DOCTYPE svg PUBLIC "-//W3C//DTD SVG 1.1//EN" "http://www.w3.org/Graphics/SVG/1.1/DTD/svg11.dtd">
<svg version="1.1" xmlns="http://www.w3.org/2000/svg" xmlns:xlink="http://www.w3.org/1999/xlink" preserveAspectRatio="xMidYMid meet" viewBox="-1 139.23423642388676 642.062853053901 463.5841662929121" width="900" height="648.25"><defs><path d="M39.76 228.14L37.41 234.62L39.76 238.62L64.41 287.12L72.41 322.95L85.41 309.62L98.41 310.62L113.1 326.62L142.91 359.12L157.41 266.62L163.41 258.89L136.91 231.52L136.91 213.12L155.41 183.62L145.91 177.12L150.41 164.12L140.74 169.29L136.91 149.62L116.91 162.12L122.41 147.12L100.04 162.12L77.41 178.62L77.41 165.62L61.91 190.12L46.76 198.62L41.41 203.62L37.41 215.62L34.77 221.62L39.76 228.14Z" id="c15enJHCma"></path><path d="M219.36 284.37L202.86 256.37L192.62 237.87L183.36 233.37L176.4 234.87L172.36 245.37L174.86 264.37L219.36 284.37Z" id="aTebIzYtG"></path><path d="M20.65 335.29L25.32 340.62L34.77 342.62L37.99 339.29L41.65 331.95L42.65 320.95L46.76 304.95L56.79 304.95L53.76 307.62L51.84 310.95L63.99 309.95L68.14 314.95L60.84 329.62L49.65 330.95L47.65 333.95L49.65 336.29L55.24 336.29L58.99 333.95L64.99 330.95L62.99 335.29L59.52 340.09L55.24 342.62L49.65 343.62L52.99 346.39L45.65 347.29L29.32 347.29L24.32 346.39L27.32 343.62L18.99 337.95L16.32 331.95L16.32 302.29L20.65 335.29Z" id="ii3bjrj4b"></path><path d="M189.37 484.09L187.87 482.04L170.87 478.7L160.99 481.09L155.37 484.09L150.37 489.34L150.37 492.09L148.37 497.84L149.62 502.59L151.87 497.84L156.12 500.34L155.37 507.04L158.24 510.59L160.99 507.04L163.16 505.09L167.62 507.04L170.87 507.04L171.62 510.59L174.77 513.04L175.99 507.04L180.1 507.04L192.2 502.04L202.77 503.38L255.77 513.04L271.77 503.38L226.77 460.04L235.1 421.71L212.44 403.71L195.77 448.71L194.44 461.71L194.44 470.18L203.44 482.04L189.37 484.09Z" id="brJEtcSvZ"></path><path d="M65.77 332.88L60.74 340.87L60.27 347.38L61.77 362.38L75.77 372.38L99.58 372.38L112.63 381.88L126.77 409.67L170.77 455.88L191.99 455.88L195.27 448.88L199.77 458.38L213.27 396.38L232.27 290.38L184.27 264.88L166.27 263.88L157.27 263.88L150.77 298.31L147.77 329.38L161.77 345.56L161.77 366.88L170.79 376.49L188.27 395.13L117.77 347.38L109.77 323.88L97.27 309.38L85.27 307.38L74.27 316.88L61.77 314.88L54.77 323.88L65.77 332.88Z" id="ddYVXBZR6"></path><path d="M57.03 215.6L50.03 219.26L38.48 217.93L33.74 219.8L36.6 223.21L38.48 224.06L43.17 228.95L46.08 230.28L40.68 231L38.48 227.68L37.88 231L40.68 234.6L45.08 233.28L50.48 230.28L46.76 234.6L38.48 238.08L81.78 239.26L79.18 229.8L85.38 234.6L93.38 236.2C98.05 235.23 99.92 234.7 98.98 234.6C98.05 234.5 96.18 234.3 93.38 234L89.38 232.6L94.38 231L98.98 231L104.58 226.86L110.78 222.3L106.65 221.6L107.18 217.93L100.98 219.8L85.98 219.26L80.18 217.4L76.18 217.93L77.32 215.6L68.98 215.6L70.65 219.26L58.32 217.93L57.03 215.6Z" id="c59ZKaCStX"></path><path d="M97.32 239.26L106.65 246.26L101.52 256.33L100.04 265.93L95.98 272.93L86.98 297.93L71.98 314.6L61.65 301.26L62.65 290.35L58.32 279.93L97.32 239.26Z" id="d6fhfzsqzY"></path><path d="M148.95 174.37L153.95 171.37L153.95 175.37L151.29 178.04L155.73 178.71L158.23 183.21L138.95 214.46L168.48 260.71L174.48 277.96L158.23 267.21L160.48 275.96L157.23 291.96L152.62 302.71L151.29 321.16L152.62 334.16L159.03 341.91L168.48 333.41L170.03 334.16L172.7 329.16L171.28 334.16L164.03 348.16L164.95 363.44L192.45 396.44L191.95 408.19L189.7 399.94L176.7 386.94L133.95 356.19L119.95 345.08L112.2 322.94L119.95 329.94L119.95 322.94L123.2 327.44L123.2 337.66L126.62 336.69L128.45 331.19L126.62 325.69L125.2 302.71L132.95 317.44L135.2 312.94L132.2 285.94L138.95 300.69L138.95 307.69L142.45 297.69L140.95 281.69L146.7 290.94L148.2 298.44L148.95 280.94L145.95 272.69L151.29 275.44L153.95 281.69L154.95 270.19L149.45 256.33L155.73 259.44L153.95 249.19L145.95 240.94L133.95 238.19L127.7 242.69L126.62 249.19L124.05 244.51L126.05 237.26L131.55 226.51L129.55 218.51L126.62 209.04L140.29 200.7L153.95 180.37L135.95 191.7L145.95 178.04L130.95 187.7L138.95 179.37L147.62 163.7L151.29 161.7L152.62 165.37L148.95 174.37ZM144.83 330.85L143.58 317.1L138.08 340.85L144.83 330.85ZM132.33 336.35L136.08 323.35L135.08 316.6L131.58 325.35L132.33 336.35Z" id="a1GHq0c7ph"></path><path d="M134.98 165.73L140.98 161.07L144.14 155.57L142.14 140.23L120.81 157.07L122.98 152.73L124.14 143.4L117.58 149.07L104.29 159.23L77.46 174.73L78.58 172.53L78.58 168.33L77.46 161.7L74.96 170.58L74.96 174.08L72.26 179.23L78.58 179.23L106.65 159.23L116.08 154.23L113.58 164.23L137.08 150.73L134.58 159.23L117.58 174.73L134.98 165.73Z" id="c2O330zEYR"></path><path d="M53.76 223.26C52.54 224.43 51.77 225.17 51.47 225.46C50.2 226.68 48.5 227.36 46.74 227.36C46.2 227.36 46.99 227.36 46.36 227.36C44.83 227.36 43.33 226.93 42.03 226.13C41.73 225.95 40.97 225.48 39.76 224.74C45.26 223.75 48.7 223.14 50.07 222.89C50.81 222.76 51.57 222.78 52.31 222.94C52.5 222.98 52.98 223.09 53.76 223.26Z" id="a4soClsfVn"></path><path d="M49.91 222.8C49.86 223.12 49.82 223.31 49.81 223.39C49.61 224.49 48.91 225.44 47.92 225.95C47.79 226.02 48.76 225.52 48.57 225.61C47.7 226.07 46.73 226.3 45.75 226.3C45.46 226.3 46.35 226.3 46.12 226.3C44.97 226.3 43.87 225.85 43.06 225.03C42.95 224.93 42.68 224.65 42.25 224.22L49.91 222.8Z" id="c1uwJgjTRI"></path><path d="M85.54 222.69L96.27 223.5L100.04 224.41C99.38 225.19 98.97 225.67 98.81 225.86C97.24 227.72 95.05 228.95 92.65 229.34C92 229.44 93.54 229.19 92.83 229.31C90.59 229.67 88.3 229.34 86.25 228.36C85.92 228.2 87.91 229.16 87.54 228.98C85.61 228.06 83.95 226.64 82.73 224.89C82.53 224.6 82.04 223.9 81.26 222.77L85.54 222.69Z" id="aAgKb6Eag"></path><path d="M87.61 222.69L93.99 223.19L96.23 223.75C95.83 224.24 95.58 224.54 95.48 224.66C94.56 225.78 93.27 226.52 91.84 226.76C91.46 226.82 92.37 226.67 91.94 226.74C90.62 226.96 89.25 226.76 88.05 226.17C87.85 226.07 89.01 226.64 88.79 226.54C87.65 225.97 86.67 225.12 85.96 224.06C85.84 223.89 85.54 223.44 85.06 222.74L87.61 222.69Z" id="dcBwJhh2z"></path><path d="M15.75 511.47L18.15 512.47L18.92 514.87L16.55 517.07L15.35 523.87L17.15 526.37L19.55 522.47L24.95 521.87L29.35 522.47L32.15 523.87L31.64 529.27L34.77 532.37L36.92 527.7L40.25 526.37L44.92 525.21L48.05 527.7L55.24 526.37L58.59 519.09L63.79 515.87L68.59 515.87L75.79 513.42L79.59 507.17L79.59 500.04L82.39 497.59L86.79 497.59L90.59 499.24L93.59 499.24L92.92 506.7L99.09 500.04L99.09 494.37L96.92 492.7L96.92 485.37L94.25 477.04L90.59 477.04L114.25 437.59L122.59 442.04L118.59 433.37L127.92 433.37L119.59 427.04L127.92 426.04L117.59 418.7L114.25 412.04L69.84 370.37L52.59 384.37L57.25 432.04L53.76 444.37L53.76 457.39L51.84 478.7L45.92 488.37L31.64 497.59L27.39 495.37L23.14 496.7L18.92 503.7L14.59 505.04L9.59 510.99L10.59 517.54L15.75 511.47Z" id="eIGkbmmK"></path><path d="M92.52 371.24L102.02 374.24L115.71 390.83L132.02 421.24L97.52 405.24L74.02 388.01L71.02 374.24L92.52 371.24Z" id="b5We4KgPUX"></path><path d="M37.27 240.81C36.57 242.34 36.46 244.07 36.97 245.67C37 245.76 37.07 245.98 37.18 246.35L39.02 254.51L38.02 258.18C36.86 262.97 36.14 265.97 35.85 267.17C34.96 270.82 34.62 274.59 34.83 278.35C34.92 280.01 35.15 284.18 35.52 290.85C35.96 288.87 36.24 287.63 36.35 287.13C36.57 286.19 37.06 285.32 37.76 284.65C38.1 284.32 38.97 283.5 40.35 282.18L45.18 282.18L47.52 280.51L49.68 281.01L62.52 278.01C66.43 277.69 68.88 277.49 69.86 277.41C73.05 277.15 76.17 276.33 79.08 275C79.8 274.67 77.52 275.71 78.23 275.39C81.15 274.05 83.69 271.99 85.6 269.41C85.65 269.34 85.79 269.15 86.02 268.85L97.85 253.68C98.58 253.05 99.04 252.65 99.22 252.5C100.68 251.24 101.52 249.41 101.52 247.48C101.52 246.62 101.52 247.03 101.52 246.16C101.52 244.32 100.52 242.63 98.92 241.74C98.24 241.36 97.97 241.21 97.08 240.72C96.05 240.14 94.91 239.77 93.74 239.62C91.24 239.3 86.08 238.63 83.72 238.33C82.18 238.13 80.83 237.19 80.12 235.81C79.68 234.96 78.59 232.84 76.85 229.45C75.5 228.75 74.66 228.31 74.33 228.13C73.35 227.62 72.45 226.96 71.66 226.19C71.19 225.74 70.04 224.61 68.18 222.8L58.35 223.18C55.32 226.45 53.42 228.49 52.67 229.3C52.13 229.88 51.71 230.57 51.44 231.31C51.21 231.96 50.62 233.58 49.68 236.18L43.52 239.18C41.74 239.1 40.63 239.05 40.19 239.03C38.94 238.97 37.79 239.68 37.27 240.81C37.05 241.29 37.44 240.44 37.27 240.81Z" id="d1afiRokCX"></path><path d="M77.18 229.85L80.18 236.35L83.18 238.35L97.52 240.68L99.02 242.68L91.68 241.85L80.68 238.85L80.18 242.68L75.68 242.68L70.52 246.35L66.52 243.68L67.35 238.35L71.18 234.85L72.35 228.85L70.52 225.68L77.18 229.85Z" id="a367mnw4ti"></path><path d="M68.68 247.18L72.02 246.35L69.52 242.01L71.02 238.18L63.85 247.18L63.18 251.51L68.68 247.18Z" id="aRoxwsc5V"></path><path d="M51.02 232.18L50.02 236.01L46.76 240.01L44.35 244.85L42.85 249.68L46.76 244.85L49.02 240.01L51.02 238.18L53.76 228.68L51.02 232.18Z" id="dIcdUHnyC"></path><path d="M46.18 282.85L48.52 281.18L50.35 281.18L63.85 278.68L77.02 276.51L83.85 272.35L99.02 253.51L94.68 257.33L87.85 266.01L77.02 272.35L68.33 274.85L56.52 275.51L82.52 266.01L83.85 264.51L88.85 260.68L93.52 253.51L97.52 250.18L98.35 252.01L99.02 249.51L99.02 246.85L97.02 245.35L93.52 245.35L95.85 246.85L95.85 249.51L90.52 253.51L82.52 262.85L74.52 266.01L61.52 270.01L52.68 274.35L40.68 282.01L46.18 282.85Z" id="b1ft9EypJt"></path><path d="M39.76 246.35L38.02 243.85L39.76 240.51L41.35 245.35L38.85 253.18L39.76 246.35Z" id="b2eoPXxmkd"></path><path d="M215.23 363.72L217.77 398.74L240.27 402.37L318.95 386.57L331.62 407.49L337.62 402.73L359.12 425.87L364.12 421.87L388.52 434.87L422.02 467.07L424.6 454.64L433.52 461.87L472.07 487.57L474.57 476.07L492.57 488.57L509.57 499.57L514.57 487.57L508.57 477.07L537.57 494.07L550.57 488.57L537.57 471.07L566.57 476.07L597.07 467.07L576.27 447.07L599.07 442.3L624.57 425.87L597.07 420.57L624.57 406.94L635.57 392.27L576.27 398.74L529.13 400.67L475.77 380.47L415.77 348.97L359.12 304.12L312.72 251.05L270.22 226.07L254.72 228.42L246.22 239.42L252.72 251.05L248.72 278.42L244.72 288.92L225.66 288.92L215.23 363.72Z" id="a7jr2BsdY"></path><path d="M69.84 372.59L65.84 377.09L65.84 389.59L68.14 406.59L65.84 425.59L57.84 437.59L61.84 420.09L51.84 389.59L53.76 361.59L56.35 351.92L59.34 344.58L69.84 372.59Z" id="c1JnPvEZXF"></path><path d="M62.26 314.93L54.76 321.83L53.76 324.26L58.89 331.28L63.22 335.13L60.39 337.28L57.89 344.44L60.39 351.94L57.56 357.11L58.89 366.05L65.56 367.61L71.11 374.15L87.22 373.44L93.89 373.44L100.22 374.15L105.36 378.65L134.36 425.45L149.36 446.08L161.61 453.45L172.61 463.45L175.61 470.95L178.74 478.95L188.11 460.2L188.61 472.45L196.36 455.45L199.46 464.95L205.86 444.45L208.71 423.7L213.96 410.13L218.74 391.38L217.99 375.4L223.49 361.13L224.74 345.33L223.49 335.13L220.74 322.65L213.96 310.58L200.46 297.58L199.46 304.58L210.21 310.58L215.71 321.83L214.96 327.08L217.21 330.9L213.96 353.9L197.21 375.4L204.21 376.8L208.71 381.08L211.71 389.83L206.46 414.33L202.21 424.83L199.46 452.83L197.96 443.83L194.46 433.08L193.71 441.33L194.46 446.08L190.24 452.08L182.99 435.08L181.74 440.83L182.99 446.08L178.74 452.08L169.49 442.08L142.74 420.58L132.11 406.4L115.86 374.15L108.86 375.4L105.36 371.65L97.11 369.9L87.86 371.65L84.11 368.65L79.61 368.65L76.86 366.05L70.11 365.4L67.86 362.65L62.86 359.4L62.86 356.4L67.86 353.9L66.61 348.9L62.86 343.9L62.86 340.4L65.11 336.9L71.86 333.4L71.11 330.9L58.36 325.4L56.36 322.65L62.26 314.93Z" id="hZCXxAeA6"></path><path d="M174.3 412.1L178.8 430.1L142.8 382.6L174.3 412.1Z" id="b1UQ1b4zkp"></path><path d="M195.3 415.82L200.8 409.44L195.3 422.1L190.3 417.6L195.3 415.82Z" id="a1bLmQGLn5"></path><path d="M135.69 358.47L121.49 345.67L112.29 324.07L98.89 309.27L95.89 308.87L105.69 319.27L112.29 339.67L116.09 348.67L178.8 389.87L135.69 358.47Z" id="bEgbElfnz"></path><path d="M85.77 312.59L84.17 314.79L80.17 315.59L69.77 316.19L76.57 317.79L85.77 316.59L91.37 314.79L89.17 312.59L85.77 312.59Z" id="c1mtkpDQKL"></path><path d="M143.99 364.89L175.74 387.89L191.24 404.39L191.24 393.89L164.74 364.89L164.74 346.08L170.74 337.89L172.74 329.89L167.24 334.89L159.24 339.39L153.74 335.89L152.24 328.39L146.24 339.39L132.02 351.89L130.24 346.08L125.74 351.89L143.99 364.89Z" id="h845yDKqiE"></path><path d="M166.24 363.64L192.45 395.39L192.45 406.64L175.24 386.89L163.41 379.39L161.24 368.39L164.74 346.39L166.24 363.64Z" id="b1hJ68V1nV"></path><path d="M44.34 505.09L46.76 497.59L30.34 509.59L30.34 519.09L44.34 505.09Z" id="aVsM4Dfc"></path><path d="M46.14 511.49L52.64 507.74L53.76 515.09L51.84 519.09L46.76 519.09L42.34 515.09L46.14 511.49Z" id="b8MaodIt6"></path><path d="M53.76 238.56L44.59 251.05L38.18 265.23L35.85 281.9L47.57 251.9L58.52 237.23L61.97 227.36L58.52 227.36L53.76 238.56Z" id="b1L7eFVvzH"></path><path d="M27.64 515.49L27.64 510.99L22.64 514.42L20.39 520.74L27.64 515.49Z" id="bF58SiILw"></path><path d="M51.84 301.69L38.55 288.4L39.76 267.4L55.5 251.05L35.85 251.05L25.07 244.4L30.57 219.4L24.01 207.4L38.55 174.4L31.64 140.23L19.57 165.4L4.75 216.4L13.75 238.4L23.14 267.4L13.75 281.9L30.57 307.4L51.84 301.69Z" id="aaz43KeGJ"></path><path d="M31.64 499.24L26.39 499.24L23.14 502.99L31.64 499.24Z" id="daxY3OSHS"></path><path d="M38.58 521.6L41.95 520.6L42.34 517.54L37.54 519.39L36.05 525.21L38.58 521.6Z" id="aiVCRvGtW"></path><path d="M213.4 413.05L228.06 419.15L240.4 408.49L260.06 403.39L273.4 405.14L292.4 413.05L298.32 466.45L297.32 475.39L301.32 489.39L327.43 516.35L332.73 523.02L331.73 538.35L324.43 544.35L337.76 538.35L341.73 525.69L338.73 514.35L341.73 509.35L355.4 509.35L369.8 537.35L367.4 519.69L354.43 501.35L337.76 494.32L324.43 476.45L319.06 457.39L320.73 424.49L318.3 394.15L327.43 408.49L334.75 411.42L337.76 405.49L339.83 411.42L358.43 428.75L362.16 427.09L368.5 435.49L382.5 446.45L391.1 446.45L391.1 440.89L417.43 468.79L423.9 467.89L426.66 462.82L454.56 482.55L473.33 488.32L474.53 479.79L486.86 486.45L499.53 499.45L508.86 502.79L515.2 497.12L517.53 484.79L532.03 495.45L550.53 495.45L553.53 490.49L547.2 478.12L573.86 479.79L595.53 472.45L599.86 466.45L580.2 448.32L601.53 443.82L624.2 432.45L627.86 424.49L618.2 424.49L608.86 433.79L592.9 442.15L570.23 446.45L578.56 451.49L594.23 466.45L584.23 471.12L551.7 473.65L532.03 465.49L546.03 484.12L546.03 490.49L534.7 492.15L525.7 484.79L509.7 473.65L516.7 471.12L501.36 462.82L495.36 462.82L471.03 448.32L462.8 446.45L494.33 471.12L501.36 473.65L512.03 488.32L512.03 494.32L506.8 498.32L494.33 484.79L473.33 471.12L464.33 460.45L459.33 459.45L470.33 476.45L469 484.12L444 468.79L436 460.45L446.33 466.45L452.66 466.45L448.33 450.12L446.33 460.45L434.8 456.79L426.66 446.45L420.1 439.82L417.43 443.82L422.1 454.49L421.1 462.82L416.1 461.82L397.43 435.49L391.1 408.49L391.1 417.67L388.8 424.49L372.1 396.82L369.8 405.49L373.76 419.15L369.8 419.15L356.8 405.49L351.8 390.15L350.1 394.15L354.43 408.49L359.76 416.82L358.43 424.49L345.1 408.49L337.76 378.82L334.75 385.67L333.43 405.49L326.3 398.67L324.43 387.82L327.43 373.62L324.43 371.49L322.41 380.82L316.43 384.17L307.57 361.17L307.57 345.82L302.07 331.82L297.32 335.57L299.07 343.32L297.32 350.67L294.82 347.57L286.82 310.07L282.57 298.57L281.32 289.82L288.07 289.82L298.32 299.62L301.32 313.07L306.82 321.82L308.32 319.32L309.07 314.82L306.82 317.07L304.3 312.17L304.3 302.17L318.3 318.12L318.3 325.67L326.3 342.17L336.3 349.67L328.3 336.67L328.3 330.17L351.8 350.67L356.8 361.17L369.8 375.67L381.8 373.62L365.3 363.67L360.8 353.67L388.8 370.17L399.8 381.67L419.3 393.17L407.8 384.17L403.8 377.62L434.8 393.17L498.3 417.67L506.8 417.67L462.8 398.67L438.8 385.67L374.75 350.67L334.75 315.67L299.9 277.12L288.9 261.12L275.4 253.12L268.4 253.12L265.4 259.62L268.4 269.62L263.4 299.62L265.4 318.12L268.4 328.39L275.4 344.58L280.4 373.62L273.4 377.62L251.9 395.12L232.74 400.62L221.4 395.12L216.4 383.12L213.4 413.05Z" id="o3mkAaEG0Q"></path><path d="M391.1 401.87L402.1 410.87L418.6 421.87L424.6 418.87L413.6 398.74L418.6 414.37L397.6 401.87L383.1 382.87L391.1 401.87Z" id="a1J8ay9k6S"></path><path d="M452.6 417.87L465.6 421.87L461.1 425.87L448.6 421.87L442.1 417.87L428.6 398.74L452.6 417.87Z" id="ba0B2Kn70"></path><path d="M509.46 459.97L524.46 463.64L529.13 463.64L527.13 455.3L522.8 453.97L521.8 459.97L494.46 448.64L509.46 459.97Z" id="e7CZ6IeZtT"></path><path d="M529.13 448.64L549.46 454.64L564.46 448.64L560.13 446.64L545.46 448.64L533.13 446.64L516.46 437.3L529.13 448.64Z" id="e2NRx3M7dV"></path><path d="M555.13 440.97L570.46 442.3L584.13 434.64L580.13 434.64L572.8 438.64L559.46 438.64L532.46 431.3L555.13 440.97Z" id="crsOBIDZt"></path><path d="M611.4 413.6L622.4 405.94L633.06 392.27L638.06 392.27L631.4 406.94L604.06 421.6L589.06 421.6L611.4 413.6Z" id="bFTv2167U"></path><path d="M188.8 525.64L192.45 526.37L196.2 529.87L204.45 532.37L213.4 531.62L216.92 528.87L220.45 530.87L226.45 530.87L247.7 524.37L283.7 528.12L318.95 524.37L309.95 509.87L284.42 502.94L261.42 503.94L257.92 507.44L241.67 503.94L224.17 496.19L216.92 497.69L198.67 506.69L191.24 506.69L185.17 510.94L181.92 517.19L182.67 520.69L188.8 525.64Z" id="cKxuQOaly"></path><path d="M235 435.74L264 407.49L292.3 412.74L326.45 515.54L328.7 524.87L323.2 529.24L306.45 531.54L293.7 532.24L287.9 531.54L266.5 531.54L257.5 526.49L253 531.54L240.75 532.24L239.75 529.24L238 531.54L233.66 532.87L225.66 530.2L229.33 527.87L235 527.87L239 524.87L249.66 519.87L255 519.87L269 518.2L287 521.87L304 519.87L307.33 523.87L314.33 519.87L309 511.54L284 502.87L264 503.87L251.56 495.2L231.33 465.87L235 435.74Z" id="b3B80vtAR"></path><path d="M227.4 469.31L218.01 461.12L215.23 447.82L218.01 442.71L219.4 429.4L224.11 421.22L236.44 409.97L247.56 404.85L270.51 401.23L293.9 413.38L272.6 413.38L253.82 421.22L245.13 432.47L245.13 444.41L248.96 447.82L251.74 454.64L253.82 466.92L245.13 476.47L237.48 474.76L227.4 469.31Z" id="d52hkG5Oij"></path><path d="M205.77 519.72L202.97 517.12L198.57 517.92L193.57 523.24L192.97 519.72L198.57 513.72L208.77 510.52L210.07 505.52L201.77 510.92L195.77 512.12L192.45 514.92L191.24 517.92L189.77 519.72L188.02 514.92L183.52 518.37L181.92 517.12L181.92 520.92L188.57 525.62L191.77 525.62L192.97 527.44L198.57 529.94L204.52 532.37L213.4 530.92L217.17 529.37L221.12 529.94L219.62 527.44L216.62 523.24L219.62 518.37L222.7 515.99L224.74 509.99L213.4 515.99L210.07 523.24L205.77 524.42L205.77 519.72Z" id="a1X0efn8A"></path><path d="M181.27 522.62L179.02 529.37L184.52 525.37L188.02 523.62L188.02 517.12L181.27 522.62Z" id="aNA5Y0VXL"></path><path d="M196.27 521.87L194.27 529.37L197.52 532.87L199.52 526.62L204.52 523.24L202.02 518.37L196.27 521.87Z" id="bt2UZDtPW"></path><path d="M222.49 523.18L221.74 530.38L225.78 534.88L224.86 528.38L227.74 525.55L225.78 521.38L222.49 523.18Z" id="d1MnmpuEiB"></path><path d="M4.87 580.67L0.87 579.17L4.37 578.17L11.37 568.67L17.12 562.69L34.87 553.92L44.12 551.17L36.05 550.42L44.12 547.67L52.12 544.35L58.37 543.52L62.12 546.17L71.85 543.52L113.35 532.87L146.92 534.94L186.67 536.07L202.32 537.44L252.17 543.52L285.35 545.27L300.1 546.77L324.85 544.35L332.85 538.27L333.85 510.02L349.1 502.52L363.85 516.27L366.6 539.27L346.1 561.02L296.15 562.69L156.32 553.32L75.87 555.69L73.37 560.44L65.62 562.69L60.84 571.44L51.12 574.19L46.76 583.19L30.34 594.69L27.64 588.69L3.62 591.69L14.62 579.69L4.87 580.67Z" id="g3zOGsQfKR"></path><path d="M367.12 524.32L370.12 540.07L364.37 550.67L353.12 560.32L342.92 565.32L299.87 569.27L261.47 569.27L202.3 562.07L151.3 558.49L104.8 555.57L91.05 556.82L76.05 557.82L74.3 562.07L65.55 564.57L62.55 571.32L56.55 581.82L50.05 584.82L50.8 578.82L44.05 590.57L27.64 599.82L23.14 598.82L27.39 592.82L17.8 594.82L9.59 594.07L1.3 595.82L0 591.57L11.3 581.82L0 581.07L2.55 580.07L16.8 575.32L25.3 568.07L25.3 572.32L6.05 590.57L26.8 585.82L31.64 576.82L43.05 568.07L35.3 577.82L34.3 586.57L30.34 592.82L38.55 587.82L48.05 572.32L53.76 568.07L55.24 572.32L64.8 561.07L71.02 559.77L72.92 550.67L78.92 553.17L108.42 547.17L139.25 549.17L287.9 559.77L342.92 559.77L360.42 544.35L365.42 528.19L367.12 524.32Z" id="g8Uwo0K0Xa"></path><path d="M20.27 337.05L24.88 342.04L34.32 343.56L39.76 342.04L41.74 333.72L43.55 320.83L46.86 305.99L54.77 305.99L51.36 311.86L55.79 311.26L64.02 311.26L67.63 316.04L72.85 316.04L72.85 313.27L66.83 305.99L62.15 305.99L62.15 302.87L16.32 302.27L20.27 337.05Z" id="cnLyzVxh2"></path><path d="M58.17 329.45L61.97 332.65L55.24 336.65L49.17 336.65L47.57 333.65L49.17 330.85L58.17 329.45Z" id="dcx1EFKcQ"></path><path d="M19.57 323.85L21.37 334.25L25.97 340.65L30.57 341.38L28.57 340.25L23.37 333.25L21.77 323.85L22.37 304.45L19.57 304.45L19.57 323.85Z" id="cvWoCnHDE"></path><path d="M50.17 324.79L50.17 331.05L57.77 329.45L54.77 324.79L54.77 321.45L60.84 315.25L52.77 316.65L50.17 324.79Z" id="b3NUpFa8GQ"></path><path d="M315.6 494.88L306.8 491.28L295.6 486.88L287 471.08L287 463.88L284.6 464.48L284.6 471.08L296 490.48L313.8 496.69L325.8 514.28L315.6 494.88Z" id="bemy0ULC1"></path></defs><g><g><g><use xlink:href="#c15enJHCma" opacity="1" fill="#e5d6aa" fill-opacity="1"></use></g></g><g><use xlink:href="#aTebIzYtG" opacity="1" fill="#422d13" fill-opacity="1"></use></g><g><use xlink:href="#ii3bjrj4b" opacity="1" fill="#562929" fill-opacity="1"></use></g><g><use xlink:href="#brJEtcSvZ" opacity="1" fill="#422d13" fill-opacity="1"></use></g><g><use xlink:href="#ddYVXBZR6" opacity="1" fill="#a6780c" fill-opacity="1"></use></g><g><g><use xlink:href="#c59ZKaCStX" opacity="1" fill="#9c9378" fill-opacity="1"></use></g><g><use xlink:href="#d6fhfzsqzY" opacity="1" fill="#9c9378" fill-opacity="1"></use></g><g><use xlink:href="#a1GHq0c7ph" opacity="1" fill="#9c9378" fill-opacity="1"></use></g><g><use xlink:href="#c2O330zEYR" opacity="1" fill="#9c9378" fill-opacity="1"></use></g></g><g><g><use xlink:href="#a4soClsfVn" opacity="1" fill="#ddd8c6" fill-opacity="1"></use></g><g><use xlink:href="#c1uwJgjTRI" opacity="1" fill="#2a2309" fill-opacity="1"></use></g></g><g><g><use xlink:href="#aAgKb6Eag" opacity="1" fill="#ddd8c6" fill-opacity="1"></use></g><g><use xlink:href="#dcBwJhh2z" opacity="1" fill="#201a04" fill-opacity="1"></use></g></g><g><use xlink:href="#eIGkbmmK" opacity="1" fill="#422d13" fill-opacity="1"></use></g><g><use xlink:href="#b5We4KgPUX" opacity="1" fill="#422d13" fill-opacity="1"></use></g><g><g><use xlink:href="#d1afiRokCX" opacity="1" fill="#a6780c" fill-opacity="1"></use></g><g><use xlink:href="#a367mnw4ti" opacity="1" fill="#5c440b" fill-opacity="1"></use></g><g><use xlink:href="#aRoxwsc5V" opacity="1" fill="#302809" fill-opacity="1"></use></g><g><use xlink:href="#dIcdUHnyC" opacity="1" fill="#5c440b" fill-opacity="1"></use></g><g><use xlink:href="#b1ft9EypJt" opacity="1" fill="#5c440b" fill-opacity="1"></use></g><g><use xlink:href="#b2eoPXxmkd" opacity="1" fill="#5c440b" fill-opacity="1"></use></g></g><g><use xlink:href="#a7jr2BsdY" opacity="1" fill="#a6780c" fill-opacity="1"></use></g><g><use xlink:href="#c1JnPvEZXF" opacity="1" fill="#a6780c" fill-opacity="1"></use></g><g><g><use xlink:href="#hZCXxAeA6" opacity="1" fill="#805520" fill-opacity="1"></use></g><g><use xlink:href="#b1UQ1b4zkp" opacity="1" fill="#805520" fill-opacity="1"></use></g><g><use xlink:href="#a1bLmQGLn5" opacity="1" fill="#805520" fill-opacity="1"></use></g><g><use xlink:href="#bEgbElfnz" opacity="1" fill="#805520" fill-opacity="1"></use></g><g><use xlink:href="#c1mtkpDQKL" opacity="1" fill="#805520" fill-opacity="1"></use></g></g><g><use xlink:href="#h845yDKqiE" opacity="1" fill="#422d13" fill-opacity="1"></use></g><g><use xlink:href="#b1hJ68V1nV" opacity="1" fill="#805520" fill-opacity="1"></use></g><g><use xlink:href="#aVsM4Dfc" opacity="1" fill="#a6780c" fill-opacity="1"></use></g><g><use xlink:href="#b8MaodIt6" opacity="1" fill="#a6780c" fill-opacity="1"></use></g><g><use xlink:href="#b1L7eFVvzH" opacity="1" fill="#c29325" fill-opacity="1"></use></g><g><use xlink:href="#bF58SiILw" opacity="1" fill="#e5d6aa" fill-opacity="1"></use></g><g><use xlink:href="#aaz43KeGJ" opacity="0.34" fill="#8d8d8d" fill-opacity="1"></use></g><g><use xlink:href="#daxY3OSHS" opacity="1" fill="#a6780c" fill-opacity="1"></use></g><g><use xlink:href="#aiVCRvGtW" opacity="1" fill="#e5d6aa" fill-opacity="1"></use></g><g><use xlink:href="#o3mkAaEG0Q" opacity="1" fill="#805520" fill-opacity="1"></use></g><g><use xlink:href="#a1J8ay9k6S" opacity="1" fill="#805520" fill-opacity="1"></use></g><g><use xlink:href="#ba0B2Kn70" opacity="1" fill="#805520" fill-opacity="1"></use></g><g><use xlink:href="#e7CZ6IeZtT" opacity="1" fill="#805520" fill-opacity="1"></use></g><g><use xlink:href="#e2NRx3M7dV" opacity="1" fill="#805520" fill-opacity="1"></use></g><g><use xlink:href="#crsOBIDZt" opacity="1" fill="#805520" fill-opacity="1"></use></g><g><use xlink:href="#bFTv2167U" opacity="1" fill="#805520" fill-opacity="1"></use></g><g><use xlink:href="#cKxuQOaly" opacity="1" fill="#a6780c" fill-opacity="1"></use></g><g><use xlink:href="#b3B80vtAR" opacity="1" fill="#805520" fill-opacity="1"></use></g><g><use xlink:href="#d52hkG5Oij" opacity="1" fill="#a6780c" fill-opacity="1"></use></g><g><use xlink:href="#a1X0efn8A" opacity="1" fill="#805520" fill-opacity="1"></use></g><g><use xlink:href="#aNA5Y0VXL" opacity="1" fill="#e5d6aa" fill-opacity="1"></use></g><g><use xlink:href="#bt2UZDtPW" opacity="1" fill="#e5d6aa" fill-opacity="1"></use></g><g><use xlink:href="#d1MnmpuEiB" opacity="1" fill="#e5d6aa" fill-opacity="1"></use></g><g><use xlink:href="#g3zOGsQfKR" opacity="1" fill="#a6780c" fill-opacity="1"></use></g><g><use xlink:href="#g8Uwo0K0Xa" opacity="1" fill="#805520" fill-opacity="1"></use></g><g><use xlink:href="#cnLyzVxh2" opacity="1" fill="#803d36" fill-opacity="1"></use></g><g><use xlink:href="#dcx1EFKcQ" opacity="1" fill="#803636" fill-opacity="1"></use></g><g><use xlink:href="#cvWoCnHDE" opacity="1" fill="#c8bcbc" fill-opacity="1"></use></g><g><use xlink:href="#b3NUpFa8GQ" opacity="1" fill="#1d1515" fill-opacity="1"></use></g><g><use xlink:href="#bemy0ULC1" opacity="1" fill="#422d13" fill-opacity="1"></use></g></g></svg>