<?xml version="1.0" encoding="UTF-8" standalone="no"?>
<!DOCTYPE svg PUBLIC "-//W3C//DTD SVG 1.1//EN" "http://www.w3.org/Graphics/SVG/1.1/DTD/svg11.dtd">
<svg version="1.1" xmlns="http://www.w3.org/2000/svg" xmlns:xlink="http://www.w3.org/1999/xlink" preserveAspectRatio="xMidYMid meet" viewBox="4.694610778404497 73.72240396621694 632.610778443191 508.59806301131084" width="900" height="722.45"><defs><path d="M392.07 417.97L399.81 476.01L398.36 494.94L402.03 498.34L399.81 500.07L390.38 497.25L377.7 493.31L370.52 487.04L370.52 494.94L372.91 501.38L368.98 499.47L358 496.55L349.83 489.01L347.35 483.73L343.97 489.01L344.96 501.38L338.39 505.15L334.39 498.34L327.45 472L317.41 488.62L313.28 498.34L308.67 498.34L304.17 475.49L298.86 481.11L291.81 485.06L283.22 491.42L274.05 494.94L264.8 495.79L262.36 493.82L260.25 489.01L265.6 491.42L271.8 486.49L277.57 480.01L279.73 476.35L275.74 477.62L264.48 481.98L253.11 487.62L243.59 488.31L233.03 489.01L220.77 489.58L215 487.04L221.62 484.22L226.69 481.41L228.66 478.87L229.65 475.49L232.18 475.07L232.6 473.1L227.96 470.14L232.6 470.56L235.56 469.44L237.53 466.48L235.56 464.08L227.39 464.51L222.88 461.27L220.77 457.18L220.77 453.38L222.46 457.76L227.96 461.27L232.6 460.01L236.56 457.76L248.67 460.72L252.05 459.17L256.31 460.01L258.53 457.76L261.66 455.42L262.79 452.6L266.31 450.07L265.6 444.29L263.21 442.04L260.25 441.34L257.72 439.22L262.36 440.21L265.6 442.46L271.52 442.46L273.21 439.79L275.74 439.22L275.32 435.84L272.36 433.17L268.98 425.42L268.98 419.96L268.56 411.38L264.48 403.45L259.27 400.91L254.34 394.96L256.31 396.55L262.79 398.1L270.67 401.76L271.8 406.13L270.67 412.6L273.21 417.25L274.9 416.83L275.32 412.04L274.05 408.1L274.05 402.46L276.17 398.52L278 393.53L277.57 387.81L279.35 393.53L277.57 398.88L276.49 407.46L279.35 411.38L279.35 419.96L285.07 422.46L295.42 419.96L303.28 411.38L305.07 394.96L313.28 383.53L392.07 417.97Z" id="bIn4eFVV"></path><path d="M431.54 544.87L429.01 543.15L425.78 543.15L408.96 549.25L425.78 578.05L427.97 579.32L430.96 578.86L446.06 573.44L447.67 570.8L447.67 567.68L431.54 544.87Z" id="a1AbV3vn"></path><path d="M304.41 463.51L303.48 466.82L301.87 467.65L303.48 472.05L300.67 471.25L300.01 466.31L300.01 461.11L302.27 459.24L304.41 463.51Z" id="a5nr8pbi7W"></path><path d="M418.79 545.05L424.01 548.19L426 553.44L423.51 562.78L421.96 566.53L421.06 565.88L419.11 558.38L419.11 554.91L417.15 552.76L414.54 558.79L413.81 557.46L418.79 545.05Z" id="fftCfAyRO"></path><path d="M312.96 448.66L306.44 450.55L305.28 453.45L303.54 455.91L301.66 459.68L301.66 463.3L304.27 465.33L306.44 463.3L308.62 462.29L308.62 465.33L309.34 467.79L309.34 471.71L308.62 475.61L305.86 477.65L304.85 481.24L305.28 485.33L301.66 489.39L298.62 490.81L298.62 495.74L304.27 495.04L308.62 491.56L311.6 487.91L316.24 483.85L317.4 481.24L320 474.72L321.02 475.61L321.6 480.23L321.6 485.74L320 490.81L319.44 494L317.4 498.92L317.4 501.24L323.63 501.82L326.82 499.36L327.25 492.26L328.12 489.94L331.02 485.74L331.46 481.24L333.48 483.85L336.09 485.01L334.35 491.24L330.59 493.27L330.01 495.74L332.25 496.9L335.22 496.9L338.41 494.43L338.41 490.81L341.02 485.01L342.04 481.24L340.44 478.35L338.41 478.35L334.81 475.61L332.25 467.41L334.04 460.24L334.04 454.35L347.1 443.08L328.66 431.81L322 447.18L319.44 447.18L313.8 450.25L312.96 448.66Z" id="e4Vfy7HwP"></path><path d="M344 446.03L334.22 454.52L334.01 455.86L331.69 452.58L344.9 441.9L344 446.03Z" id="c1UmcbFEmW"></path><path d="M398.17 541.1L400.7 539.37L403.93 539.37L420.75 545.47L403.93 574.28L401.74 575.54L398.74 575.08L383.65 569.67L382.04 567.02L382.04 563.91L398.17 541.1Z" id="aRvTP1QoE"></path><path d="M399.56 539.37L401.81 538.64L406.81 540.34L405.04 540.34L400.6 540.5L397.7 541.95L399.56 539.37Z" id="daoA4Hpc4X"></path><path d="M384.48 544.77L387.53 547.81L390.57 547.08L394.19 545.35L396.66 541.58L401.44 539.4L409.41 538.97L410.14 537.52L413.04 534.77L413.04 537.52L415.06 541.58L416.37 545.92L416.67 550.71L420.28 554.91L425.06 554.91L426.22 548.82L425.5 544.33L425.06 539.4L427.82 539.4L432.17 540.13L437.09 542.3L438.54 544.33L441.73 545.92L443.91 545.92L446.66 543.03L444.48 540.13L441.15 537.52L435.21 536.21L431.3 532.45L430.57 528.82L425.5 523.17L423.76 508.53L425.5 497.66L428.54 473.75L400.57 485.06L408.25 500.71L409.41 509.26L411.59 512.74L410.14 518.97L409.41 524.04L406.22 528.82L401.73 530.85L396.66 535.64L390.57 541.29L385.93 543.03L384.48 544.77Z" id="bq0wQUoAA"></path><path d="M249.98 281.28L242.82 277.89L244.01 267.01L233.45 280.62L224.92 279.25L221.56 273.88L219.65 268.47L216.89 263.09L219.17 257.34L224.2 251.95L226.71 249.61L228.87 243.58L227.41 237.4L227.41 243.3L225.87 247.67L222.4 251.49L219.17 252.27L215.1 253.88L209.71 249.21L209.71 246.53L211.86 243.3L214.03 239.61L214.03 237.4L215.57 235.88L216.53 233.68L218.09 229.53L219.17 229.05L218.69 224.74L218.09 227.97L215.93 229.05L212.58 233.28L213.18 236.4L210.07 235.88L208.51 232.56L210.38 229.05L212.58 229.53L214.62 222.46L214.62 210.09L211.86 207.46L212.22 213L213.66 215.68L213.66 219.03L209.11 224.41L207.07 227.7L207.55 231.21L207.07 235.21L204.56 239.11L201.74 236.4L198.87 233.68L197.91 228.41L196.11 230.29L195.63 223.97L194.68 227.42L192.28 222.46L187.85 217.96L183.4 213.97L181.72 208.8L182.8 204.96L184.71 196.98L182.8 195.24L180.76 191.1L180.76 186.64L178.6 185.8L179.56 189.4L179.56 192.96L178.6 198.91L176.09 198.91L173.57 196.47L172.74 192.96L174.05 189.4L177.65 187.5L175.37 186.64L172.26 189.4L170.82 193.96L171.3 196.98L174.53 199.36L177.17 203.65L175.37 206.04L169.65 206.8L166.04 206.35L164.37 204.46L164.37 200.68L161.85 196.98L162.57 200.68L159.93 205.36L156.46 208.54L156.46 211.31L150.87 214.74L140.21 224.74L137.1 221.62L136.38 215.94L140.21 206.35L145.72 197.61L145.72 193.46L150.87 183.73L144.46 190.19L144.04 194.62L140.81 199.36L140.81 203.31L136.8 209.35L130.15 215.94L124.4 214.74L122.72 211.62L122.27 202.21L128.41 193.46L134.46 183.48L139.25 166.83L139.61 159.05L137.4 164.32L135.72 178.21L127.28 187.5L119.97 193.96L112.22 200.68L106.71 208.54L107.74 220.55L116.65 227.7L121.17 232.85L118.53 239.11L110.74 239.61L107.74 235.61L107.14 229.85L106.38 237.4L111.57 241.62L116.01 247.36L117.04 257.05L114.69 264.24L109.13 273.58L106.38 278.39L103.98 278.39L100.03 278.39L100.87 270.36L96.2 266.52L98.32 270.36L93.08 276.01L88.38 271.92L87.05 267.78L89.44 263.09L91.72 258.02L91 253.04L85.97 248.62L83.69 241.62L83.34 235.61L84.53 230.29L88.84 219.28L85.5 222.46L81.32 231.49L80.72 236.95L82.23 244.28L84.9 250.47L84.9 255.11L82.23 257.34L81.32 255.38L78.78 248.62L76.87 236.4L77.97 226.79L80.72 216.46L86.35 203.31L81.32 213L82.76 201.76L78.4 191.1L73.06 184.75L63.61 176.73L70.6 184.33L75.34 192.96L77.61 200.68L73.36 215.68L70.6 220.92L66.47 220.55L61.08 217.21L59.29 207.86L61.08 199.96L63.3 196.01L66.47 193.96L69.36 191.58L67.79 187.74L65.68 187.5L64.56 185.11L63 179.17L56.07 175.65L60.72 181.38L64.14 186.19L64.14 189.89L60.14 192.96L57.07 193.96L54.63 196.47L52.64 198.39L53.42 201.38L52.35 205.71L52.35 210.61L54.63 213L57.07 218.75L65.68 221.62L70.6 229.05L71.49 235.21L70.84 240.81L72.33 256.58L76.07 268.47L80.35 275.35L82.23 277.34L82.51 280.62L86.7 283.31L89.85 289.44L87.98 295.24L89.85 312.95L81.63 326.87L78.4 328.19L69.78 325.96L68.22 321.48L61.38 310.7L58.22 304.47L55.81 301.6L53.42 292.86L56.07 282.92L59.89 276.01L63 265.79L63 252.67L58.57 245.94L61.38 251.95L61.68 258.86L60.72 265.79L59.29 270.87L56.07 275.01L52.35 274.53L49.14 273.34L49.14 270.87L49.14 264.24L48.64 258.86L46.27 243.9L47.06 237.86L48.16 226.09L51.85 217.96L52.35 224.41L50.77 237.86L48.16 247.67L46.27 250.47L44.26 258.61L44.26 264.5L47.47 271.92L46.27 281.28L49.14 298.15L44.81 295.24L49.53 301.89L58.22 322.67L61.38 330.52L66.89 338.09L70.84 339.49L67.25 343.58L63.3 343.58L57.07 341.34L54.08 335L53 330.19L53.72 325.65L53 320.62L49.53 319.53L51.51 321.22L52.64 325.96L51.51 330.92L44.26 330.19L41.22 325.65L37.31 319.85L36.31 310.1L35.51 321.96L35.51 328.87L37.31 333.72L48.64 347.05L53 348.12L62.46 347.3L65.22 348.12L54.63 361.19L45.89 370.95L34.39 380.86L25.41 382.93L21.1 381.47L17.5 378.61L17.5 372.68L21.51 368.35L25.95 368.35L27.38 366.44L31.46 359.05L29.9 353.43L30.62 349L30.26 344.2L31.81 337.5L28.1 338.09L27.38 342.88L29.3 354.95L26.78 364.21L22.95 364.21L18.27 360.57L14.57 347.64L14.11 338.09L16.37 331.47L17.08 308.24L15.89 301.89L13.49 298.41L13.49 293.58L12.41 298.41L14.11 302.64L15.89 307.4L14.11 335.38L11.48 343.17L6.81 356.46L5.69 370.13L8.21 374.89L7.85 377.15L9.65 379.97L18.27 389.79L33.72 389.79L39.9 388.21L48.64 387.71L56.07 384.49L60.14 383.37L70.6 376.34L76.07 372.12L85.5 359.05L88.38 357.19L80.35 373.6L69.36 388.21L63.61 393.71L58.22 396.57L52.35 397.28L48.16 395.96L45.05 395.96L41.22 395.96L44.81 397.54L51.51 398.89L38.82 400.27L36.31 398.18L32.47 395.41L34.39 398.89L38.82 401.47L54.63 403.64L64.14 399.82L70.6 395.04L73.36 395.41L82.51 393.71L93.53 389.12L101.79 383.37L110.17 375.61L117.84 365.31L122.27 361.19L119.28 373.28L112.69 383.37L106.38 392.59L98.32 399.3L89.85 402.58L85.5 403.64L84.9 400.53L88.38 393.71L86.7 396.31L82.51 401.47L80.35 404.49L83.95 407.36L89.85 407.36L106.38 400.27L117.04 394.76L118.53 391.79L121.17 390.82L135.72 381.47L146.74 372.68L144.46 387.24L143.14 394.76L137.4 400.27L128.41 406.38L136.8 402.58L142.31 398.18L147.93 392.27L157 382.45L166.41 368.76L166.41 366.69L169.29 361.19L169.65 364.77L167.85 373.28L170.37 372.68L186.43 357.71L191.46 354.95L182.35 372.68L182.35 374.89L184.99 374.89L210.38 359.05L214.03 356.01L223.46 346.55L222.89 356.01L223.46 359.62L227.41 359.62L234.71 355.66L245.37 347.3L253.31 339.97L250.64 348.12L250.28 351.03L252.68 352.27L263.22 344.2L273.61 330.19L272.65 334.35L272.65 342.04L275.05 342.88L279.6 338.09L287.13 327.44L287.13 333.72L288.31 334.35L296.11 327.17L299.48 321.96L301.62 326.37L302.81 330.52L301.36 337.5L303.79 349L304.06 359.62L309.66 370.69L310.96 380.86L307.56 392.27L309.23 397.28L312.98 404.25L318.46 411.17L326.72 408.41L325.93 415L325.93 425.98L327.16 429.97L324.58 435L322.39 444.46L325.93 437.29L326.72 440.75L325.57 445.62L328.31 442.2L330.25 441.92L332.08 441.24L331.44 445.62L339.59 441.24L334.52 446.03L334.52 447.79L337.07 446.46L340.31 443.64L342.18 443.96L342.18 445.62L337.49 449.11L340.31 449.11L351.7 441.24L360.43 429.97L372.07 437.61L376.74 437.61L379.22 441.24L384.38 454.22L390.57 467.77L396.46 480.81L405.74 499.85L399.87 487.4L401.55 489.9L405.74 497.34L402.81 486.08L408.92 495.18L406.4 483.68L410.68 494.46L410.32 482.73L412.82 493.86L414.27 483.09L414.27 493.5L417.49 481.17L417.49 492.19L421.51 479.85L422.21 490.99L426.1 478.53L426.1 489.9L432.44 476.27L440.35 470.28L441.55 467.41L445.25 461.9L440.82 466.21L437.48 465.85L436.78 462.74L437.48 459.27L437.48 454.22L438.46 450.29L441.55 445.62L441.19 440L439.75 446.46L435.2 451.37L435.2 454.22L431.57 454.22L429.34 450.29L430.41 441.92L437.48 433.89L438.46 431.71L440.35 425.98L441.19 420.24L440.35 414.22L439.75 416.32L439.75 420.24L436.78 422.51L434.33 430.79L430.41 435.38L427.98 435.38L426.1 431.41L424.41 425.6L428.89 421.17L433.07 417.1L433.4 409.41L433.07 401.47L431.57 398.18L424.94 410.87L418.69 414.22L418.09 411.43L416.01 404.25L416.01 399.82L418.09 397.54L418.09 393.71L421.23 382.45L419.41 378.95L418.69 374.19L417.49 377.42L419.41 384.94L416.9 391.79L413.42 393.71L413.42 392.27L411.86 384.49L411.86 376.34L412.82 370.95L414.75 358.62L412.82 353.71L412.82 345.25L414.75 351.68L417.49 352.27L421.51 358.2L427.98 364.21L431.57 361.19L431.57 356.87L434.33 347.3L434.33 355.66L438.88 372.12L445.59 381.9L449.18 371.65L449.54 365.31L452.05 366.69L458.72 380.86L464.47 396.57L469.14 404.49L471.72 406.38L473.16 403.89L471.36 393.71L472.56 384.49L483.22 400.53L489.32 418.77L496.87 425.31L500.82 425.6L502.11 423.35L500.82 415L500.34 398.89L502.11 398.5L511.6 414.69L516.78 429.13L530.51 442.97L531.23 440.75L530.03 431.41L527.06 423.86L525.5 416.32L534.53 426.62L544.34 436.86L557.18 447.43L568.86 454.94L578.2 454.22L577.24 450.75L568.86 442.97L559.99 431.71L567.42 436.86L573.8 439.13L578.56 442.61L583.96 442.97L600.39 449.11L606.4 447.79L607.96 447.43L616.34 448.39L626.76 443.96L631.67 438.57L634.31 433.42L633.59 424.44L632.75 432.46L627.84 436.18L620.72 438.57L613.23 441.92L602.51 439.65L606.4 436.18L612.63 434.74L617.9 430.79L622.69 425.31L623.65 422.79L625.68 421.61L629.4 417.64L631.67 407.11L630.35 403.64L626.76 396.57L625.68 390.82L624.37 374.89L626.04 368.76L629.04 364.77L634.31 356.87L631.31 360.28L625.68 365.31L620.72 375.61L621.44 387.71L625.68 393.22L626.04 398.5L629.4 404.49L624.01 421.61L615.14 422.21L613.95 419.34L616.34 412.27L619.81 405.92L625.68 400.53L622.69 400.53L617.01 403.89L611.71 410.59L610.08 413.35L611.07 418.38L611.07 426.88L601.68 433.11L589.99 435.38L586.04 432.75L581.61 427.6L600.39 423.35L617.01 402.03L619.05 391.37L619.05 382.93L619.05 378.95L620.72 370.69L621.44 365.9L617.01 369.13L614.26 377.15L618.21 384.94L615.93 401.47L611.98 408.41L593.18 422.79L575.2 422.79L567.93 417.64L579.75 415L589.35 409.01L601.68 395.96L611.98 380.51L615.44 370.13L620.11 351.68L620.11 342.49L611.71 329.54L606.92 324.03L606.92 311.46L605.41 306.5L598.95 305.16L595.66 293.58L596.05 290.33L593.42 283.98L593.42 277.89L595.66 268.47L591.86 248.91L589.35 246.93L587.67 243.3L587.67 239.61L585.38 232.85L582.16 231.21L584.54 240.15L587.19 244.86L586.82 254.47L583.96 259.82L583.23 263.86L586.34 268.47L585.38 274.22L587.67 283.31L595.1 295.24L595.66 303.04L596.62 307.66L599.73 309.7L602.51 314.06L602.51 328.87L608.56 345.25L610.08 364.77L605.41 377.15L598.22 381.9L594.04 380.86L589.01 375.23L588.53 368.76L591.05 363.21L598.95 354.27L597.87 349.8L597.87 353.43L588.26 363.21L582.95 369.77L582.63 376L586.82 386.18L585.38 395.04L582.63 402.58L574.76 409.41L563.91 412.64L559.1 412.64L546.82 398.5L542.19 390.35L547.3 389.4L552.51 387.24L558.2 382.93L562.03 363.21L567.93 360.57L573.8 355.66L579.75 348.12L582.63 339.49L585.38 325.96L586.82 319.85L588.26 315.42L586.34 313.21L582.63 313.21L579.75 314.34L582.63 318.24L584.54 324.65L583.23 332.79L575.2 339.15L571.65 336.74L567.93 327.17L571.65 317.05L573.08 309.27L574.76 302.38L573.8 295.73L573.8 289.44L571.05 285.73L571.32 287.47L570.72 290.58L571.32 293.58L573.36 299.32L568.21 315.17L564.38 319.53L559.69 318.24L556.17 315.17L554.86 310.1L557.18 306.19L560.25 299.96L562.52 296.25L561.05 292.36L561.05 296.53L557.78 300.77L550.51 312.03L551.55 322.67L553.95 324.65L553.23 327.17L557.18 334.35L559.1 347.05L559.69 356.87L557.18 366.69L552.51 373.28L544.34 376.87L532.86 377.15L528.19 372.12L524.11 364.21L519.69 359.05L518.46 349.8L520.68 343.58L524.51 339.15L529 333.72L532.59 328.57L534.53 319.53L536.07 317.05L538.72 310.7L539.42 305.16L541.84 302.64L543.5 296.53L543.98 292.36L542.9 285.36L541.11 277.34L539.42 272.41L539.42 268.47L543.5 256.58L544.34 248.35L542.19 255.9L537.38 266.07L535.61 270.12L536.07 274.22L535.35 277.89L536.07 279.92L535.61 282.92L537.38 287.47L537.38 290.58L539.42 295.73L538.13 306.5L535.61 308.79L534.05 313.21L533.1 322.67L527.35 335L523.49 338.47L520.02 342.49L514.21 341.65L511.02 330.52L511.99 321.96L515.68 317.05L518.92 315.73L521.1 314.06L525.5 310.7L526.58 304.71L524.78 308.79L521.1 310.1L518.46 308.79L517.98 306.75L521.69 299.32L522.99 293.58L525.5 292.36L527.06 286.87L524.78 290.94L520.02 293.58L518.92 299.32L515.95 305.55L513.07 309.27L510.29 306.75L510.29 303.04L508.62 297.41L507.02 291.82L512.47 286.07L514.57 281.88L517.98 267.47L516.49 272.41L514.21 276.01L510.74 281.28L508.94 283.31L507.02 281.28L506.25 276.01L509.48 264.24L509.48 253.6L511.99 246.53L516.78 241.62L522.53 235.88L523.49 227.97L521.69 234.86L518.46 237.86L514.99 236.95L513.07 231.21L515.95 224.74L517.98 217.96L520.02 212.28L521.1 204.96L520.02 208.54L516.78 213L512.47 220.55L509.84 229.53L507.92 243.3L505.77 243.9L504.03 237.86L503.55 215.68L502.11 210.09L499.81 198.91L494.88 183.73L494.88 190.73L490.13 183.16L488.88 177.92L487.92 171.63L491.16 163.12L487.44 159.53L486.02 154.14L486.37 151.5L488.4 146.59L488.88 138.09L487.08 146.12L482.53 156.29L481.35 167.66L485.66 174.45L486.02 177.56L484.1 180.36L484.1 183.73L482.02 183.73L482.02 180.36L481.66 177.56L479.74 174.45L476.51 174.45L478.78 176.37L480.34 179.96L477.35 184.75L474.11 184.75L471.72 186.19L469.56 187.5L464.77 189.89L465.25 186.19L470.88 177.92L474.11 174.45L476.51 168.58L474.95 162.35L475.55 165.08L474.95 170.38L469.56 176.37L464.77 180.36L461.78 184.33L460.58 188.89L461.48 193.46L459.32 199.36L460.28 204.46L458.13 208.54L458.72 213.97L456.11 223.97L455.75 232.12L452.64 235.61L451.8 239.61L448.21 245.12L444.22 253.04L441.83 256.58L438.46 255.38L433.79 250.99L433.79 248.35L434.87 245.6L436.78 242.97L433.07 245.12L429.72 249.61L429.72 251.95L433.07 257.34L433.07 260.93L431.89 264.86L428.89 267.47L426.86 267.47L427.34 264.24L424.94 269.27L427.34 270.87L421.23 273.58L407.97 276.01L400.23 276.85L400.23 274.22L401.22 270.87L408.26 265.12L410.32 262.37L410.68 258.02L416.9 246.93L416.9 244.28L414.75 242.97L414.27 240.81L413.67 239.61L412.47 242.01L414.75 245.94L414.27 250.99L411.49 255.66L407.06 259.82L404.19 258.86L404.19 256.58L405.74 252.67L408.26 250.47L404.19 252.27L400.23 255.38L399.87 258.02L401.55 259.82L402.03 262.81L399.4 266.52L392.81 270.12L388.02 269.64L380.25 264.86L379.72 263.09L385.87 257.34L386.14 255.66L382.28 252.67L381.8 249.61L384.95 246.93L382.77 245.94L379.72 246.93L379.22 248.91L380.61 251.49L381.2 254.47L379.22 257.05L376.05 257.05L373.53 255.66L382.77 215.68L384.38 211.31L386.14 208.54L384.38 204.96L386.14 199.96L386.74 195.64L386.74 184.33L384.95 180.36L384.38 177.92L384.38 173.22L385.37 169.85L385.37 165.82L383.78 162.84L383.78 166.41L380.61 170.98L378.23 166.41L378.23 162.84L381.2 157.31L380.61 152.78L379.22 148.95L378.23 151.14L376.05 147.76L374.32 139.85L374.91 152.35L373.53 154.53L371.14 154.96L368.76 157.31L362.81 152.78L359.44 146.99L360.43 142.86L357.45 135.88L354.68 133.89L354.68 131.12L354.08 122.39L351.7 124.96L351.1 128.93L353.09 130.52L353.09 133.89L351.7 143.62L349.12 143.62L347.93 139.25L350.11 136.31L345.35 130.52L345.35 122.39L345.35 117.62L343.76 107.11L340.59 103.34L342.18 108.69L342.18 117.62L334.52 109.29L341.66 120L337.49 128.34L335.71 126.75L334.52 128.93L329.3 125.96L328.31 122.39L329.76 110.88L321.6 129.53L322.39 133.34L328.31 136.31L333.07 145.24L332.08 152.78L328.31 154.96L325.93 153.77L325.17 149.61L323.78 148.22L324.58 142.86L321.01 150.6L320.01 155.76L324.58 158.54L328.31 162.11L333.07 167.66L332.08 172.42L329.3 173.22L326.72 165.08L327.16 169.85L324.58 171.63L321.6 169.25L321.01 162.11L317.83 173.22L318.82 180.36L321.01 184.33L322.39 187.5L325.17 188.89L327.16 192.46L323.78 193.46L320.01 192.46L318.82 189.89L316.05 187.5L314.46 183.73L309.23 179.17L301.36 175.4L305.73 179.17L308.11 188.89L309.23 195.24L312.47 203.97L319.34 205.71L313.98 207.46L307.56 205.71L302.81 202.21L303.48 193.46L299.48 192.96L301.98 199.96L300.81 204.46L302.81 207.46L304.81 216.46L307.56 217.96L309.23 222.46L312.98 225.71L312.98 234.86L310.23 238.46L307.56 237.86L304.81 235.61L304.06 230.86L302.81 234.86L304.06 239.11L302.81 242.61L300.81 244.86L298.06 248.11L295.31 247.36L293.56 242.61L291.56 249.61L288.31 255.11L283.06 258.61L279.06 264.86L280.56 270.36L279.06 277.61L267.51 286.43L259.34 284.76L254.8 283.31L249.98 281.28Z" id="h1kTZrNqMw"></path><path d="M376.52 129.55L378.32 125.22L379.58 122.69L380.49 119.44L378.32 114.57L379.04 111.32L374.71 116.37L373.63 120.17L372.72 126.12L374.71 129.01L371.1 129.01L375.97 131.54L376.52 129.55Z" id="h358BvI3mh"></path><path d="M361.14 97.65L358.43 100.72L358.43 105.05L356.99 106.86L358.43 109.02" id="d4ifCAJn3j"></path><path d="M16.66 226.28L15.22 217.61L16.66 210.03L21.53 217.25L22.62 219.6L22.62 230.79L16.66 226.28Z" id="be041C9v3"></path><path d="M31.46 193.03L33.09 188.88L35.43 188.88L35.43 193.03L33.09 195.56L31.46 193.03Z" id="d1IeFAqEr"></path><path d="M51.3 165.85L51.3 159.53L53.47 155.38L55.63 152.31L55.63 149.61L55.63 146.36L56.53 143.29L56.53 140.22L54.73 138.59L53.47 134.8L54.73 130.47L57.08 136.61L58.16 143.83L58.7 154.3L56.53 160.8L52.38 166.93L51.3 165.85Z" id="b1qRlH4Upz"></path><path d="M584.08 202.63L581.57 201.16L577.17 198.02L577.17 191.54L580.1 184.63L579.48 193.21L584.08 196.98L586.59 203.25L584.08 209.95L584.08 202.63Z" id="d3PUTx3fZ"></path><path d="M601.23 231.73L602.07 228.59L605.21 220.01L605.21 227.13L605.21 239.26L605.21 249.72L602.07 243.65L598.09 238.42L598.09 233.19L601.23 231.73Z" id="ejmBAC9G"></path><path d="M375.59 188.27L386.91 196.48L384.17 205.06L386.28 208.71L384.17 211.03L382.83 213.98L378.91 210.03L366.46 208.08L359.64 210.03L356.77 210.03L349.18 212.71L341.38 211.87L335.06 206.18L333.16 201.75L336.54 195.43L327.76 195.43L325.55 193.32L336.54 192.69L375.59 188.27Z" id="e8xlIZIgG"></path><path d="M345.28 200.47L348.65 203.36L353.11 203.39L356.51 202.88L359.71 200.59L357.25 199.95L353.15 198.59L350.12 197.69L346.58 197.29L345.28 200.47Z" id="b4wbeRyzQe"></path><path d="M358.17 230.34L372.74 247.2L372.74 263.92L361.44 284.39L360.71 275.09L343.77 259.89L338.52 241.23L334.93 234.45L332.81 215.38L341.16 227.62L350.49 230.34L358.17 230.34Z" id="b1vlj1m2hP"></path><path d="M377.17 200.46L378.93 200.46L382.82 199.47L385.36 200.06L384.64 203.1L382.32 205.06L378.93 205.06L376.25 203.1L375 201.04L377.17 200.46Z" id="b1GjLgDDOK"></path><path d="M347.14 216.52L346.15 218.58L344.92 220.14L343.77 222.2L344.1 223.76L345.91 225.65L346.81 227.54L349.61 229.19L350.68 230.99L354.87 235.02L355.86 239.05L357.42 240.37L357.42 242.34L360.3 245.88L361.86 247.11L364.58 249.05L365.57 255.79L366.88 261.38L366.22 263.92L367.56 263.92L371.06 259.7L372.43 256.84L376.26 250.5L375.66 246.9L377 242.63L379.75 234.8L379.75 229.71L383.34 222.88L384.93 220.39L384.58 217.66L382.22 217.16L379.75 215.18L377.37 211.7L376.26 207.47L373.15 204.62L370.04 201.01L367.56 201.01L364.21 205.73L360.98 207.47L358.49 210.33L356.75 213.44L352.86 215.18L350.29 215.18L347.14 216.52Z" id="a14jSHAltZ"></path><path d="M362.68 222.61L362.68 224.99L362.68 228.03L363.67 229.68L365.4 230.34L365.64 228.94L364.82 227.38L364 223.59L364.82 220.39L364.35 215.12L363.01 217.18L362.27 219.23L360.71 221.95L362.68 222.61Z" id="d1pe4jDBL"></path><path d="M378.14 219.48L377.48 223.35L376.33 229.43L375.76 230.34L375.59 229.19L375.59 226.14L376.74 220.88L376.33 217.67L378.14 219.48Z" id="a3fn4i9689"></path><path d="M346.32 222.73L347.14 219.89L348.62 217.43L350.59 217.01L350.92 218.33L349.44 219.23L348.87 220.88L351.91 224.58L354.62 226.97L356.43 228.77L356.68 230.75L358.32 232.15L359.48 235.85L361.28 237.57L362.44 241.11L362.76 243.41L364.9 247.85L364.9 251.88L364.35 248.92L363.18 246.46L361.28 242.84L358.57 238.4L357.34 235.85L356.43 234.78L355.12 231.16L354.13 228.77L349.77 224.91L348.62 222.94L347.63 222.73L347.14 223.59L346.32 222.73Z" id="e5nvdAvxt"></path><path d="M361.2 206.91L364.37 205.39L367.22 200.99L369.95 201.04L376.47 207.95L377.16 212.48L374.9 212.43L373.82 209.04L371.13 206.25L367.11 207.02L364.3 209.5L359.59 209.41L361.2 206.91Z" id="j1fOK87U4"></path><path d="M380.2 218.91L381.43 218.91L382.83 220.47L382.83 221.78L381.6 221.21L380.61 222.73L379.13 226.39L379.46 229.43L379.75 233.46L379.13 236.34L379.13 234.78L378.55 229.43L378.14 225.32L378.88 224L380.2 221.21L378.88 219.56L380.2 218.91Z" id="c1NEFgHyp7"></path><path d="M376.44 207.65L377.26 212.5L375.95 215.38L375.12 208.96L372.74 207.15L372.74 204.69L376.44 207.65Z" id="a7zMFR9Ne"></path><path d="M319.47 547.11L321.84 548.07L326.17 548.56L327.63 548.73L333.09 547.74L335.65 546.58L335.65 549.97L333.5 550.8L327.88 551.87L322.86 551.54L319.61 550.8L319.47 547.11Z" id="a5tWvvBNv"></path><path d="M322.01 548.25L328.26 548.89L333.32 547.99L335.61 546.6L333.05 545.31L328.79 545.31L324.72 545.31L321.37 546.14L319.33 547.12L322.01 548.25Z" id="cvTFJOQ8s"></path><path d="M320.42 551.16L320.3 547.58L321.96 548.07L321.96 551.46L320.42 551.16Z" id="ai8VpWKk0"></path><path d="M323.11 551.63L323 548.35L324.66 548.54L324.66 551.63L323.11 551.63Z" id="b3WngLITbB"></path><path d="M325.55 551.72L325.44 548.59L327.09 548.78L327.09 551.87L325.55 551.72Z" id="bkDmjaxW"></path><path d="M330.02 551.53L330.13 548.59L328.47 548.78L328.47 551.87L330.02 551.53Z" id="f1HBgE2HEM"></path><path d="M332.72 551.03L332.83 548.09L331.17 548.28L331.17 551.37L332.72 551.03Z" id="c1mxe2fABH"></path><path d="M335.39 550.2L335.28 546.8L333.84 547.58L333.84 550.69L335.39 550.2Z" id="a7TcuwX0i"></path><path d="M324.18 547.27L328.16 547.48L331.37 547.19L332.83 546.73L331.2 546.31L328.49 546.31L325.9 546.31L323.77 546.58L322.47 546.9L324.18 547.27Z" id="c57vqVFxl"></path><path d="M318.74 543.83L321.11 544.79L325.44 545.28L326.9 545.45L332.36 544.46L334.92 543.3L334.92 546.69L332.77 547.52L327.15 548.59L322.13 548.26L318.88 547.52L318.74 543.83Z" id="a7UXGB6qio"></path><path d="M321.28 544.97L327.54 545.62L332.59 544.71L334.89 543.32L332.32 542.03L328.06 542.03L323.99 542.03L320.64 542.86L318.6 543.84L321.28 544.97Z" id="a13OEV1Thb"></path><path d="M319.69 547.88L319.58 544.3L321.23 544.79L321.23 548.18L319.69 547.88Z" id="fE6WmJkbE"></path><path d="M322.39 548.35L322.27 545.07L323.93 545.26L323.93 548.35L322.39 548.35Z" id="ernChiJHj"></path><path d="M324.82 548.44L324.71 545.31L326.37 545.5L326.37 548.59L324.82 548.44Z" id="f13KM7Y8SL"></path><path d="M329.29 548.25L329.4 545.31L327.74 545.5L327.74 548.59L329.29 548.25Z" id="gq0g0q382"></path><path d="M331.99 547.75L332.1 544.81L330.44 545L330.44 548.09L331.99 547.75Z" id="ci4rcmkfZ"></path><path d="M334.66 546.92L334.55 543.52L333.11 544.3L333.11 547.41L334.66 546.92Z" id="d512zkofe5"></path><path d="M323.45 543.99L327.43 544.2L330.64 543.91L332.1 543.45L330.47 543.03L327.76 543.03L325.17 543.03L323.04 543.3L321.74 543.62L323.45 543.99Z" id="ca5yiCthw"></path><path d="M320.12 536.34L322.22 537.32L326.05 537.82L327.34 537.99L332.17 536.98L334.43 535.8L334.43 539.26L332.53 540.1L327.56 541.2L323.12 540.86L320.24 540.1L320.12 536.34Z" id="cw0kX57Bx"></path><path d="M322.37 537.51L327.9 538.16L332.37 537.24L334.4 535.82L332.13 534.52L328.37 534.52L324.77 534.52L321.8 535.36L320 536.36L322.37 537.51Z" id="fym4Zrsax"></path><path d="M320.96 540.47L320.86 536.82L322.33 537.32L322.33 540.77L320.96 540.47Z" id="a27hOi7HUI"></path><path d="M323.35 540.95L323.25 537.61L324.71 537.8L324.71 540.95L323.35 540.95Z" id="a3IxKkaCDH"></path><path d="M325.5 541.04L325.4 537.86L326.87 538.05L326.87 541.2L325.5 541.04Z" id="buyfftIPf"></path><path d="M329.45 540.85L329.55 537.86L328.08 538.05L328.08 541.2L329.45 540.85Z" id="e6bz859GuA"></path><path d="M331.84 540.33L331.94 537.34L330.47 537.53L330.47 540.68L331.84 540.33Z" id="a40QTfHKWo"></path><path d="M334.2 539.49L334.1 536.03L332.83 536.82L332.83 539.99L334.2 539.49Z" id="b2iCtwTWDs"></path><path d="M324.28 536.51L327.8 536.72L330.64 536.42L331.94 535.96L330.5 535.53L328.1 535.53L325.81 535.53L323.92 535.81L322.78 536.13L324.28 536.51Z" id="a8VSxQhlf"></path><path d="M332.06 529.12L334.16 530.1L337.98 530.61L339.28 530.78L344.1 529.78L346.37 528.6L346.37 532.05L344.47 532.89L339.49 533.98L335.05 533.64L332.18 532.87L332.06 529.12Z" id="c2YjqyzZ76"></path><path d="M334.3 530.29L339.84 530.95L344.31 530.03L346.34 528.62L344.08 527.31L340.31 527.3L336.71 527.3L333.74 528.14L331.94 529.13L334.3 530.29Z" id="nuZAWWRN"></path><path d="M332.89 533.24L332.8 529.59L334.27 530.1L334.26 533.55L332.89 533.24Z" id="b5eXHNhCpP"></path><path d="M335.28 533.73L335.18 530.39L336.65 530.58L336.65 533.73L335.28 533.73Z" id="a4Je2rFAQp"></path><path d="M337.43 533.82L337.34 530.64L338.8 530.83L338.8 533.98L337.43 533.82Z" id="b3uxTgbriR"></path><path d="M341.38 533.64L341.49 530.64L340.02 530.83L340.02 533.98L341.38 533.64Z" id="a1hct2c75"></path><path d="M343.77 533.13L343.88 530.13L342.41 530.32L342.4 533.47L343.77 533.13Z" id="aGwEhAEgl"></path><path d="M346.14 532.28L346.04 528.83L344.77 529.61L344.77 532.78L346.14 532.28Z" id="bMvtA17A6"></path><path d="M336.22 529.29L339.74 529.51L342.58 529.21L343.88 528.75L342.44 528.32L340.04 528.32L337.75 528.32L335.86 528.59L334.72 528.91L336.22 529.29Z" id="a2TinUSNrD"></path><path d="M320.61 532.47L322.71 533.45L326.54 533.95L327.83 534.12L332.66 533.11L334.92 531.93L334.92 535.38L333.02 536.23L328.05 537.32L323.61 536.98L320.73 536.23L320.61 532.47Z" id="df27Bi9mm"></path><path d="M322.86 533.64L328.39 534.29L332.86 533.37L334.89 531.95L332.62 530.64L328.86 530.64L325.26 530.64L322.29 531.49L320.49 532.48L322.86 533.64Z" id="a1hKueDBs0"></path><path d="M321.45 536.59L321.35 532.94L322.82 533.44L322.82 536.9L321.45 536.59Z" id="bniRAUHpV"></path><path d="M323.84 537.07L323.74 533.73L325.2 533.93L325.2 537.07L323.84 537.07Z" id="bMNhnHX5V"></path><path d="M325.99 537.17L325.89 533.98L327.36 534.17L327.36 537.32L325.99 537.17Z" id="a196FEtm8V"></path><path d="M329.94 536.97L330.04 533.98L328.58 534.17L328.58 537.32L329.94 536.97Z" id="g1Z8mTrdLy"></path><path d="M332.33 536.46L332.43 533.47L330.96 533.66L330.96 536.8L332.33 536.46Z" id="a1kQVyxRgE"></path><path d="M334.69 535.61L334.59 532.16L333.32 532.94L333.32 536.11L334.69 535.61Z" id="b188lKkS2x"></path><path d="M324.77 532.64L328.29 532.85L331.13 532.55L332.43 532.08L330.99 531.66L328.59 531.66L326.3 531.66L324.41 531.93L323.27 532.26L324.77 532.64Z" id="a1gYwlQDW"></path><path d="M320.12 528.41L322.22 529.39L326.05 529.89L327.34 530.06L332.17 529.05L334.43 527.87L334.43 531.33L332.53 532.17L327.56 533.26L323.12 532.93L320.24 532.17L320.12 528.41Z" id="k4pFENf5jJ"></path><path d="M322.37 529.58L327.9 530.23L332.37 529.31L334.4 527.89L332.13 526.58L328.37 526.58L324.77 526.58L321.8 527.43L320 528.43L322.37 529.58Z" id="a2JdFe5sH4"></path><path d="M320.96 532.53L320.86 528.89L322.33 529.39L322.33 532.84L320.96 532.53Z" id="aHg8AlcSP"></path><path d="M323.35 533.02L323.25 529.68L324.71 529.87L324.71 533.02L323.35 533.02Z" id="gAHs1G0EU"></path><path d="M325.5 533.11L325.4 529.92L326.87 530.12L326.87 533.26L325.5 533.11Z" id="a1TOhRVxi"></path><path d="M329.45 532.92L329.55 529.92L328.08 530.12L328.08 533.26L329.45 532.92Z" id="bSb7hnG6R"></path><path d="M331.84 532.4L331.94 529.41L330.47 529.6L330.47 532.75L331.84 532.4Z" id="i4rOyY2BkL"></path><path d="M334.2 531.55L334.1 528.1L332.83 528.89L332.83 532.05L334.2 531.55Z" id="b1Sg4brYsE"></path><path d="M324.28 528.58L327.8 528.79L330.64 528.49L331.94 528.03L330.5 527.6L328.1 527.6L325.81 527.6L323.92 527.88L322.78 528.2L324.28 528.58Z" id="a6SgS1VWa"></path><path d="M319.46 524.17L321.55 525.15L325.38 525.65L326.67 525.82L331.5 524.81L333.76 523.63L333.76 527.09L331.86 527.93L326.89 529.02L322.45 528.69L319.57 527.93L319.46 524.17Z" id="a2vbhHIod"></path><path d="M321.7 525.34L327.23 525.99L331.7 525.07L333.73 523.65L331.46 522.34L327.7 522.34L324.1 522.34L321.13 523.19L319.33 524.19L321.7 525.34Z" id="a8K32bdb0"></path><path d="M320.29 528.29L320.19 524.65L321.66 525.15L321.66 528.6L320.29 528.29Z" id="ap5WvJKJg"></path><path d="M322.68 528.78L322.58 525.44L324.04 525.63L324.04 528.78L322.68 528.78Z" id="b6dcDTAng"></path><path d="M324.83 528.87L324.73 525.68L326.2 525.88L326.2 529.02L324.83 528.87Z" id="b5pEHJXob4"></path><path d="M328.78 528.68L328.88 525.68L327.42 525.88L327.42 529.02L328.78 528.68Z" id="bqFZGt9dE"></path><path d="M331.17 528.16L331.27 525.17L329.8 525.36L329.8 528.51L331.17 528.16Z" id="b7Q7wW5bY"></path><path d="M333.53 527.31L333.43 523.86L332.16 524.65L332.16 527.81L333.53 527.31Z" id="a1SFa0SmxR"></path><path d="M323.61 524.34L327.13 524.55L329.98 524.25L331.27 523.79L329.83 523.36L327.43 523.36L325.14 523.36L323.25 523.64L322.11 523.96L323.61 524.34Z" id="mi0IfWXFQ"></path><path d="M320.4 520.11L322.49 521.09L326.32 521.6L327.61 521.77L332.44 520.75L334.71 519.58L334.71 523.03L332.81 523.87L327.83 524.97L323.39 524.63L320.52 523.87L320.4 520.11Z" id="byiFClydF"></path><path d="M322.64 521.28L328.18 521.93L332.64 521.01L334.68 519.59L332.41 518.29L328.64 518.29L325.04 518.29L322.08 519.13L320.28 520.13L322.64 521.28Z" id="a2xtvazh4m"></path><path d="M321.24 524.24L321.14 520.59L322.6 521.09L322.6 524.54L321.24 524.24Z" id="bdiSaLb6C"></path><path d="M323.62 524.72L323.52 521.38L324.99 521.57L324.99 524.72L323.62 524.72Z" id="aQdy2uPsc"></path><path d="M325.77 524.81L325.67 521.63L327.14 521.82L327.14 524.97L325.77 524.81Z" id="b45vn8SpFa"></path><path d="M329.73 524.62L329.83 521.63L328.36 521.82L328.36 524.97L329.73 524.62Z" id="d1jUxShaso"></path><path d="M332.11 524.11L332.21 521.11L330.75 521.3L330.75 524.45L332.11 524.11Z" id="a1rMi2FG8x"></path><path d="M334.48 523.26L334.38 519.8L333.11 520.59L333.11 523.76L334.48 523.26Z" id="b2FkRJE63k"></path><path d="M324.56 520.28L328.08 520.49L330.92 520.19L332.21 519.73L330.77 519.3L328.38 519.3L326.09 519.3L324.2 519.58L323.05 519.91L324.56 520.28Z" id="eeXZIR0Xi"></path><path d="M320.12 515.69L322.22 516.67L326.05 517.17L327.34 517.34L332.17 516.33L334.43 515.15L334.43 518.61L332.53 519.45L327.56 520.54L323.12 520.21L320.24 519.45L320.12 515.69Z" id="pIogV9wzh"></path><path d="M322.37 516.86L327.9 517.51L332.37 516.59L334.4 515.17L332.13 513.87L328.37 513.87L324.77 513.87L321.8 514.71L320 515.71L322.37 516.86Z" id="aW0E89b7R"></path><path d="M320.96 519.81L320.86 516.17L322.33 516.67L322.33 520.12L320.96 519.81Z" id="c2yMpHK8g"></path><path d="M323.35 520.3L323.25 516.96L324.71 517.15L324.71 520.3L323.35 520.3Z" id="a2FAUQTggE"></path><path d="M325.5 520.39L325.4 517.2L326.87 517.4L326.87 520.54L325.5 520.39Z" id="b1ky7zAFww"></path><path d="M329.45 520.2L329.55 517.2L328.08 517.4L328.08 520.54L329.45 520.2Z" id="awrmgo0qp"></path><path d="M331.84 519.68L331.94 516.69L330.47 516.88L330.47 520.03L331.84 519.68Z" id="a7g9K969M"></path><path d="M334.2 518.84L334.1 515.38L332.83 516.17L332.83 519.33L334.2 518.84Z" id="bRLXqBoVu"></path><path d="M324.28 515.86L327.8 516.07L330.64 515.77L331.94 515.31L330.5 514.88L328.1 514.88L325.81 514.88L323.92 515.16L322.78 515.48L324.28 515.86Z" id="b1Ylum9YSZ"></path><path d="M319.67 511.45L321.76 512.43L325.59 512.93L326.88 513.1L331.71 512.09L333.98 510.91L333.98 514.37L332.08 515.21L327.1 516.3L322.67 515.97L319.79 515.21L319.67 511.45Z" id="a1REt8zgAQ"></path><path d="M321.91 512.62L327.45 513.27L331.91 512.35L333.95 510.93L331.68 509.63L327.91 509.63L324.31 509.63L321.35 510.47L319.55 511.47L321.91 512.62Z" id="bqqqTQ0j0"></path><path d="M320.51 515.58L320.41 511.93L321.87 512.43L321.87 515.88L320.51 515.58Z" id="d26gQNjzID"></path><path d="M322.89 516.06L322.79 512.72L324.26 512.91L324.26 516.06L322.89 516.06Z" id="b14cFir4oQ"></path><path d="M325.05 516.15L324.95 512.97L326.41 513.16L326.41 516.3L325.05 516.15Z" id="b2N4GBTpIR"></path><path d="M329 515.96L329.1 512.97L327.63 513.16L327.63 516.3L329 515.96Z" id="e4x7AYVSAA"></path><path d="M331.38 515.44L331.48 512.45L330.02 512.64L330.02 515.79L331.38 515.44Z" id="b16WyFuyoJ"></path><path d="M333.75 514.6L333.65 511.14L332.38 511.93L332.38 515.1L333.75 514.6Z" id="c1zfRfjOMl"></path><path d="M323.83 511.62L327.35 511.83L330.19 511.53L331.48 511.07L330.04 510.64L327.65 510.64L325.36 510.64L323.47 510.92L322.32 511.24L323.83 511.62Z" id="ffHwtxO2l"></path><path d="M305.24 537.63L307.33 538.61L311.16 539.11L312.45 539.28L317.28 538.27L319.55 537.09L319.55 540.55L317.65 541.39L312.67 542.48L308.23 542.15L305.36 541.39L305.24 537.63Z" id="a1mc5WNvaS"></path><path d="M307.48 538.8L313.01 539.45L317.48 538.53L319.51 537.11L317.25 535.81L313.48 535.81L309.88 535.81L306.91 536.65L305.11 537.65L307.48 538.8Z" id="g3TSRx9fYL"></path><path d="M306.07 541.75L305.97 538.11L307.44 538.61L307.44 542.06L306.07 541.75Z" id="gvHhK0F6V"></path><path d="M308.46 542.24L308.36 538.9L309.83 539.09L309.83 542.24L308.46 542.24Z" id="b2ehlUwUfh"></path><path d="M310.61 542.33L310.51 539.14L311.98 539.34L311.98 542.48L310.61 542.33Z" id="b1Fbfn4RfH"></path><path d="M314.56 542.14L314.66 539.14L313.2 539.34L313.2 542.48L314.56 542.14Z" id="e1bmF1k2bv"></path><path d="M316.95 541.62L317.05 538.63L315.58 538.82L315.58 541.97L316.95 541.62Z" id="g8tbG4mPJz"></path><path d="M319.31 540.78L319.21 537.32L317.95 538.11L317.95 541.27L319.31 540.78Z" id="boJTowGlD"></path><path d="M309.4 537.8L312.92 538.01L315.76 537.71L317.05 537.25L315.61 536.82L313.21 536.82L310.92 536.82L309.04 537.1L307.89 537.42L309.4 537.8Z" id="i2rQyR52iw"></path><path d="M305.24 533.39L307.33 534.37L311.16 534.87L312.45 535.04L317.28 534.03L319.55 532.85L319.55 536.31L317.65 537.15L312.67 538.24L308.23 537.91L305.36 537.15L305.24 533.39Z" id="aaoOvJblV"></path><path d="M307.48 534.56L313.01 535.21L317.48 534.29L319.51 532.87L317.25 531.57L313.48 531.57L309.88 531.57L306.91 532.41L305.11 533.41L307.48 534.56Z" id="e1iXIppuKe"></path><path d="M306.07 537.51L305.97 533.87L307.44 534.37L307.44 537.82L306.07 537.51Z" id="f1SYMQf7wJ"></path><path d="M308.46 538L308.36 534.66L309.83 534.85L309.83 538L308.46 538Z" id="d2ekRyumMl"></path><path d="M310.61 538.09L310.51 534.91L311.98 535.1L311.98 538.24L310.61 538.09Z" id="fbJW80XNm"></path><path d="M314.56 537.9L314.66 534.91L313.2 535.1L313.2 538.24L314.56 537.9Z" id="bwlzZZnWR"></path><path d="M316.95 537.38L317.05 534.39L315.58 534.58L315.58 537.73L316.95 537.38Z" id="bmgNz4dqA"></path><path d="M319.31 536.54L319.21 533.08L317.95 533.87L317.95 537.04L319.31 536.54Z" id="b1mud9Ksrs"></path><path d="M309.4 533.56L312.92 533.77L315.76 533.47L317.05 533.01L315.61 532.58L313.21 532.58L310.92 532.58L309.04 532.86L307.89 533.18L309.4 533.56Z" id="c2ffz8lHD4"></path><path d="M304.29 529.13L306.39 530.11L310.22 530.61L311.51 530.78L316.34 529.77L318.6 528.59L318.6 532.04L316.7 532.89L311.73 533.98L307.29 533.64L304.41 532.89L304.29 529.13Z" id="aE3zmoeNM"></path><path d="M306.54 530.3L312.07 530.95L316.54 530.03L318.57 528.61L316.3 527.3L312.54 527.3L308.94 527.3L305.97 528.15L304.17 529.14L306.54 530.3Z" id="bluvJn7uw"></path><path d="M305.13 533.25L305.03 529.6L306.5 530.1L306.5 533.56L305.13 533.25Z" id="c1aii3onF"></path><path d="M307.52 533.73L307.42 530.39L308.88 530.59L308.88 533.73L307.52 533.73Z" id="apHFfTHoE"></path><path d="M309.67 533.83L309.57 530.64L311.03 530.83L311.03 533.98L309.67 533.83Z" id="c27ORp3B3d"></path><path d="M313.62 533.64L313.72 530.64L312.25 530.83L312.25 533.98L313.62 533.64Z" id="a1rbR6bIDD"></path><path d="M316.01 533.12L316.11 530.13L314.64 530.32L314.64 533.47L316.01 533.12Z" id="b1k1p2Nx0d"></path><path d="M318.37 532.27L318.27 528.82L317 529.6L317 532.77L318.37 532.27Z" id="bBm3eBODp"></path><path d="M308.45 529.3L311.97 529.51L314.81 529.21L316.11 528.74L314.67 528.32L312.27 528.32L309.98 528.32L308.09 528.59L306.95 528.92L308.45 529.3Z" id="dlOLsk42z"></path><path d="M305.24 525.79L307.33 526.77L311.16 527.27L312.45 527.44L317.28 526.43L319.55 525.25L319.55 528.7L317.65 529.55L312.67 530.64L308.23 530.3L305.36 529.55L305.24 525.79Z" id="d11VRTlrBa"></path><path d="M307.48 526.96L313.01 527.61L317.48 526.69L319.51 525.27L317.25 523.96L313.48 523.96L309.88 523.96L306.91 524.81L305.11 525.8L307.48 526.96Z" id="a17qr1h6Qx"></path><path d="M306.07 529.91L305.97 526.27L307.44 526.76L307.44 530.22L306.07 529.91Z" id="i3xl9JZmNv"></path><path d="M308.46 530.39L308.36 527.06L309.83 527.25L309.83 530.39L308.46 530.39Z" id="c1vvSQIgiX"></path><path d="M310.61 530.49L310.51 527.3L311.98 527.49L311.98 530.64L310.61 530.49Z" id="bzZYEgylq"></path><path d="M314.56 530.3L314.66 527.3L313.2 527.49L313.2 530.64L314.56 530.3Z" id="c1qWtjHDXd"></path><path d="M316.95 529.78L317.05 526.79L315.58 526.98L315.58 530.13L316.95 529.78Z" id="ao9uZVrE9"></path><path d="M319.31 528.93L319.21 525.48L317.95 526.27L317.95 529.43L319.31 528.93Z" id="cGpYOaLNW"></path><path d="M309.4 525.96L312.92 526.17L315.76 525.87L317.05 525.41L315.61 524.98L313.21 524.98L310.92 524.98L309.04 525.26L307.89 525.58L309.4 525.96Z" id="a1gyY2HKdQ"></path><path d="M290.8 537.63L292.9 538.61L296.73 539.11L298.02 539.28L302.85 538.27L305.11 537.09L305.11 540.55L303.21 541.39L298.24 542.48L293.8 542.15L290.92 541.39L290.8 537.63Z" id="a5RKKd8Qw1"></path><path d="M293.05 538.8L298.58 539.45L303.05 538.53L305.08 537.11L302.81 535.81L299.05 535.81L295.45 535.81L292.48 536.65L290.68 537.65L293.05 538.8Z" id="c12IIU6A5e"></path><path d="M291.64 541.75L291.54 538.11L293.01 538.61L293.01 542.06L291.64 541.75Z" id="a2gCUmyn4m"></path><path d="M294.03 542.24L293.93 538.9L295.39 539.09L295.39 542.24L294.03 542.24Z" id="cTLbjS7f"></path><path d="M296.18 542.33L296.08 539.14L297.55 539.34L297.55 542.48L296.18 542.33Z" id="e3MXPaxa4t"></path><path d="M300.13 542.14L300.23 539.14L298.76 539.34L298.76 542.48L300.13 542.14Z" id="b1qysWen5y"></path><path d="M302.52 541.62L302.62 538.63L301.15 538.82L301.15 541.97L302.52 541.62Z" id="aJZH3RW49"></path><path d="M304.88 540.78L304.78 537.32L303.51 538.11L303.51 541.27L304.88 540.78Z" id="a2GClGaNk"></path><path d="M294.96 537.8L298.48 538.01L301.32 537.71L302.62 537.25L301.18 536.82L298.78 536.82L296.49 536.82L294.6 537.1L293.46 537.42L294.96 537.8Z" id="a2y5rtaEf2"></path><path d="M308.65 487.13L304.86 491.91L299.07 492.68L299.07 495.54L304.25 494.88L308.96 491.52L312.65 487.13L316.4 484.16L320 474.74L315.37 483.89L308.96 483.89L308.65 487.13Z" id="aGtU8IQI9"></path><path d="M281.96 538.51L284.22 538.99L288.07 538.6L289.36 538.47L293.83 536.37L295.77 534.71L296.56 538.07L294.9 539.32L290.31 541.53L285.91 542.22L282.94 542.14L281.96 538.51Z" id="b2Agbl6jFJ"></path><path d="M284.41 539.14L289.95 538.5L294.08 536.58L295.74 534.73L293.23 533.98L289.57 534.85L286.06 535.67L283.37 537.17L281.85 538.56L284.41 539.14Z" id="ajrab8yBr"></path><path d="M283.72 542.34L282.79 538.81L284.33 538.96L285.12 542.32L283.72 542.34Z" id="b3dXR0Abo"></path><path d="M286.16 542.26L285.29 539.03L286.76 538.88L287.49 541.94L286.16 542.26Z" id="g1SgNGGv7E"></path><path d="M288.27 541.85L287.44 538.78L288.91 538.63L289.64 541.69L288.27 541.85Z" id="a1JJP4oS6h"></path><path d="M292.07 540.76L291.49 537.82L290.1 538.35L290.82 541.41L292.07 540.76Z" id="a1vV5BKDoF"></path><path d="M294.28 539.71L293.69 536.77L292.31 537.3L293.03 540.36L294.28 539.71Z" id="a3Sof1soPR"></path><path d="M296.38 538.34L295.49 535L294.44 536.06L295.17 539.14L296.38 538.34Z" id="b4Wj5OwMZd"></path><path d="M286.05 537.72L289.52 537.12L292.22 536.18L293.37 535.43L291.87 535.35L289.54 535.9L287.31 536.42L285.54 537.12L284.5 537.7L286.05 537.72Z" id="bItF1rgYO"></path><path d="M338.13 539.33L340.22 540.31L344.05 540.82L345.34 541L350.17 539.99L352.44 538.82L352.43 542.27L350.53 543.11L345.55 544.2L341.12 543.85L338.24 543.09L338.13 539.33Z" id="cKZ3BlW6l"></path><path d="M340.37 540.5L345.9 541.16L350.37 540.25L352.4 538.83L350.14 537.52L346.37 537.52L342.77 537.51L339.81 538.35L338 539.35L340.37 540.5Z" id="a4OEDyZ1u"></path><path d="M338.96 543.46L338.86 539.81L340.33 540.31L340.32 543.77L338.96 543.46Z" id="i3nI1wyvzl"></path><path d="M341.34 543.94L341.25 540.6L342.71 540.8L342.71 543.95L341.34 543.94Z" id="bsRVZ53pU"></path><path d="M343.5 544.04L343.4 540.85L344.87 541.05L344.86 544.2L343.5 544.04Z" id="dChA0CNTx"></path><path d="M347.45 543.85L347.55 540.86L346.09 541.05L346.08 544.2L347.45 543.85Z" id="idTiRMnKl"></path><path d="M349.83 543.34L349.94 540.35L348.47 540.54L348.47 543.69L349.83 543.34Z" id="boVNwZNX"></path><path d="M352.2 542.5L352.1 539.04L350.84 539.83L350.83 542.99L352.2 542.5Z" id="b4k3WFFose"></path><path d="M342.29 539.51L345.81 539.72L348.65 539.43L349.94 538.97L348.5 538.54L346.1 538.54L343.81 538.53L341.93 538.8L340.78 539.13L342.29 539.51Z" id="a9xQF5m7A"></path><path d="M325.55 192.52L325.56 190.17L327.43 186.75L327.44 184.33L328.92 182.8L332.37 184.36L340.53 185.74L345.77 185.16L352.64 183.5L359.93 182.69L368.54 183.03L377.24 184.33L383.57 186.94L385.23 188.68L386.54 188.9L387.1 186.08L387.69 188.03L387.1 190.84L389.21 195.52L391.75 200.64L391.73 203.39L390.29 203.19L388.81 201.26L384.5 197.44L380.23 194.71L373.54 192.42L368.83 193.02L361.31 194.44L351.76 197.78L343.16 199.66L338.85 200.35L337.46 197.78L338.85 193.98L331.76 194.44L326.63 193.66L325.55 192.52Z" id="bpEEOUn5v"></path><path d="M342.62 188.81L341.46 189.13L340.6 190.67L338.66 194.47L336.79 197.58L339.08 200.76L346.33 199.96L350.77 198.6L355.97 197.09L362.69 194.85L373.54 192.59L380.29 194.95L384.66 197.85L390.14 203.96L392.79 203.96L393.73 201.41L392.08 199.1L387.49 192L391.41 202.27L385.6 195.66L382.3 192.96L375.52 190.86L369.26 190.83L361.52 192L350.79 194.78L344.38 198.24L340.3 198.54L340.31 196.35L343.04 190.68L342.62 188.81Z" id="a3niH8mA8L"></path><path d="M380.87 222.46L391.42 227.62L401.24 233.58L402.13 235.49L401.24 238.81L399.46 241.23L397.16 241.23L390.65 236.89L379.28 228.98L378.91 226.01L380.87 222.46Z" id="d2A1tgCOq1"></path><path d="M326.76 499.27L323.9 501.82L317.39 500.98L317.39 498.91L318.3 496.92L319.55 498.35L326.76 497.37L326.76 499.27Z" id="e61V5gIkq"></path><path d="M329.96 495.92L330.86 496.37L335.2 496.92L338.46 494.48L338.46 492.58L336.38 494.84L330.17 494.84L329.96 495.92Z" id="ae8GyP0H1"></path><path d="M304.41 493.15L304.41 495.82L298.94 501.29L294.8 502.89L291.99 501.29L297.34 497.95L299.6 494.08L304.41 493.15Z" id="b1vcZbaeJS"></path><path d="M322.57 498.35L323.37 500.62L319.23 505.3L314.96 507.97L310.95 506.9L313.89 505.3L319.55 499.16L322.57 498.35Z" id="nYJlKI77X"></path><path d="M387.08 547.23L389.3 547.23L394.02 545.36L396.34 541.89L402.25 539.3L409.5 539.3L409.5 537.71L413.29 534.33L413.29 530.06L409.5 535.4L405.23 537.71L400.96 537.71L395.45 540.23L392.06 544.67L387.08 545.36L387.08 547.23Z" id="g1KEEZXIqA"></path><path d="M332.64 495.54L329.68 496.33L327.05 496.2L326.94 498.47L330.75 498.66L335.96 496.1L332.64 495.54Z" id="bgCY46up9"></path><path d="M386.97 543.75L383.35 544.92L381.13 547.61L380.08 551.81L384.48 548.07L386.51 548.07L388.61 544.92L386.97 543.75Z" id="b60AEYKN5"></path><path d="M420.04 554.91L425.02 554.91L425.64 551.43L425.64 549.39L424.25 551.43L418.52 551.81L416.67 549.92L420.04 554.91Z" id="d41qdviiP"></path><path d="M424.83 531.66L426.89 534.96L430.35 537.45L438.29 540.66L441.13 543.15L445.05 544.74L444.07 545.91L441.67 545.91L438.29 544.04L437.04 541.95L431.25 539.68L427.69 538.97L424.83 539.86L424.48 538.34L424.04 535.49L424.25 532.73L424.83 531.66Z" id="d1J62owdmH"></path><path d="M422.49 550.64L424.83 553.56L424.47 557.54L423.42 562.09L421.55 565.6L420.97 562.09L420.04 556.6L420.27 552.16L422.49 550.64Z" id="bDWwYL4DZ"></path><path d="M444.5 541.85L446.95 542.9L450.46 545.47L452.79 551.43L449.99 547.57L444.5 546.17L443.1 543.95L444.5 541.85Z" id="c4hU4UKL57"></path><path d="M397.71 558.12L397.24 555.61L397.71 553.54L399.78 553.19L401.05 555.61L402.54 551.81L404.96 553.54L404.39 554.91L406.81 556.65L404.96 558.95L400.59 560.34L397.71 562.06L397.71 558.12Z" id="c3bC4Xa3af"></path><path d="M388.03 564.71L389.41 565.18L391.14 563.45L392.06 564.14L387.68 568.63L386.53 568.29L386.99 562.06L388.03 562.41L388.03 564.71ZM388.61 566.18L387.63 565.86L387.39 567.32L388.61 566.18Z" id="a4DDSol7pH"></path><path d="M415.22 551.65L414.11 551.34L414.42 548.92L413.21 548.11L411.39 549.51L410.48 548.9L415.12 544.74L416.1 545.44L415.22 551.65ZM414.73 547.67L414.88 546L413.87 547.09L414.73 547.67Z" id="adXiGZg54"></path><path d="M431.74 549.23L430.33 547.65L429.22 548.07L429.25 550.17L428.28 550.18L428.13 544.77L429.03 544.4L432.57 548.92L431.74 549.23ZM429.86 546.66L429.11 545.52L429.08 546.95L429.86 546.66Z" id="aGDUSTGwA"></path><path d="M403.45 484.4L400.96 486L408.44 500.59L409.33 508.95L411.64 512.87L409.33 523.72L411.64 519.63L413.29 511.26L410.48 504.68L410.48 500.59L406.12 490.45L403.45 484.4Z" id="a5gN9oe8CN"></path><path d="M430.4 577.05L429.45 577.31L426 571.99L426.88 571.79L428.26 573.68L429.43 573.4L429.5 571.17L430.51 571.3L430.4 577.05ZM429.42 576.12L429.52 574.6L428.69 574.8L429.42 576.12Z" id="bMOEqbXwm"></path><path d="M430.51 560.12L432.16 560.77L433.3 558.81L432.16 556.61L429.47 555.88L426.94 554.25L426 557.07L424.25 559.63L425.31 561.99L426.94 561.99L428.73 561.36L429.47 559.63L430.51 560.12Z" id="djUjW1hJ"></path><path d="M294.59 284.33L285.63 295.97L267.12 295.97L253.09 301.26L251 307.59L242.35 321.34L236.97 327.91L241.15 344.33L247.42 339.55L247.42 332.81L257.87 320.6L254.79 332.81L256.12 340.71L263.64 332.81L269.39 326.17L272.49 317.32L280.45 307.59L279.13 317.32L280.45 326.17L289.75 317.32L303.02 304.49L298.32 322.63L303.02 330.6L301.34 337.23L304.11 349.05L304.11 361.57L309.22 370.73L311.43 380.6L306.65 392.54L312.26 404.88L318.07 411.57L326.64 408.04L324.26 392.54L325.25 370.73L321.56 349.05L327.76 313.65L321.56 301.26L313.29 291.44L306.65 271.52L301.34 278.16L294.59 284.33Z" id="d22OjRuMFP"></path><path d="M179.46 238.68L186.36 249.87L193.93 249.87L198.21 244.93L192.61 246.91L181.1 235.06L179.46 238.68Z" id="dGtaMhfg3"></path><path d="M201.17 261.05L207.75 259.08L203.8 255.13L201.17 261.05Z" id="c1lxNwnLOf"></path><path d="M216.28 263.92L212.99 265.57L198.85 265.57L197.53 297.8L177.14 342.54L181.74 350.43L203.45 319.91L200.49 341.46L203.45 349.12L211.35 343.53L222.53 327.41L241.28 327.41L255.43 302.41L245.56 299.12L232.4 312.61L225.49 311.62L235.36 287.61L229.11 286.29L221.22 283.99L214.31 273.13L216.28 263.92Z" id="a1n7uZb64o"></path><path d="M158.03 242.47L155.02 252.95L164.93 273.07L149.45 302.36L145.76 315.68L134.22 322.92L132.89 313.46L137.62 264.67L143.69 239.27L149.45 223.4L158.63 214.52L163.66 220.29L158.03 216L160.7 220.85L160.7 226.8L159.96 232.87L157.32 235.06L155.02 225.46L155.02 220.85L152.05 225.46L152.05 230.72L153.7 235.98L149.75 239.27L158.03 242.47Z" id="b5SqVBcons"></path><path d="M26.19 390L34.31 390L40.7 388L48.92 388L56.46 384.54L60.38 383.35L75.37 372.8L85.24 359.16L89.02 357.42L90.34 354.98L82.49 352.73L64.53 373.69L44.7 384.54L26.19 390Z" id="a1SnI0T5sv"></path><path d="M73.27 395.36L82.12 394.05L93.15 389.11L101.72 383.31L109.84 376.05L117.54 365.31L122.18 361.1L120.73 360.52L111.82 362.24L99.48 379.51L86.71 386.18L70.74 394.6L73.27 395.36Z" id="amwPWVfgC"></path><path d="M122.18 314.03L112.63 333.24L87.49 335.21L136.36 268.72L122.18 314.03Z" id="c1kp3mkTW"></path><path d="M164.9 215.12L170.05 218.46L170.05 227.61L162.4 263.92L159.36 254.27L163.66 221.32L164.9 215.12Z" id="g4foqMutSk"></path><path d="M201.17 263.92L201.17 273.94L201.17 298.54L188.83 326.57L174.05 326.57L174.05 339.15L160.89 352.73L164.9 341.55L163.66 322.92L150.6 346.59L135.15 350.43L144.31 298.54L152.89 293.39L152.89 261.05L160.89 255.13L170.05 239.05L171.76 220.18L179.46 232.47L201.17 263.92Z" id="c3GJhuA08D"></path><path d="M118.46 391.49L120.85 390.7L136.36 380.68L145.96 373.28L143.98 364.37L134.08 377.24L118.9 390L118.46 391.49Z" id="azL0vqG59"></path><path d="M166.46 368.8L156.13 383.11L165.83 366.74L166.46 368.8Z" id="d4mWAWkRb"></path><path d="M118.46 362.18L139.15 349.09L143.39 324.07L121.06 336L111.93 362.18L118.46 362.18Z" id="eCL4tuZXZ"></path><path d="M79.09 357.56L96.46 331.77L113.36 331.77L85.64 356.41L79.09 357.56Z" id="a1fR1Gx5cV"></path><path d="M333.31 483.63L335.96 485.43L336.2 483.17L333.76 482.54L331.45 481L333.31 483.63Z" id="ceCxR2l1J"></path><path d="M414.2 350.98L417.75 352.04L421.29 357.36L428.39 363.39L425.55 357.36L427.32 342.47L441.86 330.41L444.34 307.36L473.31 271.52L463.14 285.37L463.14 305.54L482.64 297.08L486.19 256.65L487.25 215.38L477.32 206.73L473.31 228.38L449.78 293.2L438.15 305.54L402.13 305.54L412.02 344.99L414.2 350.98Z" id="f12ymzItMZ"></path><path d="M475.23 293L488.35 301.59L488.35 320L494.02 346.54L494.02 363.39L470.62 335.9L470.62 301.59L475.23 293Z" id="h85dC9ecA"></path><path d="M450.19 358.85L443.1 353.88L449.12 299.27L456.22 308.49L459.45 289.99L474.3 329.42L474.3 343.95L472.53 377.29L460.47 358.85L456.22 331.19L450.19 358.85Z" id="ahJAUNUSU"></path><path d="M483.96 343.78L483.96 363.39L487.25 391.92L491.87 381.04L496.82 398.51L501.11 398.51L511 414.34L516.27 426.86L520.56 404.83L531.58 416.64L540.01 428.51L555.84 439.72L550.89 426.86L563.75 431.81L578.92 439.72L595.73 443.35L567.69 431.81L531.58 404.83L501.95 356.68L483.96 343.78Z" id="b6y6uIgZg4"></path><path d="M341.28 424.65L335.96 438.24L348.28 430.21L358.37 431.04L361.26 424.03L365.17 416L350.13 419.71L343.54 412.7L341.28 424.65Z" id="cDc3hWHGy"></path><path d="M326.36 413.17L338.45 391.96L326.36 404.05L326.36 413.17Z" id="blRKuvtat"></path><path d="M372.1 437.79L376.89 437.79L379.22 441.55L384.48 455.03L399.56 487.27L404.87 495.56L403.56 486.89L407.56 492.53L403.56 482.28L392.31 455.03L387.06 428.78L389.56 416.28L377.31 428.78L360.81 430.78L372.1 437.79Z" id="aciR4fFvc"></path><path d="M342.3 445.71L337.63 449.1L340.26 449.1L351.83 441.39L358.9 431.81L352.9 439.22L342.3 444.34L342.3 445.71Z" id="b1N34jgBw9"></path><path d="M362.64 419.47L358.9 417.89L369.25 403.74L362.64 419.47Z" id="c4oJ5zlC7"></path><path d="M323.37 385.5L329.94 375.13L343.46 380.47L355.09 380.47L322.86 367.27L323.37 385.5Z" id="a6GtCEYLpd"></path><path d="M412.26 477.48L421.44 472.05L415.57 472.89L413.81 464.94L400.33 462.49L412.26 477.48Z" id="k36rhI6OJ4"></path><path d="M410.88 363.39L407.78 394.94L401.3 373.36L410.3 348.51L410.88 363.39Z" id="fohsi8GXO"></path><path d="M306.73 463L308.76 462.24L308.62 455.62L306.34 459.9L304.14 458.36L305.29 461.86L304.35 465.12L306.73 463Z" id="afyV8iZZW"></path><path d="M323.07 492.13L327.05 495.54L327.46 490.93L331.45 484.63L328.1 487.34L323.2 487.2L323.07 492.13Z" id="a2Yw4viM4G"></path><path d="M415.57 543.51L416.67 546.09L417.18 542.44L416.38 540.04L413.81 538.97L415.57 543.51Z" id="c1r8GmhYsj"></path><path d="M333.98 460.37L332.02 467.77L327.76 470.56L326.36 465.12L332.84 460.37L333.98 460.37Z" id="b1xl9ENNSm"></path><path d="M378.91 228.86L396.85 240.81L398.75 240.81L394.2 237.21L397.99 231.84L392.11 236.34L385.36 231.33L389.64 226.77L383.76 230.34L378.91 226.77L378.91 228.86Z" id="f2dX5laBqo"></path><path d="M94.13 309.17L96.23 292.06L96.23 285.06L119.79 271.52L122.18 251.88L116.5 242.47L129 242.47L116.5 218.91L132.21 222.73L136.36 235.06L94.13 309.17Z" id="c2oCepDMeS"></path><path d="M76.83 350.43L79.09 335.21L51.3 371.37L76.83 350.43Z" id="a1qsDhnSmM"></path><path d="M10.05 374.92L15.22 365.28L10.05 356.1L10.05 374.92Z" id="g1slvsv53e"></path><path d="M326.36 173.88L324.61 181.54L322.86 175.15L326.36 173.88Z" id="alrdNxPEf"></path><path d="M324.61 155.24L336.69 165.03L332.81 176.52L336.69 183.75L338.98 178.64L355.61 168.86L375 168.86L375.79 159.07L369.88 162.9L356.99 159.07L356.23 144.18L349.03 151.41L343.77 142.47L338.98 131.54L327.76 131.54L334.14 134.81L338.98 149.28L332.41 158.22L324.61 155.24Z" id="b2v3FsRvmG"></path><path d="M320 212.48L322.86 201.01L314.14 199.47L309.46 182.69L314.14 190.56L327.76 201.01L321.8 218.91L315.84 232.47L314.14 218.91L307.33 208.86L320 212.48Z" id="alUYveSA5"></path><path d="M440.18 258.81L433.37 265.2L435.93 258.81L440.18 258.81Z" id="diBcT8KIt"></path><path d="M506.61 267.96L506.61 256.05L510.44 243.71L504.91 247.54L506.61 267.96Z" id="a5yGCZ9Fef"></path><path d="M544.35 385.66L552.86 377.29L537.54 380.98L544.35 385.66Z" id="b14jZw1m4m"></path><path d="M557.12 322.26L563.5 322.26L568.18 340.56L576.27 346.94L564.78 354.18L562.23 332.47L557.12 322.26Z" id="a160rjIUvJ"></path><path d="M584.01 408.52L601.65 386.81L589.97 385.66L584.01 408.52Z" id="dxLnjcsp0"></path><path d="M408.96 426.64L400.96 423.66L397.24 411.57L397.24 425.47L406.09 428.77L408.96 438.24L407.13 445.37L401.3 434.3L404.23 460.37L410.48 458.13L410.88 450.9L422.43 465.12L428.13 465.12L432.57 458.13L426 454.73L428.13 438.24L420.75 450.9L420.75 435.58L417.18 441.9L415.57 430.05L426 416.28L412.31 422.39L408.96 426.64Z" id="l4o9vhMSBD"></path><path d="M361.85 404.68L372.74 396.68L367.85 399.08L364.07 391.96L370.65 379.94L370.65 367.27L365.64 373.88L360.71 364.68L360.71 355.65L356.23 362.27L363.18 379.94L356.23 387.66L361.85 404.68Z" id="akiGPGGgW"></path><path d="M309.53 242.68L306.45 240.81L302.21 247.48L293.81 251.88L288.61 258.81L282.36 263.92L309.53 242.68Z" id="a2r1QaBLl9"></path><path d="M258.45 286.46L238.85 285.12L241.65 282.32L258.45 286.46Z" id="aUvQSLYgM"></path><path d="M50.37 335.21L50.37 341.55L44.77 333.76L50.37 335.21Z" id="g2xUNa5CB9"></path><path d="M423.29 207.58L436.78 162.65L487.25 120.13L450.35 74.72L372.74 77.14L406.09 101.82L386.91 135.64L397.24 165.59L409.28 203.96L397.24 215.38L398.75 227.62L397.24 238.06" id="e555TWrjZg"></path></defs><g><g><use xlink:href="#bIn4eFVV" opacity="1" fill="#45546e" fill-opacity="1"></use></g><g><use xlink:href="#a1AbV3vn" opacity="1" fill="#d5d1c3" fill-opacity="1"></use></g><g><use xlink:href="#a5nr8pbi7W" opacity="1" fill="#746739" fill-opacity="1"></use></g><g><use xlink:href="#fftCfAyRO" opacity="1" fill="#ada99d" fill-opacity="1"></use></g><g><use xlink:href="#e4Vfy7HwP" opacity="1" fill="#edd195" fill-opacity="1"></use></g><g><use xlink:href="#c1UmcbFEmW" opacity="1" fill="#ad996d" fill-opacity="1"></use></g><g><use xlink:href="#aRvTP1QoE" opacity="1" fill="#d5d1c3" fill-opacity="1"></use></g><g><use xlink:href="#daoA4Hpc4X" opacity="1" fill="#ada99d" fill-opacity="1"></use></g><g><use xlink:href="#bq0wQUoAA" opacity="1" fill="#edd195" fill-opacity="1"></use></g><g><use xlink:href="#h1kTZrNqMw" opacity="1" fill="#97b7ee" fill-opacity="0.98"></use></g><g><use xlink:href="#h358BvI3mh" opacity="1" fill="#97b7ee" fill-opacity="1"></use></g><g><use xlink:href="#d4ifCAJn3j" opacity="1" fill="#97b7ee" fill-opacity="1"></use></g><g><use xlink:href="#be041C9v3" opacity="1" fill="#97b7ee" fill-opacity="1"></use></g><g><use xlink:href="#d1IeFAqEr" opacity="1" fill="#97b7ee" fill-opacity="1"></use></g><g><use xlink:href="#b1qRlH4Upz" opacity="1" fill="#97b7ee" fill-opacity="1"></use></g><g><use xlink:href="#d3PUTx3fZ" opacity="1" fill="#97b7ee" fill-opacity="1"></use></g><g><use xlink:href="#ejmBAC9G" opacity="1" fill="#97b7ee" fill-opacity="1"></use></g><g><use xlink:href="#e8xlIZIgG" opacity="1" fill="#6d85ad" fill-opacity="1"></use></g><g><use xlink:href="#b4wbeRyzQe" opacity="1" fill="#beeef3" fill-opacity="1"></use></g><g><use xlink:href="#b1vlj1m2hP" opacity="1" fill="#6d85ad" fill-opacity="1"></use></g><g><use xlink:href="#b1GjLgDDOK" opacity="1" fill="#beeef3" fill-opacity="1"></use></g><g><use xlink:href="#a14jSHAltZ" opacity="1" fill="#edd195" fill-opacity="1"></use></g><g><use xlink:href="#d1pe4jDBL" opacity="1" fill="#6e6145" fill-opacity="1"></use></g><g><use xlink:href="#a3fn4i9689" opacity="1" fill="#6e6145" fill-opacity="1"></use></g><g><use xlink:href="#e5nvdAvxt" opacity="1" fill="#6e6145" fill-opacity="1"></use></g><g><use xlink:href="#j1fOK87U4" opacity="1" fill="#ad996d" fill-opacity="1"></use></g><g><use xlink:href="#c1NEFgHyp7" opacity="1" fill="#6e6145" fill-opacity="1"></use></g><g><use xlink:href="#a7zMFR9Ne" opacity="1" fill="#6e6145" fill-opacity="1"></use></g><g><g><use xlink:href="#a5tWvvBNv" opacity="1" fill="#e9e5d7" fill-opacity="1"></use></g><g><use xlink:href="#cvTFJOQ8s" opacity="1" fill="#cec9b9" fill-opacity="1"></use></g><g><use xlink:href="#ai8VpWKk0" opacity="1" fill="#50472a" fill-opacity="1"></use></g><g><use xlink:href="#b3WngLITbB" opacity="1" fill="#50472a" fill-opacity="1"></use></g><g><use xlink:href="#bkDmjaxW" opacity="1" fill="#50472a" fill-opacity="1"></use></g><g><use xlink:href="#f1HBgE2HEM" opacity="1" fill="#50472a" fill-opacity="1"></use></g><g><use xlink:href="#c1mxe2fABH" opacity="1" fill="#50472a" fill-opacity="1"></use></g><g><use xlink:href="#a7TcuwX0i" opacity="1" fill="#50472a" fill-opacity="1"></use></g><g><use xlink:href="#c57vqVFxl" opacity="1" fill="#e7e5dd" fill-opacity="1"></use></g></g><g><g><use xlink:href="#a7UXGB6qio" opacity="1" fill="#e9e5d7" fill-opacity="1"></use></g><g><use xlink:href="#a13OEV1Thb" opacity="1" fill="#cec9b9" fill-opacity="1"></use></g><g><use xlink:href="#fE6WmJkbE" opacity="1" fill="#50472a" fill-opacity="1"></use></g><g><use xlink:href="#ernChiJHj" opacity="1" fill="#50472a" fill-opacity="1"></use></g><g><use xlink:href="#f13KM7Y8SL" opacity="1" fill="#50472a" fill-opacity="1"></use></g><g><use xlink:href="#gq0g0q382" opacity="1" fill="#50472a" fill-opacity="1"></use></g><g><use xlink:href="#ci4rcmkfZ" opacity="1" fill="#50472a" fill-opacity="1"></use></g><g><use xlink:href="#d512zkofe5" opacity="1" fill="#50472a" fill-opacity="1"></use></g><g><use xlink:href="#ca5yiCthw" opacity="1" fill="#e7e5dd" fill-opacity="1"></use></g></g><g><g><use xlink:href="#cw0kX57Bx" opacity="1" fill="#e9e5d7" fill-opacity="1"></use></g><g><use xlink:href="#fym4Zrsax" opacity="1" fill="#cec9b9" fill-opacity="1"></use></g><g><use xlink:href="#a27hOi7HUI" opacity="1" fill="#50472a" fill-opacity="1"></use></g><g><use xlink:href="#a3IxKkaCDH" opacity="1" fill="#50472a" fill-opacity="1"></use></g><g><use xlink:href="#buyfftIPf" opacity="1" fill="#50472a" fill-opacity="1"></use></g><g><use xlink:href="#e6bz859GuA" opacity="1" fill="#50472a" fill-opacity="1"></use></g><g><use xlink:href="#a40QTfHKWo" opacity="1" fill="#50472a" fill-opacity="1"></use></g><g><use xlink:href="#b2iCtwTWDs" opacity="1" fill="#50472a" fill-opacity="1"></use></g><g><use xlink:href="#a8VSxQhlf" opacity="1" fill="#e7e5dd" fill-opacity="1"></use></g></g><g><g><use xlink:href="#c2YjqyzZ76" opacity="1" fill="#e9e5d7" fill-opacity="1"></use></g><g><use xlink:href="#nuZAWWRN" opacity="1" fill="#cec9b9" fill-opacity="1"></use></g><g><use xlink:href="#b5eXHNhCpP" opacity="1" fill="#50472a" fill-opacity="1"></use></g><g><use xlink:href="#a4Je2rFAQp" opacity="1" fill="#50472a" fill-opacity="1"></use></g><g><use xlink:href="#b3uxTgbriR" opacity="1" fill="#50472a" fill-opacity="1"></use></g><g><use xlink:href="#a1hct2c75" opacity="1" fill="#50472a" fill-opacity="1"></use></g><g><use xlink:href="#aGwEhAEgl" opacity="1" fill="#50472a" fill-opacity="1"></use></g><g><use xlink:href="#bMvtA17A6" opacity="1" fill="#50472a" fill-opacity="1"></use></g><g><use xlink:href="#a2TinUSNrD" opacity="1" fill="#e7e5dd" fill-opacity="1"></use></g></g><g><g><use xlink:href="#df27Bi9mm" opacity="1" fill="#e9e5d7" fill-opacity="1"></use></g><g><use xlink:href="#a1hKueDBs0" opacity="1" fill="#cec9b9" fill-opacity="1"></use></g><g><use xlink:href="#bniRAUHpV" opacity="1" fill="#50472a" fill-opacity="1"></use></g><g><use xlink:href="#bMNhnHX5V" opacity="1" fill="#50472a" fill-opacity="1"></use></g><g><use xlink:href="#a196FEtm8V" opacity="1" fill="#50472a" fill-opacity="1"></use></g><g><use xlink:href="#g1Z8mTrdLy" opacity="1" fill="#50472a" fill-opacity="1"></use></g><g><use xlink:href="#a1kQVyxRgE" opacity="1" fill="#50472a" fill-opacity="1"></use></g><g><use xlink:href="#b188lKkS2x" opacity="1" fill="#50472a" fill-opacity="1"></use></g><g><use xlink:href="#a1gYwlQDW" opacity="1" fill="#e7e5dd" fill-opacity="1"></use></g></g><g><g><use xlink:href="#k4pFENf5jJ" opacity="1" fill="#e9e5d7" fill-opacity="1"></use></g><g><use xlink:href="#a2JdFe5sH4" opacity="1" fill="#cec9b9" fill-opacity="1"></use></g><g><use xlink:href="#aHg8AlcSP" opacity="1" fill="#50472a" fill-opacity="1"></use></g><g><use xlink:href="#gAHs1G0EU" opacity="1" fill="#50472a" fill-opacity="1"></use></g><g><use xlink:href="#a1TOhRVxi" opacity="1" fill="#50472a" fill-opacity="1"></use></g><g><use xlink:href="#bSb7hnG6R" opacity="1" fill="#50472a" fill-opacity="1"></use></g><g><use xlink:href="#i4rOyY2BkL" opacity="1" fill="#50472a" fill-opacity="1"></use></g><g><use xlink:href="#b1Sg4brYsE" opacity="1" fill="#50472a" fill-opacity="1"></use></g><g><use xlink:href="#a6SgS1VWa" opacity="1" fill="#e7e5dd" fill-opacity="1"></use></g></g><g><g><use xlink:href="#a2vbhHIod" opacity="1" fill="#e9e5d7" fill-opacity="1"></use></g><g><use xlink:href="#a8K32bdb0" opacity="1" fill="#cec9b9" fill-opacity="1"></use></g><g><use xlink:href="#ap5WvJKJg" opacity="1" fill="#50472a" fill-opacity="1"></use></g><g><use xlink:href="#b6dcDTAng" opacity="1" fill="#50472a" fill-opacity="1"></use></g><g><use xlink:href="#b5pEHJXob4" opacity="1" fill="#50472a" fill-opacity="1"></use></g><g><use xlink:href="#bqFZGt9dE" opacity="1" fill="#50472a" fill-opacity="1"></use></g><g><use xlink:href="#b7Q7wW5bY" opacity="1" fill="#50472a" fill-opacity="1"></use></g><g><use xlink:href="#a1SFa0SmxR" opacity="1" fill="#50472a" fill-opacity="1"></use></g><g><use xlink:href="#mi0IfWXFQ" opacity="1" fill="#e7e5dd" fill-opacity="1"></use></g></g><g><g><use xlink:href="#byiFClydF" opacity="1" fill="#e9e5d7" fill-opacity="1"></use></g><g><use xlink:href="#a2xtvazh4m" opacity="1" fill="#cec9b9" fill-opacity="1"></use></g><g><use xlink:href="#bdiSaLb6C" opacity="1" fill="#50472a" fill-opacity="1"></use></g><g><use xlink:href="#aQdy2uPsc" opacity="1" fill="#50472a" fill-opacity="1"></use></g><g><use xlink:href="#b45vn8SpFa" opacity="1" fill="#50472a" fill-opacity="1"></use></g><g><use xlink:href="#d1jUxShaso" opacity="1" fill="#50472a" fill-opacity="1"></use></g><g><use xlink:href="#a1rMi2FG8x" opacity="1" fill="#50472a" fill-opacity="1"></use></g><g><use xlink:href="#b2FkRJE63k" opacity="1" fill="#50472a" fill-opacity="1"></use></g><g><use xlink:href="#eeXZIR0Xi" opacity="1" fill="#e7e5dd" fill-opacity="1"></use></g></g><g><g><use xlink:href="#pIogV9wzh" opacity="1" fill="#e9e5d7" fill-opacity="1"></use></g><g><use xlink:href="#aW0E89b7R" opacity="1" fill="#cec9b9" fill-opacity="1"></use></g><g><use xlink:href="#c2yMpHK8g" opacity="1" fill="#50472a" fill-opacity="1"></use></g><g><use xlink:href="#a2FAUQTggE" opacity="1" fill="#50472a" fill-opacity="1"></use></g><g><use xlink:href="#b1ky7zAFww" opacity="1" fill="#50472a" fill-opacity="1"></use></g><g><use xlink:href="#awrmgo0qp" opacity="1" fill="#50472a" fill-opacity="1"></use></g><g><use xlink:href="#a7g9K969M" opacity="1" fill="#50472a" fill-opacity="1"></use></g><g><use xlink:href="#bRLXqBoVu" opacity="1" fill="#50472a" fill-opacity="1"></use></g><g><use xlink:href="#b1Ylum9YSZ" opacity="1" fill="#e7e5dd" fill-opacity="1"></use></g></g><g><g><use xlink:href="#a1REt8zgAQ" opacity="1" fill="#e9e5d7" fill-opacity="1"></use></g><g><use xlink:href="#bqqqTQ0j0" opacity="1" fill="#cec9b9" fill-opacity="1"></use></g><g><use xlink:href="#d26gQNjzID" opacity="1" fill="#50472a" fill-opacity="1"></use></g><g><use xlink:href="#b14cFir4oQ" opacity="1" fill="#50472a" fill-opacity="1"></use></g><g><use xlink:href="#b2N4GBTpIR" opacity="1" fill="#50472a" fill-opacity="1"></use></g><g><use xlink:href="#e4x7AYVSAA" opacity="1" fill="#50472a" fill-opacity="1"></use></g><g><use xlink:href="#b16WyFuyoJ" opacity="1" fill="#50472a" fill-opacity="1"></use></g><g><use xlink:href="#c1zfRfjOMl" opacity="1" fill="#50472a" fill-opacity="1"></use></g><g><use xlink:href="#ffHwtxO2l" opacity="1" fill="#e7e5dd" fill-opacity="1"></use></g></g><g><g><use xlink:href="#a1mc5WNvaS" opacity="1" fill="#e9e5d7" fill-opacity="1"></use></g><g><use xlink:href="#g3TSRx9fYL" opacity="1" fill="#cec9b9" fill-opacity="1"></use></g><g><use xlink:href="#gvHhK0F6V" opacity="1" fill="#50472a" fill-opacity="1"></use></g><g><use xlink:href="#b2ehlUwUfh" opacity="1" fill="#50472a" fill-opacity="1"></use></g><g><use xlink:href="#b1Fbfn4RfH" opacity="1" fill="#50472a" fill-opacity="1"></use></g><g><use xlink:href="#e1bmF1k2bv" opacity="1" fill="#50472a" fill-opacity="1"></use></g><g><use xlink:href="#g8tbG4mPJz" opacity="1" fill="#50472a" fill-opacity="1"></use></g><g><use xlink:href="#boJTowGlD" opacity="1" fill="#50472a" fill-opacity="1"></use></g><g><use xlink:href="#i2rQyR52iw" opacity="1" fill="#e7e5dd" fill-opacity="1"></use></g></g><g><g><use xlink:href="#aaoOvJblV" opacity="1" fill="#e9e5d7" fill-opacity="1"></use></g><g><use xlink:href="#e1iXIppuKe" opacity="1" fill="#cec9b9" fill-opacity="1"></use></g><g><use xlink:href="#f1SYMQf7wJ" opacity="1" fill="#50472a" fill-opacity="1"></use></g><g><use xlink:href="#d2ekRyumMl" opacity="1" fill="#50472a" fill-opacity="1"></use></g><g><use xlink:href="#fbJW80XNm" opacity="1" fill="#50472a" fill-opacity="1"></use></g><g><use xlink:href="#bwlzZZnWR" opacity="1" fill="#50472a" fill-opacity="1"></use></g><g><use xlink:href="#bmgNz4dqA" opacity="1" fill="#50472a" fill-opacity="1"></use></g><g><use xlink:href="#b1mud9Ksrs" opacity="1" fill="#50472a" fill-opacity="1"></use></g><g><use xlink:href="#c2ffz8lHD4" opacity="1" fill="#e7e5dd" fill-opacity="1"></use></g></g><g><g><use xlink:href="#aE3zmoeNM" opacity="1" fill="#e9e5d7" fill-opacity="1"></use></g><g><use xlink:href="#bluvJn7uw" opacity="1" fill="#cec9b9" fill-opacity="1"></use></g><g><use xlink:href="#c1aii3onF" opacity="1" fill="#50472a" fill-opacity="1"></use></g><g><use xlink:href="#apHFfTHoE" opacity="1" fill="#50472a" fill-opacity="1"></use></g><g><use xlink:href="#c27ORp3B3d" opacity="1" fill="#50472a" fill-opacity="1"></use></g><g><use xlink:href="#a1rbR6bIDD" opacity="1" fill="#50472a" fill-opacity="1"></use></g><g><use xlink:href="#b1k1p2Nx0d" opacity="1" fill="#50472a" fill-opacity="1"></use></g><g><use xlink:href="#bBm3eBODp" opacity="1" fill="#50472a" fill-opacity="1"></use></g><g><use xlink:href="#dlOLsk42z" opacity="1" fill="#e7e5dd" fill-opacity="1"></use></g></g><g><g><use xlink:href="#d11VRTlrBa" opacity="1" fill="#e9e5d7" fill-opacity="1"></use></g><g><use xlink:href="#a17qr1h6Qx" opacity="1" fill="#cec9b9" fill-opacity="1"></use></g><g><use xlink:href="#i3xl9JZmNv" opacity="1" fill="#50472a" fill-opacity="1"></use></g><g><use xlink:href="#c1vvSQIgiX" opacity="1" fill="#50472a" fill-opacity="1"></use></g><g><use xlink:href="#bzZYEgylq" opacity="1" fill="#50472a" fill-opacity="1"></use></g><g><use xlink:href="#c1qWtjHDXd" opacity="1" fill="#50472a" fill-opacity="1"></use></g><g><use xlink:href="#ao9uZVrE9" opacity="1" fill="#50472a" fill-opacity="1"></use></g><g><use xlink:href="#cGpYOaLNW" opacity="1" fill="#50472a" fill-opacity="1"></use></g><g><use xlink:href="#a1gyY2HKdQ" opacity="1" fill="#e7e5dd" fill-opacity="1"></use></g></g><g><g><use xlink:href="#a5RKKd8Qw1" opacity="1" fill="#e9e5d7" fill-opacity="1"></use></g><g><use xlink:href="#c12IIU6A5e" opacity="1" fill="#cec9b9" fill-opacity="1"></use></g><g><use xlink:href="#a2gCUmyn4m" opacity="1" fill="#50472a" fill-opacity="1"></use></g><g><use xlink:href="#cTLbjS7f" opacity="1" fill="#50472a" fill-opacity="1"></use></g><g><use xlink:href="#e3MXPaxa4t" opacity="1" fill="#50472a" fill-opacity="1"></use></g><g><use xlink:href="#b1qysWen5y" opacity="1" fill="#50472a" fill-opacity="1"></use></g><g><use xlink:href="#aJZH3RW49" opacity="1" fill="#50472a" fill-opacity="1"></use></g><g><use xlink:href="#a2GClGaNk" opacity="1" fill="#50472a" fill-opacity="1"></use></g><g><use xlink:href="#a2y5rtaEf2" opacity="1" fill="#e7e5dd" fill-opacity="1"></use></g></g><g><use xlink:href="#aGtU8IQI9" opacity="1" fill="#ad996d" fill-opacity="1"></use></g><g><g><use xlink:href="#b2Agbl6jFJ" opacity="1" fill="#e9e5d7" fill-opacity="1"></use></g><g><use xlink:href="#ajrab8yBr" opacity="1" fill="#cec9b9" fill-opacity="1"></use></g><g><use xlink:href="#b3dXR0Abo" opacity="1" fill="#50472a" fill-opacity="1"></use></g><g><use xlink:href="#g1SgNGGv7E" opacity="1" fill="#50472a" fill-opacity="1"></use></g><g><use xlink:href="#a1JJP4oS6h" opacity="1" fill="#50472a" fill-opacity="1"></use></g><g><use xlink:href="#a1vV5BKDoF" opacity="1" fill="#50472a" fill-opacity="1"></use></g><g><use xlink:href="#a3Sof1soPR" opacity="1" fill="#50472a" fill-opacity="1"></use></g><g><use xlink:href="#b4Wj5OwMZd" opacity="1" fill="#50472a" fill-opacity="1"></use></g><g><use xlink:href="#bItF1rgYO" opacity="1" fill="#e7e5dd" fill-opacity="1"></use></g></g><g><g><use xlink:href="#cKZ3BlW6l" opacity="1" fill="#e9e5d7" fill-opacity="1"></use></g><g><use xlink:href="#a4OEDyZ1u" opacity="1" fill="#cec9b9" fill-opacity="1"></use></g><g><use xlink:href="#i3nI1wyvzl" opacity="1" fill="#50472a" fill-opacity="1"></use></g><g><use xlink:href="#bsRVZ53pU" opacity="1" fill="#50472a" fill-opacity="1"></use></g><g><use xlink:href="#dChA0CNTx" opacity="1" fill="#50472a" fill-opacity="1"></use></g><g><use xlink:href="#idTiRMnKl" opacity="1" fill="#50472a" fill-opacity="1"></use></g><g><use xlink:href="#boVNwZNX" opacity="1" fill="#50472a" fill-opacity="1"></use></g><g><use xlink:href="#b4k3WFFose" opacity="1" fill="#50472a" fill-opacity="1"></use></g><g><use xlink:href="#a9xQF5m7A" opacity="1" fill="#e7e5dd" fill-opacity="1"></use></g></g><g><g><use xlink:href="#bpEEOUn5v" opacity="1" fill="#475e84" fill-opacity="1"></use></g><g><use xlink:href="#a3niH8mA8L" opacity="1" fill="#ad996d" fill-opacity="1"></use></g></g><g><use xlink:href="#d2A1tgCOq1" opacity="1" fill="#746739" fill-opacity="1"></use></g><g><use xlink:href="#e61V5gIkq" opacity="1" fill="#ad996d" fill-opacity="1"></use></g><g><use xlink:href="#ae8GyP0H1" opacity="1" fill="#ad996d" fill-opacity="1"></use></g><g><use xlink:href="#b1vcZbaeJS" opacity="1" fill="#746739" fill-opacity="1"></use></g><g><use xlink:href="#nYJlKI77X" opacity="1" fill="#746739" fill-opacity="1"></use></g><g><use xlink:href="#g1KEEZXIqA" opacity="1" fill="#ad996d" fill-opacity="1"></use></g><g><use xlink:href="#bgCY46up9" opacity="1" fill="#746739" fill-opacity="1"></use></g><g><use xlink:href="#b60AEYKN5" opacity="1" fill="#746739" fill-opacity="1"></use></g><g><use xlink:href="#d41qdviiP" opacity="1" fill="#ad996d" fill-opacity="1"></use></g><g><use xlink:href="#d1J62owdmH" opacity="1" fill="#ad996d" fill-opacity="1"></use></g><g><use xlink:href="#bDWwYL4DZ" opacity="1" fill="#746739" fill-opacity="1"></use></g><g><use xlink:href="#c4hU4UKL57" opacity="1" fill="#746739" fill-opacity="1"></use></g><g><use xlink:href="#c3bC4Xa3af" opacity="1" fill="#181710" fill-opacity="1"></use></g><g><use xlink:href="#a4DDSol7pH" opacity="1" fill="#29261b" fill-opacity="1"></use></g><g><use xlink:href="#adXiGZg54" opacity="1" fill="#29261b" fill-opacity="1"></use></g><g><use xlink:href="#aGDUSTGwA" opacity="1" fill="#99230c" fill-opacity="1"></use></g><g><use xlink:href="#a5gN9oe8CN" opacity="1" fill="#ad996d" fill-opacity="1"></use></g><g><use xlink:href="#bMOEqbXwm" opacity="1" fill="#99230c" fill-opacity="1"></use></g><g><use xlink:href="#djUjW1hJ" opacity="1" fill="#99230c" fill-opacity="1"></use></g><g><use xlink:href="#d22OjRuMFP" opacity="1" fill="#6d85ad" fill-opacity="1"></use></g><g><use xlink:href="#dGtaMhfg3" opacity="1" fill="#6d85ad" fill-opacity="1"></use></g><g><use xlink:href="#c1lxNwnLOf" opacity="1" fill="#6d85ad" fill-opacity="1"></use></g><g><use xlink:href="#a1n7uZb64o" opacity="1" fill="#6d85ad" fill-opacity="1"></use></g><g><use xlink:href="#b5SqVBcons" opacity="1" fill="#6d85ad" fill-opacity="1"></use></g><g><use xlink:href="#a1SnI0T5sv" opacity="1" fill="#6d85ad" fill-opacity="1"></use></g><g><use xlink:href="#amwPWVfgC" opacity="1" fill="#6d85ad" fill-opacity="1"></use></g><g><use xlink:href="#c1kp3mkTW" opacity="1" fill="#6d85ad" fill-opacity="1"></use></g><g><use xlink:href="#g4foqMutSk" opacity="1" fill="#6d85ad" fill-opacity="1"></use></g><g><use xlink:href="#c3GJhuA08D" opacity="1" fill="#6d85ad" fill-opacity="1"></use></g><g><use xlink:href="#azL0vqG59" opacity="1" fill="#6d85ad" fill-opacity="1"></use></g><g><use xlink:href="#d4mWAWkRb" opacity="1" fill="#6d85ad" fill-opacity="1"></use></g><g><use xlink:href="#eCL4tuZXZ" opacity="1" fill="#6d85ad" fill-opacity="1"></use></g><g><use xlink:href="#a1fR1Gx5cV" opacity="1" fill="#6d85ad" fill-opacity="1"></use></g><g><use xlink:href="#ceCxR2l1J" opacity="1" fill="#ad996d" fill-opacity="1"></use></g><g><use xlink:href="#f12ymzItMZ" opacity="1" fill="#6d85ad" fill-opacity="1"></use></g><g><use xlink:href="#h85dC9ecA" opacity="1" fill="#6d85ad" fill-opacity="1"></use></g><g><use xlink:href="#ahJAUNUSU" opacity="1" fill="#6d85ad" fill-opacity="1"></use></g><g><use xlink:href="#b6y6uIgZg4" opacity="1" fill="#6d85ad" fill-opacity="1"></use></g><g><use xlink:href="#cDc3hWHGy" opacity="1" fill="#6d85ad" fill-opacity="1"></use></g><g><use xlink:href="#blRKuvtat" opacity="1" fill="#6d85ad" fill-opacity="1"></use></g><g><use xlink:href="#aciR4fFvc" opacity="1" fill="#6d85ad" fill-opacity="1"></use></g><g><use xlink:href="#b1N34jgBw9" opacity="1" fill="#6d85ad" fill-opacity="1"></use></g><g><use xlink:href="#c4oJ5zlC7" opacity="1" fill="#6d85ad" fill-opacity="1"></use></g><g><use xlink:href="#a6GtCEYLpd" opacity="1" fill="#6d85ad" fill-opacity="1"></use></g><g><use xlink:href="#k36rhI6OJ4" opacity="1" fill="#6d85ad" fill-opacity="1"></use></g><g><use xlink:href="#fohsi8GXO" opacity="1" fill="#6d85ad" fill-opacity="1"></use></g><g><use xlink:href="#afyV8iZZW" opacity="1" fill="#ad996d" fill-opacity="1"></use></g><g><use xlink:href="#a2Yw4viM4G" opacity="1" fill="#ad996d" fill-opacity="1"></use></g><g><use xlink:href="#c1r8GmhYsj" opacity="1" fill="#ad996d" fill-opacity="1"></use></g><g><use xlink:href="#b1xl9ENNSm" opacity="1" fill="#ad996d" fill-opacity="1"></use></g><g><use xlink:href="#f2dX5laBqo" opacity="1" fill="#4a4224" fill-opacity="1"></use></g><g><use xlink:href="#c2oCepDMeS" opacity="1" fill="#8fecf7" fill-opacity="1"></use></g><g><use xlink:href="#a1qsDhnSmM" opacity="1" fill="#8fecf7" fill-opacity="1"></use></g><g><use xlink:href="#g1slvsv53e" opacity="1" fill="#8fecf7" fill-opacity="1"></use></g><g><use xlink:href="#alrdNxPEf" opacity="1" fill="#8fecf7" fill-opacity="1"></use></g><g><use xlink:href="#b2v3FsRvmG" opacity="1" fill="#8fecf7" fill-opacity="1"></use></g><g><use xlink:href="#alUYveSA5" opacity="1" fill="#8fecf7" fill-opacity="1"></use></g><g><use xlink:href="#diBcT8KIt" opacity="1" fill="#8fecf7" fill-opacity="1"></use></g><g><use xlink:href="#a5yGCZ9Fef" opacity="1" fill="#8fecf7" fill-opacity="1"></use></g><g><use xlink:href="#b14jZw1m4m" opacity="1" fill="#8fecf7" fill-opacity="1"></use></g><g><use xlink:href="#a160rjIUvJ" opacity="1" fill="#8fecf7" fill-opacity="1"></use></g><g><use xlink:href="#dxLnjcsp0" opacity="1" fill="#8fecf7" fill-opacity="1"></use></g><g><use xlink:href="#l4o9vhMSBD" opacity="1" fill="#8fecf7" fill-opacity="1"></use></g><g><use xlink:href="#akiGPGGgW" opacity="1" fill="#8fecf7" fill-opacity="1"></use></g><g><use xlink:href="#a2r1QaBLl9" opacity="1" fill="#8fecf7" fill-opacity="1"></use></g><g><use xlink:href="#aUvQSLYgM" opacity="1" fill="#8fecf7" fill-opacity="1"></use></g><g><use xlink:href="#g2xUNa5CB9" opacity="1" fill="#8fecf7" fill-opacity="1"></use></g><g><use xlink:href="#e555TWrjZg" opacity="0.44" fill="#97999c" fill-opacity="1"></use></g></g></svg>