<?xml version="1.0" encoding="UTF-8" standalone="no"?>
<!DOCTYPE svg PUBLIC "-//W3C//DTD SVG 1.1//EN" "http://www.w3.org/Graphics/SVG/1.1/DTD/svg11.dtd">
<svg version="1.1" xmlns="http://www.w3.org/2000/svg" xmlns:xlink="http://www.w3.org/1999/xlink" preserveAspectRatio="xMidYMid meet" viewBox="0 0 640 640" width="900" height="900"><defs><path d="M178.73 225.23L223.33 176.3L263.62 207.24L313.98 179.18L350.74 165.51L404.29 192.85L413.26 232.42L404.29 267.75L431.24 440.33L423.33 471.27L376.57 495.73L289.52 495.73L189.74 479.18L216.86 423.79L188.08 325.23L182.32 261.2L178.73 225.23Z" id="a1gIWf6Yj1"></path><path d="M270.35 305.5L280.16 319.92L286.04 299.48L291.64 294.43L295.98 305.5L301.73 303.4L309.15 285.75L313.91 292.47L316.71 289.11L325.82 303.4L330.58 280.71L336.46 275.95L338 294.43L338 319.92L341.39 317.68L356.77 246.82L339.4 311.8L341.39 305.5L341.39 280.71L338 266.98L328.48 278.19L324.56 298.64L316.71 280.71L313.91 285.75L309.15 275.95L304.99 289.11L297.94 301.16L295.98 296.12L292.62 286.59L283.1 298.64L278.79 314.47L274.11 300.42L271.93 276.92L270.35 305.5Z" id="e54hicrCV0"></path><path d="M208.85 283.99L212.58 302.03L220.92 286.23L222.62 310.67L231.95 282.06L231.95 326.91L239.1 305.45L240.83 313.93L247.27 294.27L240.83 308.55L240.83 295.95L233.55 317.24L234.39 269.9L223.74 303.79L222.62 276.62L215.62 294.27L213.94 280.54L219.26 266.82L208.85 283.99Z" id="e19hOgkAR"></path><path d="M342.01 261.7L346.33 256.63L351.55 211.03L343.74 252.46L341.39 222.65L342.01 261.7Z" id="b2ddkwbvlo"></path><path d="M368.89 191.03L358.31 221.73L361.5 182.35L361.59 181.19L368.89 191.03Z" id="b4lWSXv5XC"></path><path d="M338.8 159.77L374.55 200.79L392.8 218.84L405.11 225.18L401.09 233.92L402.35 263.87L412.4 280.65L430.99 306.28L464.91 301.01L469.43 282.71L470.19 276.93L466.67 263.87L457.63 239L467.42 254.82L459.89 225.18L466.67 231.21L462.89 213.87L452.93 197.42L460.99 202.63L462.89 188.89L452.93 169.93L440.9 150.97L418.62 140.41L394.45 143.48L374.55 126.17L338.8 115.3L338.8 159.77Z" id="a1wE0L6hTV"></path><path d="M444.51 223.89L443.42 202.15L451.6 210.18L452.56 197.25L460.84 202.73L462.97 189.99L459.44 198.58L447.86 184.24L449.76 205.97L440.29 194.63L442.51 215.67L430.67 204.74L444.51 223.89Z" id="e2ppTu6R0Q"></path><path d="M391.26 219.01L404.84 225.8L403.88 228.49L409.91 228.49L418.5 219.57L400.99 214.47L387.06 188.71L374.6 201.57L391.26 219.01Z" id="f3fmiN5jvB"></path><path d="M466.65 231.02L460.31 225.78L458.93 218.74L466.65 231.02Z" id="b2inrudHaK"></path><path d="M467.13 255.16L457.62 239.02L450.72 214.61L467.13 255.16Z" id="a9BVy4zJ"></path><path d="M462.97 278.13L460.36 268.53L455.25 280.81L462.97 278.13Z" id="bxrYwWHtb"></path><path d="M401.97 263.95L406.26 269.94L426.97 269.94L418.94 268.72L404.31 262.13L401.97 243.77L401.97 263.95Z" id="iaqNOtpZz"></path><path d="M212.12 188.14L205.96 221.71L181.71 282L186.82 299.14L192.69 315.98L172.76 330.94L142.54 363.91L79.9 388.64L65.62 376.55L72.21 335.34L77.7 315.98L94.74 287.54L108.53 278.2L108.53 266.88L113.47 229.19L140.4 189.46L161.42 183.58L174.86 162.02L200.81 148.16L209.63 175.89L212.12 188.14Z" id="a2vWf9Xrh"></path><path d="M188.12 259.78L180.32 280.23L182.63 303.85L171.03 318.58L150.01 321.84L119.4 335.61L104.97 347.45L103.81 358.42L154.57 349.27L171.03 330.21L176.23 327.32L181.71 321.84L186.33 311.73L190.08 315.98L195.95 297.87L190.08 303.07L192.69 290.08L190.08 292.68L190.08 284.88L185.03 285.85L185.03 280.23L195.95 258.2L188.12 259.78Z" id="a4eGTU8Gxh"></path><path d="M107.85 266.32L107.85 278.73L117.38 290.57L121.14 283.35L124.31 289.13L127.78 279.89L132.97 285.66L134.99 281.33L138.17 285.66L138.17 267.18L137.02 278.73L133.55 270.94L131.53 281.33L128.93 267.18L124.31 283.35L124.31 269.78L117.96 284.79L116.52 276.13L110.45 249.86L107.85 266.32Z" id="bFeYUw77X"></path><path d="M212.58 183.36L183.41 183.36L201.6 162.29L212.58 183.36Z" id="a3obDqehaz"></path><path d="M69.6 370.4L79.7 366.36L73.93 364.63L71.62 358.42L69.6 370.4Z" id="a1IQCZhfms"></path><path d="M495.73 333.38L450.87 428.98L417.32 446.32L390.18 436.52L343.52 408.24L340.79 383.74L376.98 347.17L408.27 335.11L432.02 320.78L465.57 286.48L475.37 278.19L496.48 268.53L515.71 266.88L495.73 333.38Z" id="a3uEb6QXm"></path><path d="M344.04 149.99L343.15 135.68L381.27 145.24L344.04 149.99Z" id="krpVtLxIR"></path><path d="M180.32 131.45L170.81 111.38L170.81 94.36L177.49 64.27L190.56 43.18L209.71 26.58L230.68 15.34L267.58 8.22L294.67 13.39L311.38 20.08L323.24 33.15L332.96 51.08L339.65 76L350.14 74.48L359.71 84.21L359.71 116.73L353.12 125.06L342.17 129.32L333.66 128.1L333.66 108.04L333.66 94.36L327.89 86.46L325.46 79.77L326.85 67.8L320.78 43.18L313.78 28.89L296.76 16.13L264.45 11.78L236.79 18.16L218.56 24.85L194.85 47.34L182.45 66.4L180.32 94.36L188.22 121.11L180.32 131.45Z" id="dXZmATeZZ"></path><path d="M221.39 74.03L211.24 68.81L214.93 66.83L223.1 67.06L225 64.06L230.06 68.81L233.84 64.06L219.72 57.81L230.06 63.29L234.84 69.46L237.68 65.57L246.72 56.06L254.78 49.57L264.42 58.84L273.76 42.16L267.89 46.27L266.23 61.18L275.1 48.3L285.85 44.94L292.69 53.63L307.22 47.36L300.88 49.02L292.07 58.84L304.32 55.83L302.78 69.46L318.05 71.77L328.34 72.06L325.62 91.42L339.44 99.53L334.35 95.42L337.84 102.72L349.73 122.89L341.98 118.4L349.73 133.68L341.98 120.37L351.54 151.76L351.54 158.87L354.33 163.09L351.54 176.44L347.48 169.91L350.23 180.06L346.82 193.7L342.22 184.72L345.39 201.6L340.27 222.21L337.93 197.42L336.22 215.38L334.17 234.83L323.3 251.52L321.67 223.38L319.71 242.86L316.37 232.56L306.07 254.52L309.02 240.56L302.78 252.9L299.18 240.95L295.22 252.69L288.52 254.03L280.18 248.86L275.78 240.3L274.19 250.02L273.92 259.78L266.3 248.47L261.38 235.47L259.02 241.17L254.86 232.62L248.12 237.32L245.29 244.34L239.32 237.07L234.85 223.63L234.67 230.29L225.61 223.38L223.7 213.12L221.81 201.97L218.62 205.88L218.38 214.3L209.1 199.84L207.76 187.77L200.57 161.58L227.21 133.68L221.39 115.31L192.69 93.33L201.41 80.26L216.53 74.91L221.39 74.03Z" id="h2ceRknC68"></path><path d="M220.53 63.54L210.63 58.32L214.23 56.35L222.2 56.57L224.05 53.57L220.87 51.04L212.4 47.15L218.91 47.33L228.99 52.79L233.65 58.96L236.42 55.07L245.25 45.56L253.11 39.07L261.55 32.89L271.62 31.65L265.9 35.76L264.27 50.66L272.93 37.79L283.42 34.42L292.58 32.23L304.27 36.83L298.08 38.48L289.47 48.31L301.43 45.29L314.01 47.47L325.1 52.35L314.81 61.22L324.85 61.5L337.18 76.79L331.81 76.64L335.66 88.95L330.69 84.85L334.1 92.14L345.67 112.29L338.12 107.81L341.73 114.93L344.21 132.08L339.66 125.55L341.09 138.19L345.89 145.95L350.14 152.47L347.41 165.82L343.45 159.3L346.12 169.44L342.79 183.08L338.31 174.11L341.39 190.97L336.39 211.57L334.12 186.8L332.44 204.75L330.42 224.19L324.64 240.89L323.06 212.73L316.32 232.23L313.06 221.94L303 243.9L305.89 229.95L299.79 242.28L296.29 230.34L292.42 242.08L285.88 243.42L277.76 238.26L273.46 229.71L271.91 239.42L271.63 249.17L264.22 237.88L259.43 224.88L257.12 230.58L253.06 222.04L246.49 226.74L243.72 233.76L237.91 226.5L233.56 213.07L233.37 219.72L224.54 212.82L222.68 202.57L220.84 191.43L217.73 195.33L217.5 203.76L208.45 189.31L208.76 178.23L198.55 159.32L191.39 123.19L185.03 104.82L192.51 82.85L201.04 69.78L215.79 64.43L220.53 63.54Z" id="fpcCLCkHN"></path><path d="M307.73 143.12L310.7 141.27L310.8 137.54L310.85 135.85L309.75 133.29L306.56 130.54L303.76 130.47L301.98 131.27L304.06 133.61L304.48 137.36L302.18 139.44L302.07 143.3L307.73 143.12Z" id="b205szlhy"></path><path d="M308.65 142.29L311.62 140.45L311.72 136.71L311.77 135.02L310.67 132.46L307.48 129.71L304.68 129.64L302.91 130.44L304.99 132.78L305.41 136.53L303.1 138.62L303 142.47L308.65 142.29Z" id="c2oUQTwi0D"></path><path d="M220.37 126.84L217.39 127.67L212.43 127.53L217.27 131.99L220.82 129.82L224.98 135.17L230.13 138.6L242.1 135.65L234.61 140.56L231.39 142.31L224.8 141.73L227.53 144.04L238.79 145.27L244.8 140.45L251.15 135.9L253.22 129.79L257.82 126.78L261.64 124.89L261 119.34L261.89 116.15L267.34 113.02L274.13 112.39L280.05 115.18L282.38 120.75L284.05 119.98L290.66 119.51L294.68 121.09L298.1 125.9L303.58 129.6L313.78 129.88L320.76 123.36L323.12 116.09L321.03 113.7L320.94 116.94L315.2 127.03L308.68 127.51L305.13 126.1L310.46 123.97L317.18 119.75L319.16 107.74L317.6 104.69L319.42 98.58L315.26 102.24L316.81 96.54L314.63 99.33L308.63 105.15L305.7 105.33L306.09 101.98L300.72 106.37L294.17 109.25L295.83 104.45L285.51 110.58L287.65 106.4L281.46 110.03L280.22 108.86L283.23 102.79L278.28 107.46L272.93 110.23L273.95 105.28L274.45 101.1L271.87 98.15L271.77 101.55L270.65 105.19L268.7 102.38L269.01 105.14L265.77 102.7L262.91 96.32L261.59 97.86L260.92 108.33L245.84 103.06L254.56 108.94L247.69 109.53L254.39 115.09L245.03 113.92L249.84 119.03L230.71 117.84L232.27 120.9L227.52 118.41L224.94 119.78L226.71 121.64L223.73 122.78L220.51 121.47L217.44 125.66L220.37 126.84Z" id="c1Ba1S72u2"></path><path d="M226.96 126.91L229.53 122.86L234.57 119.65L243.96 119.42L248.65 123.19L249.72 127.93L246.66 133.2L238.89 136.04L230.65 136.94L225.11 132.94L223.93 128.3L226.96 126.91Z" id="aq1GFE4lE"></path><path d="M230.35 128.91L231.41 126.23L233.56 123.58L237.19 122.77L240.48 122.86L243.33 126.56L242.33 130.94L238.66 133.1L232.76 132.49L230.35 128.91Z" id="a59J4Y6WdV"></path><path d="M237.54 126.17L238.95 126.55L239.65 128.9L237.75 130.48L235.24 130.07L234.75 127.85L235.72 126.46L237.54 126.17Z" id="cbNf2Enyv"></path><path d="M295.93 112.92L298.35 109.77L302.6 107.18L305.33 106.18L310.21 106.16L315.46 106.64L318.21 108.93L317.78 113.88L315.65 119.82L308.58 124.26L302.67 124.09L300.32 121.84L295.75 119.5L294.97 114.98L295.93 112.92Z" id="c2DH8a29J"></path><path d="M301.44 112.84L303.8 110.53L306.98 110.62L309.38 110.69L312.17 112.69L312.29 116.31L310.03 118.74L307.15 120.01L303.11 119.67L300.68 116.44L300.75 114.12L301.44 112.84Z" id="b1zDkuwr9T"></path><path d="M305.14 113.62L307.34 113.23L308.5 114.96L307.78 117.09L305.31 117.36L303.99 115.74L304.02 114.5L305.14 113.62Z" id="aBvptALRs"></path><path d="M249.55 134.05L251.96 134.12L252.44 137.55L255.98 139.98L259.97 138.68L262.83 136.62L267.34 137.59L272.23 140.43L278.14 140.59L282.54 139.31L287.07 133.48L290.85 131.95L295.58 129.94L297.47 123.63L300.94 127.59L299.16 130.03L294.82 134.66L289.56 137.84L287.41 142.45L281.57 145.02L275.61 146.63L269 143.39L264.99 141.83L257.32 143.06L253.12 142.94L250.87 139.83L238.99 152.69L249.49 136.25L249.55 134.05Z" id="a3ubxS99Fh"></path><path d="M253.1 138.39L249.21 137.08L251.24 133.35L253.1 138.39Z" id="hc7wzm9ZX"></path><path d="M267.83 137.63L269.63 139.73L259.29 139.44L262.6 137.49L267.83 137.63Z" id="ex7gzt6P2"></path><path d="M294.5 132.05L294.2 130.2L287.03 133L285.54 136.45L294.5 132.05Z" id="ipGPucbEj"></path><path d="M268.81 158.53L273.94 155.77L273.53 153.71L272.05 152.22L269.04 150.09L266.6 146.36L265.29 147.57L265.1 154.32L267.8 157.9L265.98 158.81L263.48 157.78L259.82 155.02L256.43 151.07L256.93 145.77L254.95 145.72L251.86 151.66L253.08 158.09L255.53 162.38L268.81 158.53Z" id="b1qqSWBRIN"></path><path d="M266.73 170.55L260.35 172.08L256.61 169.94L248.6 168.41L243.7 168.27L244.29 182.54L246.5 173.87L256.17 185.78L252.43 173.6L265.14 187.34L263.92 183.57L267.19 172.27L270.52 184.43L275.06 173.07L276.16 179.21L288.63 184.25L292.03 174.17L298.67 161.69L304.19 170.29L304.38 163.45L307.22 160.77L313.29 167.63L315.99 171.92L321.77 164.52L323.45 151.76L320.6 142.96L306.81 149.38L299.5 158.92L289.88 160.69L277.03 167.17L266.73 170.55Z" id="hjP5QhNE"></path><path d="M296.86 148.84L298.98 146.37L299.9 144.7L298.22 141.85L295.82 140.01L293.02 139.93L293.36 141.71L294.3 144.55L293.22 146.81L293.46 149.47L296.86 148.84Z" id="a4Y3h8SnE1"></path><path d="M266.76 158.15L271.89 155.4L271.48 153.34L270.01 151.85L267 149.71L264.56 145.98L263.24 147.2L263.06 153.95L265.76 157.52L263.94 158.43L261.44 157.4L257.78 154.64L254.39 150.69L254.88 145.4L252.9 145.34L249.82 151.29L251.04 157.71L253.49 162L266.76 158.15Z" id="m2oDXZYw1w"></path><path d="M297.89 147.62L300 145.15L300.92 143.48L299.25 140.63L296.85 138.78L294.05 138.71L294.38 140.49L295.32 143.33L294.24 145.59L294.48 148.25L297.89 147.62Z" id="aadqjwaRw"></path><path d="M254.74 162.04L259.11 159.1L256.94 156.05L253.21 155.39L251.2 154L254.74 162.04Z" id="dDNTkyafE"></path><path d="M269.58 153.88L270.04 156L267.74 157.79L265.28 153.42L269.58 153.88Z" id="bCGCmThPF"></path><path d="M299.89 144.82L299.95 142.83L297.48 141.13L297.42 143.57L295.76 145.04L296.23 147.6L299.89 144.82Z" id="aSDptsoD7"></path><path d="M310.91 140.79L311.38 135.41L309.64 132.15L310.33 134.49L309.47 138.46L305.03 140L304.96 142.66L310.91 140.79Z" id="b5ZVW63XWv"></path><path d="M238.66 164.52L239.86 163.65L240.37 161.43L241.71 160.1L244.14 160.93L250.45 162.92L253.43 163L258.67 161.59L262.01 160.33L264.15 159.07L267.55 158.78L271.59 156.28L275.35 155.28L280.16 154.56L288.46 152.35L297.42 148.49L300.45 145.2L303.66 143.29L307.38 143.39L311.56 142.68L315.67 138.94L322.11 135.3L324.56 133.05L325.75 135.99L325.88 131.48L322.78 128.34L319.91 128.26L322.71 130.97L317.87 135.77L314.63 137.23L312.92 138.16L309.02 141.42L305.09 142.5L302.67 141.95L300.8 143.21L297.48 146.32L294.07 147.53L290.77 149.48L277.36 153.24L272.7 153.6L267.97 156.61L264.55 157.83L260.05 157.7L256.17 160.5L251.64 161.39L246.76 159.66L243.14 158.1L244.06 155.51L240.5 156.72L238.03 159.42L237.93 163.05L238.66 164.52Z" id="bx2nl3QBv"></path><path d="M228.64 68.75L233.5 79.14L221.36 103.85L201.55 108.82L199.89 134.42L195.22 116.73L195.63 102.15L213.39 92.98L223.34 80.83L228.64 68.75Z" id="d5ccdpdRZI"></path><path d="M210.74 58.38L220.5 63.41L228.07 65.99L225.15 60.78L212.07 57.66L210.74 58.38Z" id="a4RYEpJ4lU"></path><path d="M212.45 46.98L221.01 51.23L223.99 53.69L222.07 56.41L231.56 60.49L227.91 55.62L223.14 51L214.93 47.34L212.45 46.98Z" id="b2Az6LLSLx"></path><path d="M264.07 50.78L265.79 35.66L245.19 59.78L264.07 50.78Z" id="b2hu4gKK6f"></path><path d="M297.54 38.63L289.74 47.94L286.21 58.31L265.31 67.03L255.02 64.66L287.33 45.99L293.95 36.92L304.09 36.73L297.54 38.63Z" id="cmk6KieEv"></path><path d="M309.11 66.16L298.37 73.41L299.97 67.99L294.78 65.76L307.67 61.16L323.99 52.49L309.11 66.16Z" id="aDX0Annct"></path><path d="M316.48 75.28L322.72 74.91L329.24 74.02L336.7 76.64L316.48 75.28Z" id="b5SkrIQJs"></path><path d="M329 82.74L319.48 79.39L327.03 78.93L335.2 88.55L329 82.74Z" id="h8rV2Xs1A3"></path><path d="M337.03 107.65L328.92 104.88L318.41 90.23L317.35 81.61L325.03 94.97L345.11 111.23L337.03 107.65Z" id="fWfkzZtXL"></path><path d="M339.63 125.97L333.45 109.97L344.16 131.59L339.63 125.97Z" id="dGxyIgtUu"></path><path d="M339.13 148.8L346.53 158.45L342.27 157.26L344.71 170.61L341.79 174.49L336.57 169.25L340.14 190.68L337.09 201.48L334.12 181L326.71 219.71L325.43 207.73L316.89 222.51L313.41 214.94L308.56 228.35L307.5 224.43L299.56 234.28L297.5 224.16L290.88 237.93L288.65 233.97L287.82 240.55L283.19 238.76L272.72 225.21L268.54 240.02L261.02 221.29L257.31 224.01L254.33 218.29L242.05 227.55L237.19 217.49L233.98 208.94L231.07 215.17L228.79 213.26L222.8 195.82L222.26 188.42L218.06 189.76L215.36 197.22L212.52 192.04L212.91 177.94L198.48 159.31L208.68 177.82L208.35 189.49L217.29 203.66L217.92 194.82L220.61 191.41L224.43 213.13L233.23 220.18L233.42 213.38L237.73 226.65L243.64 233.66L246.43 226.9L253.06 221.98L256.99 230.24L259.61 224.85L263.93 237.69L271.46 249.17L272.02 238.45L273.57 229.35L277.48 238.07L286.04 243.39L292.45 241.69L296.35 230.39L299.81 241.89L305.63 230.25L302.86 243.86L313.2 222.41L316.32 231.89L322.95 213.01L324.51 240.97L330.29 224.76L333.94 187.3L336.3 210.98L341.32 191.37L338.44 173.58L342.73 182.69L346.21 169.9L343.76 159.9L347.24 165.5L348.58 159.37L341.54 150.81L339.13 148.8Z" id="d2MMOlKKpj"></path><path d="M247.65 79.67L267.27 81.96L274.06 77.45L281.49 63.53L271.48 73.03L258.65 77.76L246.45 69.24L247.65 79.67Z" id="h3rXEayxN"></path><path d="M270.43 77.35L275.85 86.9L285.5 90.66L302.72 85.77L314.38 71.78L302.26 80.16L287.04 82.51L275.93 72.79L270.43 77.35Z" id="asiwvSSCd"></path><path d="M231.04 79.31L244.44 86.69L253.85 79.94L242.68 81.28L234.86 67.2L231.04 79.31Z" id="a1sgSWc5H2"></path><path d="M205.19 373.36L212.58 373.36L224.01 370.27L256.87 370.27L270.08 377.85L282.72 378.53L281.87 373.36L266.69 361.2L258.28 356.78L227.38 356.78L210.04 361.2L205.19 373.36Z" id="aZOhbbfD9"></path><path d="M179.09 361.15L177.08 351.46L182.43 342.44L190.45 343.11L208.15 343.11L218.85 346.45L271.3 345.45L276.98 341.44L298.03 340.77L320 340.77L324.76 349.12L324.76 365.16L299.03 378.53L269.63 377.52L257.27 370.84L223.52 369.84L211.83 374.52L179.09 361.15Z" id="c4bsCsnsHc"></path><path d="M204.85 343.83L204.85 340.49L200.47 340.49L199.47 338.15L203.14 335.81L208.49 334.47L217.84 334.47L217.84 338.15L211.16 340.82L211.16 345.83L204.85 343.83Z" id="m10fvguEUd"></path><path d="M365.54 332.31L363.52 355.37L341.18 397.44L334.13 400.33L325.48 400.33L318.28 400.33L311.65 398.24L306.17 396.29L306.17 392.55L303.29 391.68L299.83 387.93L291.76 389.09L283.12 389.09L278.51 384.76L278.51 378.14L271.3 373.53L266.69 367.76L266.69 362L280.24 359.12L298.1 362L316.51 352.4L320.39 338.57L310.26 336.55L295.22 338.57L285.71 342.6L273.9 344.33L267.98 342.6L266.69 339.9L269.28 336.55L277.35 334.82L283.12 329.92L292.92 326.46L311.65 320L329.52 318.97L351.99 320.99L365.54 332.31Z" id="a1faAD4Y2Y"></path><path d="M326.05 374.46L332.16 377.85L332.16 385.83L335.89 389.4L336.91 396.19L340.79 396.7L344.72 389.4L341.21 397.64L334.31 400.33L318.18 400.33L306.27 396.19L306.27 392.56L303.23 391.57L299.36 387.78L291.75 388.96L283.1 388.96L278.17 384.41L278.55 378.19L271.06 373.27L267.2 368.17L281.74 373.27L299.9 373.27L321.46 367.49L326.05 368.85L326.05 374.46ZM315.31 396.7L329.21 393.67L313.72 394.97L315.31 396.7ZM306.92 389.61L324 386.72L305.96 388.02L306.92 389.61ZM284.34 384.69L300.26 383.25L281.74 380.21L282.75 383.25L284.34 384.69Z" id="bMugS0DbC"></path><path d="M267.2 340.93L268.37 343.06L273.98 344.93L286.03 343.06L295.2 338.82L310.29 336.64L321.16 339.21L324.6 334.63L318.59 331.92L295.69 333.89L280.23 340.93L268.78 341.79L267.2 340.93Z" id="awy44d4k0"></path><path d="M499.58 283.35L508.01 310.86L546.15 337.47L557.24 318.97L564.34 306.28L564.34 292.67L557.24 283.35L554.58 270.49L546.15 266.22L525.75 264.73L509.78 270.49L499.58 283.35Z" id="c1GKeAk9lI"></path><path d="M363.33 298.03L385.34 277.69L400.98 271.47L410.85 268.53L429.09 270.21L454.02 284.46L455.72 304.63L452.57 315.98L449.85 322.87L449.22 318.47L444.19 315.55L436.43 328.13L429.09 335.89L431.4 321.42L427.83 322.43L420.5 342.6L409.8 356.94L412.32 350.7L410.85 331.43L407.29 333.57L400.37 348.97L388 363.86L389.26 350.7L388 340.85L379.41 363.86L368.92 378.74L377.52 348.97L367.67 361.34L355.57 398.24L356.85 392.58L357.6 382.72L357.6 375.39L353.41 387.76L353.41 381.89L350.68 389.64L348.71 386.68L347 394.82L344 388.83L355.57 372.98L348.71 379.83L352.14 370.41L347 372.98L358.14 350.7L344.86 365.27L356.85 340.85L344.86 349.42L359.42 333.57L344.86 340.85L352.14 331.43L352.14 322.43L343.15 322.43L352.14 309.58L363.33 298.03Z" id="a5rJ73XuXU"></path><path d="M390.63 306.28L417.63 301.48L443.97 281.22L390.63 306.28Z" id="h1QuWKJBMR"></path><path d="M344.91 365.37L357.85 350.58L347.01 372.75L351.8 370.66L349.71 378.78L355 373.73L344.05 388.37L347.01 394.89L348.6 386.89L350.7 389.48L353.52 382.22L353.52 387.63L357.85 376.82L357.49 382.72L357.49 389L355.76 397.61L367.58 361.13L377.3 349.31L368.94 378.47L379.37 363.75L387.73 340.99L389.58 350.58L387.73 363.75L400.19 349.31L406.96 333.38L410.77 331.35L412.25 350.9L409.91 356.6L420.72 341.77L427.36 322.09L431.18 321.22L429.21 335.62L436.71 327.37L444.34 315.57L449.26 318.64L449.75 322.7L452.82 315.98L455.16 304.87L455.16 297.24L464.25 288.5L461.13 287.61L452.02 296.5L452.02 306.96L450.02 312.5L445.16 306.96L437.16 313.85L433.16 326.74L433.82 313.85L426.97 317.85L420.27 330.74L420.27 325.63L415.16 337.85L415.16 320L399.43 338.74L400.81 331.63L394.93 329.19L380.93 348.3L380.93 338.74L359.38 357.85L366.49 342.08L352.93 348.3L344.91 365.37Z" id="e1pDUm9SFI"></path><path d="M125.48 523.27L261.66 496.51L212.58 466.71L266.69 435.01L200 391.09L162.74 409.72L130.81 425.25L103.75 431.01L82.46 442.55L63.11 451.4L58.51 461.62L125.48 523.27Z" id="a14mJFqndr"></path><path d="M278.51 440.25L367.47 440.25L407.96 423.69L365.54 421.85L280.35 420.62L225.13 423.69L278.51 440.25Z" id="c13kNiyQfr"></path><path d="M275.02 428.38L279.93 435.66L277.47 445.56L268.47 448.62L261.52 445.56L258.46 435.66L265.2 428.38L275.02 428.38Z" id="bplGN4B1d"></path><path d="M258.46 435.95L261.66 445.58L269.19 448.62L277.26 445.58L279.29 436.62L275.24 442.69L267.15 442.69L263.1 439.8L261.08 433.73L258.46 435.95Z" id="ahLKGp9yg"></path><path d="M357.36 428.38L362.26 435.66L359.81 445.56L350.81 448.62L343.86 445.56L340.79 435.66L347.54 428.38L357.36 428.38Z" id="e4jxSt5vTo"></path><path d="M340.79 435.95L343.99 445.58L351.53 448.62L359.6 445.58L361.62 436.62L357.58 442.69L349.48 442.69L345.44 439.8L343.41 433.73L340.79 435.95Z" id="a4E2yZixqP"></path><path d="M305.47 426.28L310.37 433.56L307.92 443.46L298.92 446.52L291.97 443.46L288.9 433.56L295.65 426.28L305.47 426.28Z" id="b18ciRt61r"></path><path d="M288.9 433.85L292.1 443.48L299.64 446.52L307.71 443.48L309.73 434.52L305.69 440.59L297.59 440.59L293.55 437.7L291.52 431.63L288.9 433.85Z" id="i19BTd3m7"></path><path d="M330.59 422.84L335.5 430.12L333.04 440.02L324.04 443.08L317.09 440.02L314.02 430.12L320.77 422.84L330.59 422.84Z" id="e13PeW0D7i"></path><path d="M314.02 430.41L317.22 440.04L324.76 443.08L332.83 440.04L334.85 431.08L330.81 437.15L322.72 437.15L318.67 434.26L316.65 428.19L314.02 430.41Z" id="dNSYUwNWy"></path><path d="M282.65 405.14L288.9 411.31L288.45 421.5L280.23 426.28L272.81 424.64L267.85 415.55L273.03 407.08L282.65 405.14Z" id="b4viYADpu8"></path><path d="M267.91 415.83L272.95 424.64L280.93 426.14L288.25 421.56L288.46 412.38L285.69 419.12L277.76 420.72L273.22 418.69L270.04 413.13L267.91 415.83Z" id="jSXNMMWg7"></path><path d="M260.13 421.69L261.48 430.36L255.06 438.28L245.61 437.24L240.62 431.51L242.04 421.25L251.24 417.52L260.13 421.69Z" id="a2q61r9CW8"></path><path d="M241.92 421.51L240.73 431.59L246.26 437.54L254.86 438.21L260.5 430.96L254.26 434.74L246.93 431.3L244.49 426.97L245.24 420.61L241.92 421.51Z" id="f1WkmLq0F"></path><path d="M291.8 426.49L293.15 435.17L286.73 443.08L277.27 442.04L272.29 436.31L273.71 426.05L282.91 422.32L291.8 426.49Z" id="cvpdINL1y"></path><path d="M273.58 426.32L272.4 436.39L277.93 442.35L286.53 443.01L292.16 435.76L285.92 439.54L278.6 436.1L276.16 431.77L276.9 425.41L273.58 426.32Z" id="eipIwfxmU"></path><path d="M276.66 416.11L278.02 424.79L271.6 432.7L262.14 431.66L257.15 425.93L258.57 415.67L267.78 411.94L276.66 416.11Z" id="a1KJtP1Et5"></path><path d="M258.45 415.94L257.26 426.01L262.8 431.97L271.4 432.63L277.03 425.38L270.79 429.16L263.46 425.72L261.03 421.39L261.77 415.03L258.45 415.94Z" id="bWnG4x5iT"></path><path d="M306.61 417.56L315.36 418.41L321.43 426.6L318.06 435.49L311.28 438.9L301.69 434.97L300.37 425.13L306.61 417.56Z" id="b63H34nryo"></path><path d="M301.92 435.16L311.38 438.81L318.52 434.94L321.31 426.77L315.69 419.51L317.79 426.5L312.64 432.74L307.84 434.02L301.87 431.72L301.92 435.16Z" id="a1zqQKziJw"></path><path d="M334.52 421.74L343.26 422.59L349.33 430.78L345.97 439.68L339.18 443.08L329.6 439.15L328.27 429.31L334.52 421.74Z" id="awCQ2KESP"></path><path d="M329.82 439.34L339.29 442.99L346.43 439.12L349.22 430.95L343.59 423.69L345.7 430.68L340.55 436.92L335.75 438.2L329.78 435.9L329.82 439.34Z" id="c1wk578zyB"></path><path d="M314.44 400.52L320.69 406.69L320.23 416.88L312.01 421.66L304.6 420.02L299.64 410.93L304.82 402.46L314.44 400.52Z" id="a1xG9TYs6x"></path><path d="M299.7 411.21L304.73 420.02L312.72 421.52L320.03 416.94L320.25 407.76L317.48 414.51L309.55 416.1L305.01 414.07L301.83 408.52L299.7 411.21Z" id="f3uDva350"></path><path d="M363.69 416.94L372.44 417.79L378.51 425.98L375.14 434.87L368.36 438.28L358.77 434.35L357.45 424.51L363.69 416.94Z" id="dzyVMVaGx"></path><path d="M359 434.54L368.46 438.19L375.6 434.32L378.39 426.15L372.77 418.89L374.87 425.87L369.72 432.12L364.92 433.4L358.95 431.1L359 434.54Z" id="eb6sudTa2"></path><path d="M377.89 420.62L386.63 421.47L392.7 429.66L389.34 438.56L382.55 441.96L372.97 438.03L371.64 428.19L377.89 420.62Z" id="cRAhXXEva"></path><path d="M373.19 438.22L382.65 441.87L389.8 438L392.58 429.83L386.96 422.57L389.07 429.56L383.92 435.8L379.11 437.08L373.14 434.78L373.19 438.22Z" id="d4bhdIcuJT"></path><path d="M344.64 405.14L350.89 411.31L350.43 421.5L342.21 426.28L334.79 424.64L329.84 415.55L335.01 407.08L344.64 405.14Z" id="f1Chkg0rvF"></path><path d="M329.89 415.83L334.93 424.64L342.92 426.14L350.23 421.56L350.45 412.38L347.68 419.12L339.74 420.72L335.21 418.69L332.02 413.13L329.89 415.83Z" id="a5b9H1un1"></path><path d="M315.02 425.18L323.77 426.03L329.84 434.22L326.47 443.12L319.69 446.52L310.1 442.6L308.78 432.75L315.02 425.18Z" id="b1wzKzEEJW"></path><path d="M310.33 442.78L319.79 446.44L326.93 442.56L329.72 434.4L324.09 427.13L326.2 434.12L321.05 440.36L316.25 441.64L310.28 439.34L310.33 442.78Z" id="a2SnzZ3k61"></path><path d="M372.29 427.5L378.51 433.71L378 443.89L369.75 448.62L362.34 446.94L357.43 437.82L362.66 429.38L372.29 427.5Z" id="b4cgNqGK8n"></path><path d="M357.49 438.11L362.47 446.94L370.45 448.48L377.79 443.95L378.06 434.77L375.25 441.5L367.31 443.05L362.79 440.99L359.64 435.42L357.49 438.11Z" id="d1flQFuS0j"></path><path d="M294.79 411.18L301 417.39L300.49 427.57L292.24 432.3L284.83 430.62L279.93 421.5L285.15 413.06L294.79 411.18Z" id="cz58xYugD"></path><path d="M279.98 421.79L284.97 430.62L292.95 432.16L300.29 427.63L300.56 418.45L297.75 425.18L289.8 426.73L285.28 424.67L282.13 419.1L279.98 421.79Z" id="d5vU1nPKmh"></path><path d="M327.17 409.36L334.93 413.48L337.41 423.37L330.91 430.31L323.34 430.87L315.98 423.59L318.51 413.98L327.17 409.36Z" id="a3fROa9zU"></path><path d="M316.11 423.84L323.47 430.83L331.55 429.97L337.24 423.48L334.81 414.63L334.09 421.89L326.95 425.69L322.02 425.05L317.38 420.64L316.11 423.84Z" id="btvlWdpAL"></path><path d="M355.29 411.19L363.05 415.31L365.54 425.2L359.04 432.14L351.46 432.7L344.1 425.42L346.63 415.81L355.29 411.19Z" id="dFGlgoWcO"></path><path d="M344.24 425.67L351.59 432.66L359.67 431.8L365.36 425.32L362.93 416.46L362.22 423.72L355.08 427.52L350.15 426.88L345.51 422.47L344.24 425.67Z" id="brJp7OliV"></path><path d="M373.39 412.08L381.15 416.2L383.64 426.09L377.14 433.03L369.57 433.59L362.21 426.31L364.73 416.7L373.39 412.08Z" id="e4U08ltG3"></path><path d="M362.34 426.56L369.69 433.55L377.78 432.69L383.47 426.2L381.04 417.35L380.32 424.61L373.18 428.41L368.25 427.77L363.61 423.36L362.34 426.56Z" id="di9haG8uR"></path><path d="M311.26 411.16L317.51 417.34L317.06 427.52L308.84 432.3L301.42 430.67L296.46 421.57L301.64 413.1L311.26 411.16Z" id="e2I7LLH1F"></path><path d="M296.52 421.86L301.55 430.66L309.54 432.16L316.85 427.58L317.07 418.4L314.3 425.15L306.37 426.74L301.83 424.71L298.65 419.16L296.52 421.86Z" id="jS1vOlUnJ"></path><path d="M364.94 419.11L371.19 425.29L370.74 435.47L362.51 440.25L355.1 438.62L350.14 429.52L355.32 421.05L364.94 419.11Z" id="b4BdmZoP52"></path><path d="M350.2 429.81L355.23 438.61L363.22 440.11L370.53 435.53L370.75 426.35L367.98 433.1L360.05 434.69L355.51 432.66L352.33 427.11L350.2 429.81Z" id="fcN7TGCJP"></path><path d="M68.93 357.28L68.05 371.66L88.89 369.9L104.16 357.28L119.71 345.83L134.98 342.6L143.05 344.36L158.17 332.62L164.92 333.5L176.37 350.82L191.93 378.12L185.05 411.27L184.3 414.52L185.8 428.02L181.05 423.77L180.3 428.02L175.05 429.02L168.3 420.24L166.3 431.77L163.05 435.09L150.05 425.27L143.05 413.77L139.1 432.52L146.05 446.52L140.3 445.77L125.3 431.02L117.07 412.52L115.3 420.24L115.3 430.27L117.07 441.73L109.25 435.09L100.27 417.51L96.36 408.92L98.32 444.46L81.13 420.24L76.05 397.2L71.75 420.24L63.55 388.64L63.55 372.59L68.93 357.28Z" id="dDTSB9ZuC"></path><path d="M63.11 388.27L71.77 419.67L75.96 397.56L81.16 420.34L98.24 444.63L96.06 408.79L109.13 435.25L117.17 442.12L115.33 430.9L114.86 426.49L110.12 423.11L102.9 410.92L95 399.86L95.67 422.43L90.93 427.62L83.48 421.75L79.65 402.79L74.9 390.83L70.84 407.53L63.55 383.38L63.11 388.27Z" id="dZc8LPIUL"></path><path d="M124.99 431.62L140.4 446.02L145.93 446.52L139.73 434.63L132.7 431.62L119.8 417.21L124.99 431.62Z" id="e2yQ488qeo"></path><path d="M149.58 425.22L163.15 434.93L166.5 431.87L167.5 426.22L159.97 427.4L146.9 419.69L149.58 425.22Z" id="c1UxVFWBRD"></path><path d="M175.04 429.07L179.9 428.07L180.57 425.72L175.71 425.72L168.68 419.69L175.04 429.07Z" id="c4iT3lMCWR"></path><path d="M185.59 427.9L181.24 424.38L180.07 417.85L185.59 427.9Z" id="a32EdAQM4P"></path><path d="M127.74 388.13L143.4 402.98L132.86 369.65L97.24 382.87L127.74 388.13Z" id="h2Tjeqms4I"></path><path d="M236.79 472.15L273.51 502.22L363.78 502.22L398.14 472.15L413.48 420.62L366.85 439.64L279.12 439.64L225.13 423.69L236.79 472.15Z" id="aXgRDihvk"></path><path d="M233.89 467.73L285.04 500.75L366.16 500.75L398.34 472.91L402.87 457.18L393.32 469.03L359.49 480.03L305.61 483.92L259.08 470.97L229.36 438.9L233.89 467.73Z" id="c1D8NKDzx4"></path><path d="M151.45 368.8L151.45 372.03L152.42 377.65L158.04 381.53L175.67 383.08L173.73 386.18L175.67 390.25L174.7 392.38L175.67 397.03L191.93 400.52L208.63 397.03L212.58 392.38L208.63 389.09L210.75 384.44L209.51 381.53L214.04 376.68L212.58 372.03L208.63 368.8L211.45 364.15L206.99 356.01L197.81 353.29L189.16 353.29L185.03 354.05L186.11 350.84L190.21 342.36L197.81 341.48L209.51 334.75L213.31 331.41L214.48 325.98L208.63 321.89L197.81 325.11L187.87 325.11L179.39 328.32L164.18 331.41L155.41 342.36L139.1 346.16L136.11 352.59L137.58 359.65L151.45 368.8Z" id="ce4eOY5kF"></path><path d="M213.89 330.95L210.54 334.05L199.13 341.22L190.08 342.58L185.16 354.4L176.9 355.75L172.57 352.85L173.16 349.55L184.57 339.09L191.46 337.92L207.79 332.62L214.48 326.49L213.89 330.95Z" id="b6mDcf4MAB"></path><path d="M168.8 366.49L194.85 364.94L210.64 362.61L211.43 364.36L208.47 368.62L212.82 372.3L213.8 377.15L209.46 381.8L210.64 383.93L208.47 388.64L212.82 392.27L208.47 397.11L191.79 400.52L174.85 397.11L174.33 392.27L175.51 390.33L172.94 386.65L174.85 382.77L156.96 381.22L150.84 377.15L150.84 368.62L136.43 359.71L135.44 354.28L151.82 364.36L168.8 366.49ZM193.52 389.57L195.71 386.06L191.93 387.03L193.52 389.57ZM156.76 374.44L158.31 377.4L183.89 380.06L200.56 375.79L196.87 373.27L180.4 376.96L156.76 374.44Z" id="cVG89tLw3"></path><path d="M77.98 482.2L74.43 514.14L42.05 527.89L32.29 511.48L35.4 492.85L43.38 471.11L57.13 463.57L77.98 482.2Z" id="a29qtZoH1m"></path><path d="M32.29 511.32L37.91 521.1L49.31 523.27L54.2 509.79L37.91 505.21L34.95 497.27L32.29 511.32Z" id="bNwbLncVS"></path><path d="M84.39 466.67L105.55 468.84L180.36 460.61L218.71 462.24L248.68 466.67L266.99 471.29L251.51 473.25L251.51 477.43L285.41 485.29L272.06 488.24L281.73 489.96L294.75 489.96L307.53 499.24L294.75 501.02L326.94 506.06L326.94 510.11L332.76 513.64L344.82 515.12L375.56 508.51L382.17 511.37L357.27 562.83L343.15 561.42L337.04 557.38L335.87 572.32L340.79 585.94L330.03 576.6L320 570.22L310.19 567.11L316.11 576.6L303.57 574.11L290.34 562.83L283.34 561.42L277.5 566.09L280.62 570.22L272.06 576.6L253.77 574.11L243.26 568.04L236.18 567.11L230.73 574.11L226.45 574.11L217.89 565.16L211.67 560.1L203.49 562.83L196.1 567.11L190.27 557.38L184.04 558.93L173.92 562.83L167.31 556.21L156.02 570.22L149.02 567.11L142.41 550.37L131.51 562.83L116.72 544.15L107 551.54L93.38 534.81L72.76 557.38L59.14 531.7L49.02 530.53L50.68 539.4L38.56 523.49L38.56 511.37L54.47 513.64L50.68 499.24L69.62 506.06L57.5 493.18L54.47 478.79L57.5 460.61L67.98 451.4L84.39 466.67Z" id="a2fqoVCgJi"></path><path d="M274.25 510.53L220.03 496.51L136.7 496.51L274.25 510.53Z" id="cc4wY2FZg"></path><path d="M53.8 513.88L38.56 511.6L37.91 524.72L50.52 539.61L49.26 530.78L58.51 532.54L72.75 558.33L93.43 535.95L107.58 552.3L116.92 545.91L131.3 563.85L142.85 552.3L148.15 567.38L156.22 570.64L167.57 557.09L173.88 563.85L182.21 559.86L190.46 558.33L196.26 568.06L202.82 563.85L212.15 560.85L217.7 565.64L225.85 574.7L231.15 574.7L236.44 567.38L243.51 568.9L253.85 574.7L272.02 577.98L281.81 570.64L277.31 567.38L282.86 561.83L290.18 563.85L303.3 574.7L317.64 577.98L310.28 568.06L318.46 570.64L326.63 575.8L342.28 587.61L335.23 571.93L337.38 559.03L343.15 562.9L356.74 562.9L364.1 549.38L320 554.18L228.16 541.29L135.44 531.62L52.21 509.06L53.8 513.88Z" id="a7CSkqHXg"></path><path d="M337.8 557.51L344.73 562.36L350.18 560.48L355.13 555.04L356.98 553.72L355.13 544.54L356.11 538.06L359.43 530.86L366.86 528.38L365.54 523.27L368.49 511.97L373.44 503.06L382.17 500.09L390.62 500.09L399.19 503.06L399.19 496.51L404.5 485.24L413.54 483.26L424.22 471.87L424.22 454.71L441.76 432.96L460.08 479.79L484.33 483.26L497.21 507.51L500.67 527.31L510.08 533.75L510.08 548.6L515.71 555.04L520.47 563.95L515.71 572.27L507.11 572.27L499.58 568.9L494.32 563.95L485.82 563.95L479.88 557.51L479.88 547.12L471.46 548.6L458.1 547.12L452.16 537.22L445.23 544.54L434.19 544.54L434.19 562.36L425.77 577.71L404.5 586.13L390.62 589.1L388.64 601.97L382.17 605.43L366.86 603.95L359.43 609.39L347.55 605.43L343.15 597.51L346.56 587.61L336.66 572.27L337.8 557.51Z" id="bzpLDUP3i"></path><path d="M239.46 355.94L238.73 359.7L231.62 361.2L224.85 370.83L222.6 382.06L224.03 395.52L228.64 413.22L235.67 429.23L240.95 443.27L238.73 455.8L234.8 469.28L227.21 479.96L210.04 497.49L194.18 512.93L180.98 530.91L175.64 546.92L174.51 567.71L179.85 583.16L187.49 595.43L206.03 609.76L224.85 615.94L262.69 625.52L285.16 630.41L331.82 635.46L380.84 635.46L408.64 630.41L494.32 623.55L403.67 633.44L377.72 638.72L316.11 637.37L291.31 633.44L255.92 627.26L207.41 613.97L185.22 596.56L172.32 578.33L171.2 556.14L179.07 525.8L191.93 510.86L213.36 491.19L231.62 467.88L237.24 445.41L235.67 436.92L228.64 420.35L223.31 405.74L220.47 385.52L224.03 368.13L230.75 357.46L239.46 355.94Z" id="c1cN7PkzyO"></path><path d="M488.93 310.73L500.82 278.82L509.97 266.22L519.14 266.22L509.21 277.12L502.4 281.16L509.21 281.16L509.21 295.41L513.67 282.44L520.06 278.82L520.06 283.5L525.31 278.82L529.99 297.12L528.35 310.73L535.59 288.61L542.18 302.01L539.42 328.18L544.95 321.16L546.01 333.5L551.55 322.86L554.42 312.44L558.57 315.41L558.57 334.35L552.5 325.78L556.76 337.27L554.42 371.95L552.5 360.03L552.97 367.67L540.63 404.31L525.31 425.8L529.99 391.54L519.14 429.56L506.38 454.03L508.08 436.63L508.08 416.16L488.93 449.56L482.31 466.61L491.67 485.12L500.82 498.61L495.5 496.39L503.38 515.33L499.97 512.56L498.48 528.09L495.93 510.22L488.27 493.84L494.23 529.8L485.84 517.54L484.78 507.54L480.1 503.71L477.76 521.16L475.84 513.92L470.31 502.22L468.18 518.18L464.78 511.37L460.52 489.24L456.48 489.24L450.74 498.61L452.23 469.24L448.82 480.52L446.95 475.2L446.95 460.44L440.8 469.8L439.3 463.4L442.69 450.2L439.3 448.32L439.3 436.63L437.41 442.29L424.22 455.1L432.13 444.92L439.3 427.58L440.8 392.52L444.95 358.22L462.67 331.08L480.76 315.98L488.93 310.73Z" id="kJaqHWGad"></path><path d="M506.86 455.05L507.81 417.27L512.25 380.45L513.52 439.81L506.86 455.05Z" id="c3gJs7AXBJ"></path><path d="M525.27 425.58L540.82 403.99L545.9 386.53L537.97 401.77L532.57 403.99L530.03 367.48L530.03 392.88L525.27 425.58Z" id="bDJH8ungg"></path><path d="M455.87 417.75L471.11 372.67L457.78 405.37L455.87 377.75L455.87 417.75Z" id="i1uRNGymrk"></path><path d="M507.93 416.8L488.88 449.64L482.08 466.63L486.66 475.53L476.82 471.4L473.33 460.29L480.63 452.35L507.93 409.18L507.93 416.8Z" id="a2bSdhv1HC"></path><path d="M464.41 511.21L468.22 518.32L470.13 502.43L475.67 514.05L477.81 520.79L480.08 503.9L484.72 508.04L485.72 517.34L494.07 529.42L488.83 495.02L495.95 509.85L498.68 527.98L500.48 513.47L498.21 511.21L492.78 498.98L487.57 493.09L487.57 507.13L480.32 500.56L477.37 508.04L471.11 497.84L468.54 505.77L466.27 509.85L461.29 491.95L464.41 511.21Z" id="a3lkpXEkXQ"></path><path d="M500.84 498.69L495.66 496.42L493.48 492.61L500.84 498.69Z" id="e7YriyEyR"></path><path d="M440.85 469.45L447.11 460.45L449.39 453.82L439.67 464.72L440.85 469.45Z" id="d5vonxdJRR"></path><path d="M450.76 498.3L456.39 489.49L457.02 484.5L452.48 490.94L452.03 469.45L450.76 498.3Z" id="dT1kgKUqm"></path><path d="M444.53 358.36L440.85 391.44L439.67 436.86L448.13 439.1L475.81 466.36L471.11 401.54L461.29 398.24L457.02 409.18L455.87 395.21L449.39 363.97L444.53 358.36Z" id="b2hktAywAk"></path><path d="M185.25 354.25L179.35 355.94L177.08 350.6L182.72 342.18L189.74 343.86L185.25 354.25Z" id="c25xES65WV"></path><path d="M402.31 514.24L402.31 522.51L402.31 529.22L395.85 537.86L391.72 539.82L387.58 541.37L390.42 547.52L387.58 555.58L386.81 559.97L377.76 561.01L377.76 566.17L378.8 572.12L374.66 580.13L371.56 583.91L360.71 583.91L356.13 585.55L356.13 590.97L362.07 593.57L366.9 602.85L358.73 609.39L344.62 603.97L342.02 598.4L344.62 593.57L348.33 590.97L348.33 583.91L349.81 575.74L356.13 565.34L356.13 554.2L355.01 547.52L356.13 538.97L359.84 538.97L366.9 537.86L366.9 528.58L365.54 523.3L368.75 511.86L376.18 510.75L389.55 509.64L398.09 505.18L402.31 514.24Z" id="g2wsvooxfh"></path><path d="M518.06 559.82L512.18 559.82L510.87 555.25L518.06 559.82Z" id="b32KbLC5OF"></path><path d="M417.55 534.13L420.66 543.69L420.66 555.58L411.61 568.76L402.31 579.61L402.31 586.59L390.68 589.69L388.87 602.61L382.17 605.45L365.88 602.61L368.72 600.54L374.66 597.18L385.26 592.79L386.29 581.68L386.29 570.05L393.27 565.66L403.86 555.58L415.23 545.76L417.55 534.13Z" id="b27X3z0wE6"></path><path d="M498.78 543.48L500.15 550.83L492.9 544.79L498.78 543.48Z" id="e1b1fxyUnt"></path><path d="M397.92 580.9L402.31 586.07L425.31 578.32L434.35 562.04L424.22 572.12L406.44 575.22L397.92 580.9Z" id="eacZMiqpSf"></path><path d="M477.21 527.79L479.62 537.6L475.25 531.39L467.08 528.5L477.21 527.79Z" id="aul1HzFhp"></path><path d="M420.66 492.94L408.3 494.5L404.43 488.29L401.07 491.65L399.78 498.45L406.5 507.42L411.92 511.81L411.92 522.66L415.28 531.45L424.22 537.91L434.35 544.44L445.51 544.44L452.23 536.95L458.67 547.73L471.35 548.76L479.62 547.73L479.62 557.29L485.82 564.52L494.32 564.52L498.49 568.4L507.27 572.27L516.31 572.27L520.47 564.52L516.31 564.52L507.27 563.23L503.65 562.04L503.65 555.81L500.78 555.81L496.39 555.04L491.39 551.42L488.64 546.77L481.66 546.77L478.05 544.44L475.2 541.6L469 536.95L463.58 534.13L458.67 534.13L453.5 533.33L450.66 530.75L446.78 526.36L436.7 524.55L428.25 524.55L419.65 518.09L417.58 516.79L419.13 498.45L420.66 492.94Z" id="e1EuEhu51"></path><path d="M443.42 508.81L450.96 512.58L452.84 524.84L443.42 515.94L430.65 515.94L433.05 510.23L443.42 508.81Z" id="cPjhrTRlu"></path><path d="M435.69 467.36L424.22 483.64L424.22 472.53L424.22 455.74L429.23 465.3L435.69 458.84L435.69 467.36Z" id="cGTSqy4Ql"></path><path d="M397.92 582.76L389.62 590.52L393.27 577.6L407.97 563.64L397.92 582.76Z" id="a3DvrPo6BB"></path><path d="M457.92 526.54L455.33 536.36L461.02 524.99L456.88 515.94L457.92 526.54Z" id="b5In0lOLZR"></path><path d="M383.94 541.16L387.3 547.88L385.75 556.15L375.93 559.51L374.89 563.9L361.46 564.42L373.6 566.48L374.89 572.27L369.21 581.99L362.49 582.76L358.61 584.83L349.57 589.48L357.06 590.26L365.88 594.65L365.88 603.69L368.43 600.33L366.62 592.07L357.06 587.61L362.49 584.83L370.24 584.31L377.22 572.27L377.22 568.55L378.51 560.8L387.3 558.22L389.62 546.07L387.3 541.16L393.27 539.09L402.31 528.5L396.6 534.7L378.51 534.7L367.4 528.5L383.94 541.16Z" id="b3XPxpg8dd"></path><path d="M487.37 542.56L484.79 534.81L484.79 542.56L479.62 547.21L487.37 542.56Z" id="d2Q9UxrnTz"></path><path d="M502.62 562.04L505.98 550.83L501.84 557.29L494.32 564.26L502.62 562.04Z" id="g1Wq4t97MJ"></path><path d="M177.24 124.4L170.03 127.55L168.23 131.61L167.1 138.36L168.23 154.58L174.99 167.87L186.47 177.1L195.26 178.68L202.02 177.1L207.87 174.17L209.22 172.15L211.7 172.15L211.7 165.63L212.37 160.21L211.7 154.58L209.22 148.27L210.35 143.54L209.22 138.36L203.82 135.44L204.94 130.71L204.94 126.2L200.44 125.53L202.02 121.93L198.08 117.64L190.56 119.07L177.24 124.4Z" id="b2oLC3242x"></path><path d="M168.13 138.53L169.29 154.07L174.86 166.37L187.16 176.12L189.25 173.33L188.32 154.07L178.73 134.35L170.81 131.45L168.13 138.53Z" id="a1axRENvKb"></path><path d="M357.79 84.47L357.79 112.31L353.84 81.68L357.79 84.47Z" id="b3y3ckoJw"></path><path d="M263.74 114.76L270.87 112.67L278.99 113.94L282.03 120.52L284.54 119.49L292.3 120.75L296.46 124.83L294.18 131.81L292.11 129.44L287.45 131.66L284.17 135.87L279.83 139.65L272.79 140.41L267.84 137.21L261.86 135.37L258.94 139.18L253.98 139.07L250.56 133.93L254.22 128.58L261.05 124.03L261.12 121.14L261.21 117.07L263.74 114.76Z" id="cJXvhXylV"></path><path d="M252.49 137.75L255.45 139.99L260.31 138.87L262.46 137.25L266.7 137.25L268.82 139.37L274.56 140.99L281.04 140.41L285.03 136.75L287.4 132.7L294.87 131.45L296.99 126.15L294.87 127.84L290.01 127.84L283.53 129.46L279.21 135.68L273.51 136.75L269.49 132.7L260.31 132.7L255.45 136.75L251.67 134.86L252.49 137.75Z" id="anp0iXgUh"></path></defs><g><g><g><g><use xlink:href="#a1gIWf6Yj1" opacity="1" fill="#6c8387" fill-opacity="1"></use></g><g><use xlink:href="#e54hicrCV0" opacity="1" fill="#394547" fill-opacity="1"></use></g><g><use xlink:href="#e19hOgkAR" opacity="1" fill="#394547" fill-opacity="1"></use></g><g><use xlink:href="#b2ddkwbvlo" opacity="1" fill="#394547" fill-opacity="1"></use></g><g><use xlink:href="#b4lWSXv5XC" opacity="1" fill="#394547" fill-opacity="1"></use></g></g><g><g><use xlink:href="#a1wE0L6hTV" opacity="1" fill="#9fc1c7" fill-opacity="1"></use></g><g><use xlink:href="#e2ppTu6R0Q" opacity="1" fill="#6c8387" fill-opacity="1"></use></g><g><use xlink:href="#f3fmiN5jvB" opacity="1" fill="#6c8387" fill-opacity="1"></use></g><g><use xlink:href="#b2inrudHaK" opacity="1" fill="#6c8387" fill-opacity="1"></use></g><g><use xlink:href="#a9BVy4zJ" opacity="1" fill="#6c8387" fill-opacity="1"></use></g><g><use xlink:href="#bxrYwWHtb" opacity="1" fill="#6c8387" fill-opacity="1"></use></g><g><use xlink:href="#iaqNOtpZz" opacity="1" fill="#6c8387" fill-opacity="1"></use></g></g><g><g><use xlink:href="#a2vWf9Xrh" opacity="1" fill="#9fc1c7" fill-opacity="1"></use></g><g><use xlink:href="#a4eGTU8Gxh" opacity="1" fill="#6c8387" fill-opacity="1"></use></g><g><use xlink:href="#bFeYUw77X" opacity="1" fill="#6c8387" fill-opacity="1"></use></g><g><use xlink:href="#a3obDqehaz" opacity="1" fill="#6c8387" fill-opacity="1"></use></g><g><use xlink:href="#a1IQCZhfms" opacity="1" fill="#6c8387" fill-opacity="1"></use></g></g><g><use xlink:href="#a3uEb6QXm" opacity="1" fill="#8ba8ad" fill-opacity="1"></use></g><g><use xlink:href="#krpVtLxIR" opacity="1" fill="#6c8387" fill-opacity="1"></use></g><g><use xlink:href="#dXZmATeZZ" opacity="1" fill="#273a61" fill-opacity="1"></use></g><g><use xlink:href="#h2ceRknC68" opacity="1" fill="#394547" fill-opacity="1"></use></g><g><g><use xlink:href="#fpcCLCkHN" opacity="1" fill="#9fc1c7" fill-opacity="1"></use></g><g><use xlink:href="#b205szlhy" opacity="1" fill="#6c8387" fill-opacity="1"></use></g><g><use xlink:href="#c2oUQTwi0D" opacity="1" fill="#c4c79f" fill-opacity="1"></use></g><g><use xlink:href="#c1Ba1S72u2" opacity="1" fill="#6c8387" fill-opacity="1"></use></g><g><use xlink:href="#aq1GFE4lE" opacity="1" fill="#cadfe3" fill-opacity="1"></use></g><g><use xlink:href="#a59J4Y6WdV" opacity="1" fill="#f23f2e" fill-opacity="1"></use></g><g><use xlink:href="#cbNf2Enyv" opacity="1" fill="#ffffff" fill-opacity="1"></use></g><g><use xlink:href="#c2DH8a29J" opacity="1" fill="#cadfe3" fill-opacity="1"></use></g><g><use xlink:href="#b1zDkuwr9T" opacity="1" fill="#f23f2e" fill-opacity="1"></use></g><g><use xlink:href="#aBvptALRs" opacity="1" fill="#ffffff" fill-opacity="1"></use></g><g><use xlink:href="#a3ubxS99Fh" opacity="1" fill="#6c8387" fill-opacity="1"></use></g><g><use xlink:href="#hc7wzm9ZX" opacity="1" fill="#394547" fill-opacity="1"></use></g><g><use xlink:href="#ex7gzt6P2" opacity="1" fill="#394547" fill-opacity="1"></use></g><g><use xlink:href="#ipGPucbEj" opacity="1" fill="#394547" fill-opacity="1"></use></g><g><use xlink:href="#b1qqSWBRIN" opacity="1" fill="#6c8387" fill-opacity="1"></use></g><g><use xlink:href="#hjP5QhNE" opacity="1" fill="#6c8387" fill-opacity="1"></use></g><g><use xlink:href="#a4Y3h8SnE1" opacity="1" fill="#6c8387" fill-opacity="1"></use></g><g><use xlink:href="#m2oDXZYw1w" opacity="1" fill="#c4c79f" fill-opacity="1"></use></g><g><use xlink:href="#aadqjwaRw" opacity="1" fill="#c4c79f" fill-opacity="1"></use></g><g><use xlink:href="#dDNTkyafE" opacity="1" fill="#a3a585" fill-opacity="1"></use></g><g><use xlink:href="#bCGCmThPF" opacity="1" fill="#a3a585" fill-opacity="1"></use></g><g><use xlink:href="#aSDptsoD7" opacity="1" fill="#a3a585" fill-opacity="1"></use></g><g><use xlink:href="#b5ZVW63XWv" opacity="1" fill="#a3a585" fill-opacity="1"></use></g><g><use xlink:href="#bx2nl3QBv" opacity="1" fill="#6c8387" fill-opacity="1"></use></g><g><use xlink:href="#d5ccdpdRZI" opacity="1" fill="#6c8387" fill-opacity="1"></use></g><g><use xlink:href="#a4RYEpJ4lU" opacity="1" fill="#6c8387" fill-opacity="1"></use></g><g><use xlink:href="#b2Az6LLSLx" opacity="1" fill="#6c8387" fill-opacity="1"></use></g><g><use xlink:href="#b2hu4gKK6f" opacity="1" fill="#6c8387" fill-opacity="1"></use></g><g><use xlink:href="#cmk6KieEv" opacity="1" fill="#6c8387" fill-opacity="1"></use></g><g><use xlink:href="#aDX0Annct" opacity="1" fill="#6c8387" fill-opacity="1"></use></g><g><use xlink:href="#b5SkrIQJs" opacity="1" fill="#6c8387" fill-opacity="1"></use></g><g><use xlink:href="#h8rV2Xs1A3" opacity="1" fill="#6c8387" fill-opacity="1"></use></g><g><use xlink:href="#fWfkzZtXL" opacity="1" fill="#6c8387" fill-opacity="1"></use></g><g><use xlink:href="#dGxyIgtUu" opacity="1" fill="#6c8387" fill-opacity="1"></use></g><g><use xlink:href="#d2MMOlKKpj" opacity="1" fill="#6c8387" fill-opacity="1"></use></g><g><use xlink:href="#h3rXEayxN" opacity="1" fill="#6c8387" fill-opacity="1"></use></g><g><use xlink:href="#asiwvSSCd" opacity="1" fill="#6c8387" fill-opacity="1"></use></g><g><use xlink:href="#a1sgSWc5H2" opacity="1" fill="#6c8387" fill-opacity="1"></use></g></g><g><use xlink:href="#aZOhbbfD9" opacity="1" fill="#1f2f4e" fill-opacity="1"></use></g><g><g><use xlink:href="#c4bsCsnsHc" opacity="1" fill="#273a61" fill-opacity="1"></use></g><g><use xlink:href="#m10fvguEUd" opacity="1" fill="#273a61" fill-opacity="1"></use></g></g><g><g><use xlink:href="#a1faAD4Y2Y" opacity="1" fill="#fabbaf" fill-opacity="1"></use></g><g><use xlink:href="#bMugS0DbC" opacity="1" fill="#ce8e71" fill-opacity="1"></use></g><g><use xlink:href="#awy44d4k0" opacity="1" fill="#ce8e71" fill-opacity="1"></use></g></g><g><use xlink:href="#c1GKeAk9lI" opacity="1" fill="#fabbaf" fill-opacity="1"></use></g><g><g><use xlink:href="#a5rJ73XuXU" opacity="1" fill="#9fc1c7" fill-opacity="1"></use></g><g><use xlink:href="#h1QuWKJBMR" opacity="1" fill="#6c8387" fill-opacity="1"></use></g><g><use xlink:href="#e1pDUm9SFI" opacity="1" fill="#6c8387" fill-opacity="1"></use></g></g><g><use xlink:href="#a14mJFqndr" opacity="1" fill="#8ba8ad" fill-opacity="1"></use></g><g><use xlink:href="#c13kNiyQfr" opacity="1" fill="#273a61" fill-opacity="1"></use></g><g><g><use xlink:href="#bplGN4B1d" opacity="1" fill="#e1922e" fill-opacity="1"></use></g><g><use xlink:href="#ahLKGp9yg" opacity="1" fill="#a26c27" fill-opacity="1"></use></g></g><g><g><use xlink:href="#e4jxSt5vTo" opacity="1" fill="#e1922e" fill-opacity="1"></use></g><g><use xlink:href="#a4E2yZixqP" opacity="1" fill="#a26c27" fill-opacity="1"></use></g></g><g><g><use xlink:href="#b18ciRt61r" opacity="1" fill="#e1922e" fill-opacity="1"></use></g><g><use xlink:href="#i19BTd3m7" opacity="1" fill="#a26c27" fill-opacity="1"></use></g></g><g><g><use xlink:href="#e13PeW0D7i" opacity="1" fill="#e1922e" fill-opacity="1"></use></g><g><use xlink:href="#dNSYUwNWy" opacity="1" fill="#a26c27" fill-opacity="1"></use></g></g><g><g><use xlink:href="#b4viYADpu8" opacity="1" fill="#e1922e" fill-opacity="1"></use></g><g><use xlink:href="#jSXNMMWg7" opacity="1" fill="#a26c27" fill-opacity="1"></use></g></g><g><g><use xlink:href="#a2q61r9CW8" opacity="1" fill="#e1922e" fill-opacity="1"></use></g><g><use xlink:href="#f1WkmLq0F" opacity="1" fill="#a26c27" fill-opacity="1"></use></g></g><g><g><use xlink:href="#cvpdINL1y" opacity="1" fill="#e1922e" fill-opacity="1"></use></g><g><use xlink:href="#eipIwfxmU" opacity="1" fill="#a26c27" fill-opacity="1"></use></g></g><g><g><use xlink:href="#a1KJtP1Et5" opacity="1" fill="#e1922e" fill-opacity="1"></use></g><g><use xlink:href="#bWnG4x5iT" opacity="1" fill="#a26c27" fill-opacity="1"></use></g></g><g><g><use xlink:href="#b63H34nryo" opacity="1" fill="#e1922e" fill-opacity="1"></use></g><g><use xlink:href="#a1zqQKziJw" opacity="1" fill="#a26c27" fill-opacity="1"></use></g></g><g><g><use xlink:href="#awCQ2KESP" opacity="1" fill="#e1922e" fill-opacity="1"></use></g><g><use xlink:href="#c1wk578zyB" opacity="1" fill="#a26c27" fill-opacity="1"></use></g></g><g><g><use xlink:href="#a1xG9TYs6x" opacity="1" fill="#e1922e" fill-opacity="1"></use></g><g><use xlink:href="#f3uDva350" opacity="1" fill="#a26c27" fill-opacity="1"></use></g></g><g><g><use xlink:href="#dzyVMVaGx" opacity="1" fill="#e1922e" fill-opacity="1"></use></g><g><use xlink:href="#eb6sudTa2" opacity="1" fill="#a26c27" fill-opacity="1"></use></g></g><g><g><use xlink:href="#cRAhXXEva" opacity="1" fill="#e1922e" fill-opacity="1"></use></g><g><use xlink:href="#d4bhdIcuJT" opacity="1" fill="#a26c27" fill-opacity="1"></use></g></g><g><g><use xlink:href="#f1Chkg0rvF" opacity="1" fill="#e1922e" fill-opacity="1"></use></g><g><use xlink:href="#a5b9H1un1" opacity="1" fill="#a26c27" fill-opacity="1"></use></g></g><g><g><use xlink:href="#b1wzKzEEJW" opacity="1" fill="#e1922e" fill-opacity="1"></use></g><g><use xlink:href="#a2SnzZ3k61" opacity="1" fill="#a26c27" fill-opacity="1"></use></g></g><g><g><use xlink:href="#b4cgNqGK8n" opacity="1" fill="#e1922e" fill-opacity="1"></use></g><g><use xlink:href="#d1flQFuS0j" opacity="1" fill="#a26c27" fill-opacity="1"></use></g></g><g><g><use xlink:href="#cz58xYugD" opacity="1" fill="#e1922e" fill-opacity="1"></use></g><g><use xlink:href="#d5vU1nPKmh" opacity="1" fill="#a26c27" fill-opacity="1"></use></g></g><g><g><use xlink:href="#a3fROa9zU" opacity="1" fill="#e1922e" fill-opacity="1"></use></g><g><use xlink:href="#btvlWdpAL" opacity="1" fill="#a26c27" fill-opacity="1"></use></g></g><g><g><use xlink:href="#dFGlgoWcO" opacity="1" fill="#e1922e" fill-opacity="1"></use></g><g><use xlink:href="#brJp7OliV" opacity="1" fill="#a26c27" fill-opacity="1"></use></g></g><g><g><use xlink:href="#e4U08ltG3" opacity="1" fill="#e1922e" fill-opacity="1"></use></g><g><use xlink:href="#di9haG8uR" opacity="1" fill="#a26c27" fill-opacity="1"></use></g></g><g><g><use xlink:href="#e2I7LLH1F" opacity="1" fill="#e1922e" fill-opacity="1"></use></g><g><use xlink:href="#jS1vOlUnJ" opacity="1" fill="#a26c27" fill-opacity="1"></use></g></g><g><g><use xlink:href="#b4BdmZoP52" opacity="1" fill="#e1922e" fill-opacity="1"></use></g><g><use xlink:href="#fcN7TGCJP" opacity="1" fill="#a26c27" fill-opacity="1"></use></g></g><g><g><use xlink:href="#dDTSB9ZuC" opacity="1" fill="#9fc1c7" fill-opacity="1"></use></g><g><use xlink:href="#dZc8LPIUL" opacity="1" fill="#6c8387" fill-opacity="1"></use></g><g><use xlink:href="#e2yQ488qeo" opacity="1" fill="#6c8387" fill-opacity="1"></use></g><g><use xlink:href="#c1UxVFWBRD" opacity="1" fill="#6c8387" fill-opacity="1"></use></g><g><use xlink:href="#c4iT3lMCWR" opacity="1" fill="#6c8387" fill-opacity="1"></use></g><g><use xlink:href="#a32EdAQM4P" opacity="1" fill="#6c8387" fill-opacity="1"></use></g><g><use xlink:href="#h2Tjeqms4I" opacity="1" fill="#6c8387" fill-opacity="1"></use></g></g><g><use xlink:href="#aXgRDihvk" opacity="1" fill="#afc7fa" fill-opacity="1"></use></g><g><use xlink:href="#c1D8NKDzx4" opacity="1" fill="#8ea4d2" fill-opacity="1"></use></g><g><g><use xlink:href="#ce4eOY5kF" opacity="1" fill="#fabbaf" fill-opacity="1"></use></g><g><use xlink:href="#b6mDcf4MAB" opacity="1" fill="#ce8e71" fill-opacity="1"></use></g><g><use xlink:href="#cVG89tLw3" opacity="1" fill="#ce8e71" fill-opacity="1"></use></g></g><g><g><use xlink:href="#a29qtZoH1m" opacity="1" fill="#fabbaf" fill-opacity="1"></use></g><g><use xlink:href="#bNwbLncVS" opacity="1" fill="#ce8e71" fill-opacity="1"></use></g></g><g><g><use xlink:href="#a2fqoVCgJi" opacity="1" fill="#9fc1c7" fill-opacity="1"></use></g><g><use xlink:href="#cc4wY2FZg" opacity="1" fill="#6c8387" fill-opacity="1"></use></g><g><use xlink:href="#a7CSkqHXg" opacity="1" fill="#6c8387" fill-opacity="1"></use></g></g><g><use xlink:href="#bzpLDUP3i" opacity="1" fill="#fabbaf" fill-opacity="1"></use></g><g><use xlink:href="#c1cN7PkzyO" opacity="1" fill="#000000" fill-opacity="1"></use></g><g><g><use xlink:href="#kJaqHWGad" opacity="1" fill="#9fc1c7" fill-opacity="1"></use></g><g><use xlink:href="#c3gJs7AXBJ" opacity="1" fill="#6c8387" fill-opacity="1"></use></g><g><use xlink:href="#bDJH8ungg" opacity="1" fill="#6c8387" fill-opacity="1"></use></g><g><use xlink:href="#i1uRNGymrk" opacity="1" fill="#6c8387" fill-opacity="1"></use></g><g><use xlink:href="#a2bSdhv1HC" opacity="1" fill="#6c8387" fill-opacity="1"></use></g><g><use xlink:href="#a3lkpXEkXQ" opacity="1" fill="#6c8387" fill-opacity="1"></use></g><g><use xlink:href="#e7YriyEyR" opacity="1" fill="#6c8387" fill-opacity="1"></use></g><g><use xlink:href="#d5vonxdJRR" opacity="1" fill="#6c8387" fill-opacity="1"></use></g><g><use xlink:href="#dT1kgKUqm" opacity="1" fill="#6c8387" fill-opacity="1"></use></g><g><use xlink:href="#b2hktAywAk" opacity="1" fill="#6c8387" fill-opacity="1"></use></g></g><g><use xlink:href="#c25xES65WV" opacity="1" fill="#273a61" fill-opacity="1"></use></g><g><g><use xlink:href="#g2wsvooxfh" opacity="1" fill="#ce8e71" fill-opacity="1"></use></g><g><use xlink:href="#b32KbLC5OF" opacity="1" fill="#9f6e57" fill-opacity="1"></use></g><g><use xlink:href="#b27X3z0wE6" opacity="1" fill="#ce8e71" fill-opacity="1"></use></g><g><use xlink:href="#e1b1fxyUnt" opacity="1" fill="#9f6e57" fill-opacity="1"></use></g><g><use xlink:href="#eacZMiqpSf" opacity="1" fill="#ce8e71" fill-opacity="1"></use></g><g><use xlink:href="#aul1HzFhp" opacity="1" fill="#9f6e57" fill-opacity="1"></use></g><g><use xlink:href="#e1EuEhu51" opacity="1" fill="#ce8e71" fill-opacity="1"></use></g><g><use xlink:href="#cPjhrTRlu" opacity="1" fill="#9f6e57" fill-opacity="1"></use></g><g><use xlink:href="#cGTSqy4Ql" opacity="1" fill="#ce8e71" fill-opacity="1"></use></g><g><use xlink:href="#a3DvrPo6BB" opacity="1" fill="#9f6e57" fill-opacity="1"></use></g><g><use xlink:href="#b5In0lOLZR" opacity="1" fill="#9f6e57" fill-opacity="1"></use></g><g><use xlink:href="#b3XPxpg8dd" opacity="1" fill="#9f6e57" fill-opacity="1"></use></g><g><use xlink:href="#d2Q9UxrnTz" opacity="1" fill="#9f6e57" fill-opacity="1"></use></g><g><use xlink:href="#g1Wq4t97MJ" opacity="1" fill="#9f6e57" fill-opacity="1"></use></g></g><g><use xlink:href="#b2oLC3242x" opacity="1" fill="#273a61" fill-opacity="1"></use></g><g><use xlink:href="#a1axRENvKb" opacity="1" fill="#f23f2e" fill-opacity="1"></use></g><g><use xlink:href="#b3y3ckoJw" opacity="1" fill="#f23f2e" fill-opacity="1"></use></g><g><use xlink:href="#cJXvhXylV" opacity="1" fill="#fabbaf" fill-opacity="1"></use></g><g><use xlink:href="#anp0iXgUh" opacity="1" fill="#ce8e71" fill-opacity="1"></use></g></g></g></svg>